<?xml version="1.0" encoding="UTF-8"?>
<svg width="40px" height="40px" viewBox="0 0 40 40" version="1.1" xmlns="http://www.w3.org/2000/svg" xmlns:xlink="http://www.w3.org/1999/xlink">
    <!-- Generator: Sketch 52.5 (67469) - http://www.bohemiancoding.com/sketch -->
    <title>icons8-poor_quality copy 2</title>
    <desc>Created with Sketch.</desc>
    <g id="政見" stroke="none" stroke-width="1" fill="none" fill-rule="evenodd">
        <g id="Artboard" transform="translate(-113.000000, -886.000000)">
            <g id="icons8-poor_quality-copy-2" transform="translate(113.000000, 886.000000)">
                <path d="M40,20 C40,31.044 31.044,40 20,40 C8.956,40 0,31.044 0,20 C0,8.956 8.956,0 20,0 C31.044,0 40,8.956 40,20 Z" id="Path" fill="#F44336"></path>
                <path d="M12.602,25.199 L18.2,22.398 L20,25.602 C20.898,27.2 21.398,29.102 21.398,31 L21.398,31.898 C21.398,33.101 20.398,34.101 19.199,34.101 L18.699,34.101 C18.301,34.101 18,33.8 17.898,33.398 L17.398,31.398 C17.199,30.5 16.699,29.699 16.102,29 L12.602,25.199 Z" id="Path" fill="#FFCC80"></path>
                <path d="M25.801,10 C25.102,10 15,10 15,10 C12.801,10 11,11.801 11,14 L11,22 C11,24.199 12.801,26 15,26 L28,26 C29.102,26 30,25.102 30,24 C30,22.898 29.5,22.5 29.5,22 C29.5,21.5 30,21.102 30,20 C30,18.898 29.199,18.199 29.102,17.699 C28.899,17.101 29.2,16.101 28.899,15.398 C28.602,14.699 28.001,14.3 27.899,13.601 C27.801,12.898 28.2,12.101 27.899,11.3 C27.5,10.699 26.801,10 25.801,10 Z" id="Path" fill="#FFCC80"></path>
            </g>
        </g>
    </g>
</svg>