<?xml version="1.0" encoding="UTF-8"?>
<svg width="65px" height="48px" viewBox="0 0 65 48" version="1.1" xmlns="http://www.w3.org/2000/svg" xmlns:xlink="http://www.w3.org/1999/xlink">
    <!-- Generator: Sketch 52.4 (67378) - http://www.bohemiancoding.com/sketch -->
    <title>icons8-folder</title>
    <desc>Created with Sketch.</desc>
    <g id="政見" stroke="none" stroke-width="1" fill="none" fill-rule="evenodd">
        <g id="首頁-UI" transform="translate(-891.000000, -643.000000)">
            <g id="icons8-folder" transform="translate(891.000000, 643.000000)">
                <path d="M53.1845915,46 L7.61234556,46 C4.5255555,46 2,43.48 2,40.4 L2,4 L57.3938507,4 C60.761258,4 63.3990604,6.968 62.9500728,10.272 L58.7408136,41.072 C58.4040729,43.872 55.9907643,46 53.1845915,46 Z" id="Path" fill="#D8D4EA"></path>
                <path d="M56,47 L7.68421053,47 C4.55789474,47 2,44.46875 2,41.375 L2,2 L15.9831579,2 C17.8589474,2 19.6778947,2.95625 20.7010526,4.53125 L23.0315789,7.9625 C24.1115789,9.5375 25.8736842,10.49375 27.7494737,10.49375 L47.4736842,10.49375 C50.6,10.49375 53.1578947,13.025 53.1578947,16.11875 L53.1578947,39.18125 L53.1578947,40.25 C53.1578947,42.78125 54.1810526,45.2 56,47 Z" id="Path" fill="#FFFFFF"></path>
                <path d="M53.3919363,48 L7.36831393,48 C3.2874016,48 0,44.7627907 0,40.744186 L0,1.6744186 C0,0.725581395 0.736831393,0 1.70038014,0 L15.6434973,0 C18.1373881,0 20.4045617,1.22790698 21.7648658,3.2372093 L24.0887186,6.64186047 C24.82555,7.75813953 26.0724955,8.37209302 27.3761202,8.37209302 L47.0438505,8.37209302 C51.1247628,8.37209302 54.4121644,11.6093023 54.4121644,15.627907 L54.4121644,35.1627907 C54.4121644,36.1116279 53.675333,36.8372093 52.7117843,36.8372093 C51.7482355,36.8372093 51.0114041,36.1116279 51.0114041,35.1627907 L51.0114041,15.627907 C51.0114041,13.4511628 49.2543447,11.7209302 47.0438505,11.7209302 L27.4327996,11.7209302 C24.9389087,11.7209302 22.6717352,10.4930233 21.3114311,8.48372093 L18.9875782,5.07906977 C18.2507468,3.9627907 17.0038014,3.34883721 15.7001766,3.34883721 L3.40076028,3.34883721 L3.40076028,40.744186 C3.40076028,42.9209302 5.15781975,44.6511628 7.36831393,44.6511628 L53.3919363,44.6511628 C55.3757132,44.6511628 57.0760933,43.2 57.3028107,41.2465116 L61.553761,10.5488372 C61.6671197,9.43255814 61.3270436,8.31627907 60.5902123,7.47906977 C59.8533809,6.64186047 58.7764734,6.13953488 57.6428867,6.13953488 C56.6793379,6.13953488 55.9425065,5.41395349 55.9425065,4.46511628 C55.9425065,3.51627907 56.6793379,2.79069767 57.6428867,2.79069767 C59.7400222,2.79069767 61.7804784,3.68372093 63.1407825,5.24651163 C64.5577659,6.80930233 65.1812386,8.8744186 64.9545213,10.9395349 L60.7035709,41.6372093 C60.2501362,45.2651163 57.0760933,48 53.3919363,48 Z" id="Path" fill="#454B54"></path>
                <path d="M57.3026874,6 L20.6973126,6 C19.7355021,6 19,5.35 19,4.5 C19,3.65 19.7355021,3 20.6973126,3 L57.3026874,3 C58.2644979,3 59,3.65 59,4.5 C59,5.35 58.2079208,6 57.3026874,6 Z" id="Path" fill="#454B54"></path>
            </g>
        </g>
    </g>
</svg>