<?xml version="1.0" encoding="UTF-8"?>
<svg width="38px" height="38px" viewBox="0 0 38 38" version="1.1" xmlns="http://www.w3.org/2000/svg" xmlns:xlink="http://www.w3.org/1999/xlink">
    <!-- Generator: Sketch 52.5 (67469) - http://www.bohemiancoding.com/sketch -->
    <title>icons8-good_quality copy 2</title>
    <desc>Created with Sketch.</desc>
    <g id="政見" stroke="none" stroke-width="1" fill="none" fill-rule="evenodd">
        <g id="Artboard" transform="translate(-435.000000, -886.000000)">
            <g id="icons8-good_quality-copy-2" transform="translate(435.000000, 886.000000)">
                <circle id="Oval" fill="#4CAF50" cx="19" cy="19" r="19"></circle>
                <g id="Group" transform="translate(10.000000, 4.000000)" fill="#FFCC80">
                    <path d="M1.6,9.8 L7.2,12.6 L9,9.4 C9.9,7.8 10.4,5.9 10.4,4 L10.4,3.1 C10.4,1.9 9.4,0.9 8.2,0.9 L7.7,0.9 C7.3,0.9 7,1.2 6.9,1.6 L6.4,3.6 C6.2,4.5 5.7,5.3 5.1,6 L1.6,9.8 Z" id="Path"></path>
                    <path d="M14.8,25 C14.1,25 4,25 4,25 C1.8,25 0,23.2 0,21 L0,13 C0,10.8 1.8,9 4,9 L17,9 C18.1,9 19,9.9 19,11 C19,12.1 18.5,12.5 18.5,13 C18.5,13.5 19,13.9 19,15 C19,16.1 18.2,16.8 18.1,17.3 C17.9,17.9 18.2,18.9 17.9,19.6 C17.6,20.3 17,20.7 16.9,21.4 C16.8,22.1 17.2,22.9 16.9,23.7 C16.5,24.3 15.8,25 14.8,25 Z" id="Path"></path>
                </g>
            </g>
        </g>
    </g>
</svg>