<?xml version="1.0" encoding="UTF-8"?>
<svg width="523px" height="195px" viewBox="0 0 523 195" version="1.1" xmlns="http://www.w3.org/2000/svg" xmlns:xlink="http://www.w3.org/1999/xlink">
    <!-- Generator: Sketch 52.4 (67378) - http://www.bohemiancoding.com/sketch -->
    <title>Group 2</title>
    <desc>Created with Sketch.</desc>
    <defs>
        <linearGradient x1="50%" y1="0%" x2="50%" y2="100%" id="linearGradient-1">
            <stop stop-color="#FE6270" offset="0%"></stop>
            <stop stop-color="#ED3853" offset="100%"></stop>
        </linearGradient>
    </defs>
    <g id="政見" stroke="none" stroke-width="1" fill="none" fill-rule="evenodd">
        <g id="首頁-UI" transform="translate(-32.000000, -395.000000)" fill-rule="nonzero">
            <g id="Group-3" transform="translate(41.000000, 401.000000)">
                <g id="Group-2">
                    <g id="Group-6" transform="translate(366.000000, 1.000000)" stroke="url(#linearGradient-1)" stroke-linecap="round" stroke-linejoin="round" stroke-width="18">
                        <path d="M41.6405534,50.8166116 L134.349831,107.911297 L41.6405534,50.8166116 Z M85.0799187,79.8261471 L34.4519289,99.8182968 L85.0799187,79.8261471 Z" id="Combined-Shape" transform="translate(85.401634, 79.486169) rotate(99.000000) translate(-85.401634, -79.486169) "></path>
                        <path d="M48.8838181,77.2399309 C39.7226959,87.4427964 34.1458772,100.931114 34.1390708,115.718437 C34.1244295,147.527694 59.8894674,173.302323 91.6868935,173.287682 C123.48432,173.27304 149.273096,147.474673 149.287737,115.665416 C149.302378,83.8561593 123.53734,58.0815306 91.7399143,58.0961719 L88.0173073,19.2221473" id="Path" transform="translate(91.713404, 96.254918) rotate(-214.000000) translate(-91.713404, -96.254918) "></path>
                    </g>
                    <g id="Group-4" fill="url(#linearGradient-1)">
                        <path d="M49,12 C44.0294373,12 40,7.97056275 40,3 C40,-1.97056275 44.0294373,-6 49,-6 L179.34,-6 C184.310563,-6 188.34,-1.97056275 188.34,3 C188.34,7.97056275 184.310563,12 179.34,12 L49,12 Z" id="Path-9"></path>
                        <path d="M142,112 C137.029437,112 133,107.970563 133,103 C133,98.0294373 137.029437,94 142,94 L174.571429,94 C179.541991,94 183.571429,98.0294373 183.571429,103 C183.571429,107.970563 179.541991,112 174.571429,112 L142,112 Z" id="Path-9-Copy-2"></path>
                        <path d="M98.6237706,168 L179,168 C183.970563,168 188,172.029437 188,177 C188,181.970563 183.970563,186 179,186 L87,186 C81.1147327,186 76.8130866,180.444295 78.2866918,174.7465 L114.235889,35.7465005 C115.480462,30.9342732 120.390469,28.0421184 125.202696,29.2866918 C130.014924,30.5312652 132.907078,35.4412723 131.662505,40.2534995 L98.6237706,168 Z" id="Path-9-Copy"></path>
                        <path d="M30.8029317,171 L65,171 C69.9705627,171 74,175.029437 74,180 C74,184.970563 69.9705627,189 65,189 L24.0397539,189 C20.0335101,189 16.5095928,186.351902 15.3950495,182.503814 L-8.64470445,99.5038141 C-10.0275228,94.7294756 -7.27815251,89.7381139 -2.50381407,88.3552955 C2.27052437,86.9724772 7.26188613,89.7218475 8.64470445,94.4961859 L30.8029317,171 Z" id="Path-9-Copy-3" transform="translate(32.498834, 138.498834) scale(-1, 1) translate(-32.498834, -138.498834) "></path>
                    </g>
                    <g id="Group-5" transform="translate(207.000000, 3.000000)">
                        <polygon id="Path-9-Copy-4" stroke="url(#linearGradient-1)" stroke-width="18" stroke-linecap="round" stroke-linejoin="round" points="36.4429132 0 146 0 125.697918 115 13 115"></polygon>
                        <path d="M61,86 C56.0294373,86 52,81.9705627 52,77 C52,72.0294373 56.0294373,68 61,68 L96.0769231,68 C101.047486,68 105.076923,72.0294373 105.076923,77 C105.076923,81.9705627 101.047486,86 96.0769231,86 L61,86 Z" id="Path-9-Copy-7" fill="url(#linearGradient-1)"></path>
                        <path d="M67,47 C62.0294373,47 58,42.9705627 58,38 C58,33.0294373 62.0294373,29 67,29 L100.541667,29 C105.512229,29 109.541667,33.0294373 109.541667,38 C109.541667,42.9705627 105.512229,47 100.541667,47 L67,47 Z" id="Path-9-Copy-8" fill="url(#linearGradient-1)"></path>
                        <path d="M83.8252839,136 L75,171 C98.5990377,171 112.754241,171 117.46561,171 C129.244219,171 138.422349,164.194444 145,150.583333" id="Path-9-Copy-6" stroke="url(#linearGradient-1)" stroke-width="18" stroke-linecap="round" stroke-linejoin="round"></path>
                        <path d="M0,174 C16.568314,174 28.4008333,171.409208 35.4975579,166.227624 L44,136" id="Path-9-Copy-5" stroke="url(#linearGradient-1)" stroke-width="18" stroke-linecap="round" stroke-linejoin="round"></path>
                    </g>
                </g>
            </g>
        </g>
    </g>
</svg>