<?xml version="1.0" encoding="UTF-8"?>
<svg width="542px" height="336px" viewBox="0 0 542 336" version="1.1" xmlns="http://www.w3.org/2000/svg" xmlns:xlink="http://www.w3.org/1999/xlink">
    <!-- Generator: Sketch 52.4 (67378) - http://www.bohemiancoding.com/sketch -->
    <title>Group 3</title>
    <desc>Created with Sketch.</desc>
    <defs>
        <linearGradient x1="50%" y1="0%" x2="50%" y2="100%" id="linearGradient-1">
            <stop stop-color="#FE6270" offset="0%"></stop>
            <stop stop-color="#ED3853" offset="100%"></stop>
        </linearGradient>
        <linearGradient x1="2.49521911%" y1="7.81207089%" x2="100%" y2="100%" id="linearGradient-2">
            <stop stop-color="#FE6270" offset="0%"></stop>
            <stop stop-color="#ED3853" offset="100%"></stop>
        </linearGradient>
        <path d="M32.2486719,240.975352 C32.2234408,241.12324 32.2954746,241.197183 32.4647754,241.197183 L42.1148734,241.197183 C42.6227758,241.197183 43.0303548,241.38204 43.3376227,241.751761 C43.6448905,242.121481 43.7552695,242.559857 43.6687629,243.066901 L43.6579497,243.130282 C43.5678387,243.658453 43.3069766,244.102111 42.8753556,244.461268 C42.4437346,244.820424 41.97398,245 41.4660776,245 L15.6584143,245 C15.1505118,245 14.7420317,244.820424 14.4329617,244.461268 C14.1238916,244.102111 14.0144137,243.658453 14.1045247,243.130282 L14.115338,243.066901 C14.2018445,242.559857 14.4618055,242.121481 14.8952287,241.751761 C15.3286519,241.38204 15.7993076,241.197183 16.3072101,241.197183 L18.2118347,241.197183 C18.3599729,241.197183 18.4466562,241.12324 18.4718873,240.975352 L20.5696604,228.679577 C20.6597714,228.151406 20.9206335,227.707748 21.3522545,227.348592 C21.7838755,226.989435 22.2536301,226.809859 22.7615325,226.809859 L23.0472262,226.809859 C23.5551287,226.809859 23.9636088,226.989435 24.2726788,227.348592 C24.5817489,227.707748 24.6912268,228.151406 24.6011158,228.679577 L22.5033427,240.975352 C22.4781116,241.12324 22.5501454,241.197183 22.7194462,241.197183 L27.8936764,241.197183 C28.0418146,241.197183 28.1284979,241.12324 28.153729,240.975352 L31.3868948,222.024648 C31.4157303,221.855633 31.3560799,221.771127 31.2079416,221.771127 L20.7642501,221.771127 C20.2563477,221.771127 19.8487687,221.586269 19.5415008,221.216549 C19.234233,220.846829 19.123854,220.408453 19.2103605,219.901408 L19.2157672,219.869718 C19.3022737,219.362674 19.5622347,218.924298 19.9956579,218.554577 C20.4290811,218.184857 20.8997369,218 21.4076393,218 L45.183703,218 C45.712768,218 46.1256376,218.184857 46.4223242,218.554577 C46.7190107,218.924298 46.8240991,219.362674 46.7375926,219.869718 L46.7321859,219.901408 C46.6456794,220.408453 46.391009,220.846829 45.9681671,221.216549 C45.5453252,221.586269 45.0693789,221.771127 44.5403138,221.771127 L35.7790407,221.771127 C35.6097399,221.771127 35.5106732,221.855633 35.4818377,222.024648 L34.346445,228.679577 C34.3212139,228.827466 34.3932477,228.901408 34.5625485,228.901408 L41.6414033,228.901408 C42.1493057,228.901408 42.5568847,229.086266 42.8641526,229.455986 C43.1714204,229.825706 43.2817994,230.264082 43.1952929,230.771127 L43.1898862,230.802817 C43.0997752,231.330989 42.8389132,231.774646 42.4072922,232.133803 C41.9756712,232.49296 41.5059165,232.672535 40.9980141,232.672535 L33.9191593,232.672535 C33.7498585,232.672535 33.6507919,232.757041 33.6219563,232.926056 L32.2486719,240.975352 Z M59.5589403,226.257987 C59.6074575,226.085995 59.5500086,226 59.3865918,226 L56.2919018,226 C56.1489121,226 56.0447023,226.075246 55.9792692,226.225739 C55.0169197,228.741129 54.1565642,230.94475 53.3981768,232.836667 C53.3531709,232.987161 53.3849262,233.105404 53.4934437,233.1914 C54.4059495,233.857871 55.1792855,234.438337 55.8134749,234.932815 C55.9184812,235.040311 56.013913,235.018812 56.0997731,234.868318 C57.4566195,232.438925 58.6096637,229.568843 59.5589403,226.257987 Z M61.3460331,222.354839 C62.541727,222.354839 63.3369398,222.387096 63.7316952,222.451613 C64.0623956,222.516129 64.311737,222.682794 64.4797269,222.951613 C64.6477168,223.220431 64.691898,223.52688 64.6122719,223.870968 C63.2674165,229.29035 61.543837,233.731165 59.4414817,237.193548 C59.3519316,237.344087 59.362106,237.473118 59.4720054,237.580645 C60.2485849,238.290326 60.8954741,238.946234 61.4126926,239.548387 C61.7564579,239.91398 61.9023421,240.376341 61.8503495,240.935484 L61.8175703,241.129032 C61.7338009,241.623658 61.518533,242.075267 61.1717604,242.483871 L60.9788444,242.677419 C60.6534234,243.086024 60.2540294,243.301075 59.7806503,243.322581 L59.6525409,243.322581 C59.2255074,243.322581 58.88985,243.161292 58.6455588,242.83871 C58.2028206,242.301073 57.6340526,241.688175 56.9392376,241 C56.85069,240.892473 56.7421122,240.903225 56.6135009,241.032258 C54.9264843,242.924741 52.9952054,244.494617 50.8196064,245.741935 C50.4915457,245.913979 50.1673826,246 49.8471075,246 C49.6976457,246 49.5411526,245.978495 49.3776235,245.935484 C48.9083878,245.806451 48.5518803,245.516131 48.3080903,245.064516 C48.2726713,245.021505 48.2497495,244.967742 48.2393243,244.903226 C48.0731554,244.623655 48.017388,244.322582 48.0720203,244 C48.0938732,243.870967 48.1245804,243.752689 48.1641428,243.645161 C48.3510285,243.172041 48.6673393,242.817205 49.1130849,242.580645 C50.924703,241.591393 52.5578814,240.268825 54.0126693,238.612903 C54.1412805,238.48387 54.1381397,238.376345 54.0032465,238.290323 C53.4995942,237.860213 52.930325,237.376347 52.2954217,236.83871 C52.2172993,236.795699 52.1602788,236.817204 52.1243585,236.903226 C51.9916039,237.182797 51.7861931,237.387096 51.5081201,237.516129 C51.230047,237.645162 50.9631551,237.645162 50.7074362,237.516129 L50.121521,237.193548 C49.6882056,236.978494 49.4066785,236.623658 49.2769312,236.129032 C49.1998112,235.827955 49.1867465,235.526883 49.2377366,235.225806 C49.2705159,235.032257 49.3246462,234.838711 49.4001289,234.645161 C50.477236,232.193536 51.6214552,229.408618 52.8328206,226.290323 C52.901019,226.139784 52.860388,226.064516 52.7109262,226.064516 L51.878215,226.064516 C51.3871264,226.064516 50.9901465,225.887099 50.6872635,225.532258 C50.3843805,225.177418 50.2766464,224.741938 50.364058,224.225806 C50.4514696,223.709675 50.7076191,223.268819 51.1325142,222.903226 C51.5574092,222.537633 52.0153942,222.354839 52.5064828,222.354839 L54.1078506,222.354839 C54.278664,222.354839 54.3874924,222.279571 54.4343392,222.129032 C55.0527694,220.494615 55.5904963,219.021512 56.0475359,217.709677 C56.2239964,217.17204 56.5530546,216.741937 57.0347204,216.419355 C57.4450469,216.139784 57.8743963,216 58.3227815,216 L58.546973,216 C59.0271351,216.064516 59.3820722,216.301073 59.6117948,216.709677 C59.7956732,217.010754 59.8584742,217.333332 59.8001998,217.677419 C59.7783469,217.806452 59.7458186,217.935483 59.7026141,218.064516 C59.1346727,219.526889 58.6169773,220.881714 58.1495125,222.129032 C58.0813141,222.279571 58.1326208,222.354839 58.3034342,222.354839 L61.3460331,222.354839 Z M67.2146634,238.752896 C67.1859839,238.917633 67.2561807,239 67.4252561,239 L72.6559987,239 C72.825074,239 72.92395,238.917633 72.9526295,238.752896 L75.6574559,223.216216 C75.6825505,223.072071 75.6105612,223 75.4414859,223 L70.2107433,223 C70.0416679,223 69.9445844,223.072071 69.9194898,223.216216 L67.2146634,238.752896 Z M66.8445846,220.86165 C66.9291756,220.356794 67.1775498,219.920309 67.5897148,219.552184 C68.0018797,219.18406 68.4656641,219 68.9810817,219 L78.1967032,219 C78.7121209,219 79.1142252,219.18406 79.4030282,219.552184 C79.6918313,219.920309 79.7939358,220.356794 79.7093447,220.86165 L76.0560884,242.665049 C75.9679728,243.190941 75.7187174,243.632684 75.3083147,243.990291 C74.8979121,244.347898 74.4350089,244.526699 73.9195912,244.526699 L73.672192,244.526699 C73.2186245,244.526699 72.8593825,244.363675 72.5944552,244.037621 C72.329528,243.711568 72.2375989,243.306637 72.3186653,242.822816 C72.3398131,242.696601 72.2782294,242.633495 72.1339125,242.633495 L67.0003784,242.633495 C66.8354447,242.633495 66.7406431,242.707119 66.7159708,242.854369 L66.6578147,243.201456 C66.5732237,243.706313 66.3266117,244.13228 65.9179714,244.479369 C65.5093311,244.826458 65.0576172,245 64.5628163,245 C64.0680153,245 63.679611,244.826458 63.3975917,244.479369 C63.1155724,244.13228 63.0168597,243.706313 63.1014507,243.201456 L66.8445846,220.86165 Z M89.2277265,217.314103 C89.4928532,216.822647 89.8699879,216.459403 90.3591416,216.224359 C90.6704213,216.074786 90.9693958,216 91.2560739,216 C91.440367,216 91.6193856,216.032051 91.7931352,216.096154 L91.8800096,216.128205 C92.3263793,216.277779 92.6132853,216.587604 92.7407362,217.057692 C92.8249387,217.292736 92.8459526,217.53846 92.8037785,217.794872 C92.7686335,218.008548 92.6925355,218.222221 92.5754824,218.435897 C91.6256096,220.102572 90.6266215,221.694437 89.5784881,223.211538 C89.4719785,223.361112 89.406424,223.510683 89.3818224,223.660256 L86.0131848,244.141026 C85.9288367,244.653849 85.6827384,245.091879 85.2748826,245.455128 C84.8670268,245.818378 84.4173815,246 83.9259333,246 C83.4344851,246 83.0394663,245.818378 82.7408653,245.455128 C82.4422642,245.091879 82.3351393,244.653849 82.4194875,244.141026 L84.8339414,229.461538 C84.8409704,229.418803 84.8300059,229.392094 84.8010476,229.38141 C84.7720894,229.370726 84.7438577,229.386752 84.7163516,229.429487 C84.4143954,229.771369 84.1022054,230.113246 83.7797721,230.455128 C83.5088364,230.732907 83.209557,230.871795 82.8819248,230.871795 L82.6669173,230.871795 C82.2679206,230.807692 82.0096674,230.572652 81.8921499,230.166667 L81.6395437,229.461538 C81.5015493,229.055554 81.4694548,228.628207 81.5432595,228.179487 C81.5573175,228.094017 81.5833709,227.997864 81.6214204,227.891026 C81.7537516,227.335467 82.0291127,226.844019 82.447512,226.416667 C85.0058909,223.809816 87.2659398,220.775658 89.2277265,217.314103 Z M93.4178657,231.557229 C93.6433945,231.027106 94.0158023,230.618475 94.5351002,230.331325 C94.9087441,230.110441 95.2745516,230 95.6325337,230 C95.7891509,230 95.9326772,230.011044 96.063117,230.033133 L96.1580936,230.066265 C96.676049,230.176707 97.0424158,230.452809 97.2572051,230.894578 C97.4053202,231.203817 97.4508503,231.524095 97.3937968,231.855422 C97.3671719,232.010041 97.3050853,232.175702 97.2075351,232.35241 C95.8738276,235.290175 94.3865457,237.885531 92.7456448,240.138554 C92.4010869,240.580323 91.9508192,240.856425 91.3948282,240.966867 C91.2567813,240.988956 91.1206383,241 90.986395,241 C90.6060389,241 90.2670797,240.889559 89.9695071,240.668675 C89.9285629,240.646586 89.8764325,240.624498 89.8131144,240.60241 C89.4336534,240.337348 89.2317321,239.950806 89.2073447,239.442771 C89.1892218,239.288152 89.1934728,239.133535 89.2200978,238.978916 C89.2771512,238.647589 89.432983,238.327311 89.6875978,238.018072 C91.0434554,236.250995 92.2868656,234.097402 93.4178657,231.557229 Z M108.247897,225.191489 C108.294498,225.042552 108.24342,224.968085 108.094661,224.968085 L104.173842,224.968085 C104.025083,224.968085 103.938031,225.042552 103.912682,225.191489 L101.104374,241.691489 C100.937794,242.670218 100.701175,243.436167 100.394509,243.989362 C100.087844,244.542556 99.6204676,244.978722 98.9923666,245.297872 C98.2258948,245.680853 97.2085222,245.914893 95.9402184,246 L95.7808355,246 C95.3133099,246 94.9242672,245.851065 94.6136957,245.553191 C94.2253622,245.212764 93.9914606,244.776598 93.9119839,244.244681 L93.8496608,243.861702 C93.8112564,243.712765 93.8047289,243.563831 93.830078,243.414894 C93.8735337,243.159573 93.9877454,242.925533 94.1727166,242.712766 C94.4680415,242.351062 94.8282102,242.170213 95.2532335,242.170213 L96.59205,242.170213 C96.8045616,242.170213 96.9596547,242.132979 97.057334,242.058511 C97.1550132,241.984042 97.2219583,241.840427 97.2581713,241.62766 L100.055615,225.191489 C100.080964,225.042552 100.019261,224.968085 99.8705027,224.968085 L96.555338,224.968085 C96.3853287,224.968085 96.2575853,225.031914 96.172104,225.159574 C95.3991508,226.329793 94.5981926,227.414889 93.7692053,228.414894 C93.420514,228.840428 92.9875397,229.074468 92.4702692,229.117021 C92.4028944,229.138298 92.3373312,229.148936 92.2735777,229.148936 C91.8485545,229.148936 91.4913881,229.000001 91.2020677,228.702128 C91.127927,228.638298 91.0626022,228.585107 91.0060913,228.542553 C90.67789,228.223403 90.5253705,227.808513 90.5485283,227.297872 C90.5417624,227.212766 90.5456219,227.12766 90.5601072,227.042553 C90.628912,226.638296 90.8091635,226.265959 91.1008671,225.925532 C93.0573115,223.670201 94.8334286,220.851081 96.4292719,217.468085 C96.6649413,216.957444 97.0294462,216.563831 97.5227976,216.287234 C97.8741568,216.095744 98.2304659,216 98.5917357,216 C98.7192426,216 98.8537519,216.021276 98.9952674,216.06383 L99.1227737,216.06383 C99.6110738,216.19149 99.9465127,216.468083 100.129101,216.893617 C100.248412,217.191491 100.282717,217.48936 100.232019,217.787234 C100.203049,217.957448 100.152828,218.127659 100.081355,218.297872 C99.6529953,219.191494 99.173087,220.138293 98.6416159,221.138298 C98.6131221,221.180851 98.610287,221.228723 98.6331105,221.281915 C98.655934,221.335107 98.6992218,221.361702 98.7629753,221.361702 L109.82415,221.361702 C110.022653,221.319149 110.217532,221.297872 110.408792,221.297872 C110.578802,221.297872 110.757623,221.308511 110.945262,221.329787 L111.715017,221.489362 C112.083053,221.574469 112.356788,221.776594 112.536232,222.095745 C112.666406,222.329788 112.706144,222.595743 112.655446,222.893617 L112.611991,223.148936 C112.056885,224.787242 111.521705,226.308504 111.006433,227.712766 C110.82413,228.159577 110.519995,228.510637 110.094018,228.765957 C109.760289,228.978724 109.412795,229.085106 109.051525,229.085106 C108.96652,229.085106 108.862077,229.074468 108.738191,229.053191 C108.30278,228.989361 107.979539,228.765959 107.768458,228.382979 C107.606644,228.085105 107.556519,227.755321 107.618082,227.393617 C107.632567,227.30851 107.657677,227.223405 107.693414,227.138298 C107.890679,226.47872 108.075505,225.82979 108.247897,225.191489 Z M104.474905,232.373178 C104.407104,232.159377 104.39089,231.945579 104.426261,231.731778 C104.465169,231.496597 104.555662,231.26142 104.697741,231.026239 C104.957729,230.577257 105.327075,230.27794 105.805789,230.12828 C106.046915,230.04276 106.270646,230 106.476989,230 C106.745235,230 106.994318,230.053449 107.224244,230.16035 C107.663462,230.374151 107.94733,230.716227 108.075857,231.186589 C108.690782,233.581159 109.068408,235.975693 109.208744,238.370262 C109.221716,238.541303 109.215822,238.701651 109.191062,238.851312 C109.134468,239.193393 108.985023,239.53547 108.74272,239.877551 C108.396658,240.347913 107.961873,240.668609 107.438353,240.83965 L107.272985,240.90379 C107.097299,240.96793 106.926922,241 106.761847,241 C106.493601,241 106.249825,240.914481 106.03051,240.74344 C105.660269,240.486879 105.462474,240.123423 105.437119,239.653061 C105.351611,237.301252 105.030876,234.874648 104.474905,232.373178 Z M128.366497,217 C128.839098,217 129.210912,217.193937 129.481951,217.581818 C129.75299,217.969699 129.847017,218.442421 129.764035,219 C129.681052,219.557579 129.446319,220.030301 129.059827,220.418182 C128.673334,220.806063 128.243795,221 127.771194,221 L117.230201,221 C116.757601,221 116.38065,220.806063 116.099337,220.418182 C115.818024,220.030301 115.71886,219.557579 115.801842,219 C115.884824,218.442421 116.124695,217.969699 116.521461,217.581818 C116.918227,217.193937 117.352904,217 117.825504,217 L128.366497,217 Z M124.541301,227.215385 C124.567272,227.071794 124.492115,227 124.315827,227 L119.357775,227 C119.203524,227 119.113414,227.071794 119.087443,227.215385 L118.447458,230.753846 C118.417777,230.91795 118.480061,231 118.634313,231 L123.592365,231 C123.768652,231 123.871635,230.91795 123.901315,230.753846 L124.541301,227.215385 Z M127.341433,232.174603 C127.250789,232.703706 126.993551,233.148146 126.569713,233.507937 C126.145875,233.867727 125.667639,234.047619 125.134992,234.047619 L118.168,234.047619 C118.018859,234.047619 117.919134,234.132274 117.868822,234.301587 C116.952363,238.407428 115.715625,241.708982 114.158571,244.206349 C113.894302,244.629632 113.509905,244.883597 113.005366,244.968254 C112.916517,244.989418 112.818829,245 112.712299,245 C112.350099,245 112.039804,244.883599 111.781405,244.650794 C111.763725,244.62963 111.735393,244.608466 111.696407,244.587302 C111.345981,244.26984 111.14855,243.867727 111.104108,243.380952 C111.076448,243.169311 111.078934,242.968255 111.111566,242.777778 C111.162327,242.48148 111.277004,242.185187 111.4556,241.888889 C112.873941,239.455014 113.98193,235.910076 114.779601,231.253968 L115.872767,224.873016 C115.959785,224.365077 116.221443,223.925928 116.657747,223.555556 C117.094051,223.185183 117.567867,223 118.079208,223 L127.027637,223 C127.560284,223 127.975976,223.185183 128.274725,223.555556 C128.573474,223.925928 128.679338,224.365077 128.59232,224.873016 L127.341433,232.174603 Z M142.69247,226.247845 C143.231418,226.247845 143.652911,226.431033 143.956961,226.797414 C144.26101,227.163795 144.368044,227.610989 144.278064,228.139009 C144.188084,228.667029 143.92772,229.11961 143.496964,229.496767 C143.066207,229.873924 142.581362,230.0625 142.042414,230.0625 L141.266333,230.0625 C141.093869,230.0625 140.994785,230.13793 140.969076,230.288793 L138.616755,244.092672 C138.524939,244.631468 138.264575,245.08405 137.835655,245.450431 C137.406735,245.816812 136.922808,246 136.38386,246 L136.28685,246 C135.769459,246 135.353356,245.816812 135.038527,245.450431 C134.723699,245.08405 134.612194,244.631468 134.704011,244.092672 L137.056332,230.288793 C137.08204,230.13793 137.019443,230.0625 136.868537,230.0625 L133.505517,230.0625 C133.354612,230.0625 133.255527,230.13793 133.208261,230.288793 C131.791876,236.323306 129.431757,241.064638 126.127834,244.512931 C125.763588,244.879312 125.344334,245.0625 124.870059,245.0625 L124.837723,245.0625 C124.34189,245.0625 123.931177,244.879312 123.605569,244.512931 L123.525086,244.415948 C123.195805,244.071119 123.050008,243.66164 123.087691,243.1875 C123.080824,243.101293 123.084735,243.015087 123.099426,242.928879 C123.165534,242.540946 123.355477,242.185346 123.669262,241.862069 C124.672096,240.784477 125.551317,239.60992 126.306951,238.338362 C127.062586,237.066804 127.673733,235.75755 128.140411,234.41056 C128.607089,233.063571 128.976273,231.845911 129.247973,230.757543 C129.519674,229.669176 129.767536,228.467679 129.991568,227.153017 L131.220063,219.943966 C131.304534,219.448273 131.555717,219.04957 131.973619,218.747845 C132.290599,218.532327 132.621547,218.424569 132.966474,218.424569 C133.074263,218.424569 133.190994,218.435345 133.316669,218.456897 L133.903522,218.618534 C134.072313,218.640086 134.235831,218.629311 134.394082,218.586207 C136.882979,217.896548 139.072107,217.13147 140.961533,216.290948 C141.404187,216.096982 141.851866,216 142.304583,216 C142.412372,216 142.518324,216.010776 142.622441,216.032328 C143.19716,216.075431 143.658095,216.280171 144.005261,216.646552 L144.499179,217.163793 C144.76059,217.400863 144.860077,217.702584 144.797642,218.068966 C144.786624,218.133621 144.764828,218.198276 144.732252,218.262931 C144.594125,218.693968 144.305575,218.995689 143.866593,219.168103 C141.211144,220.202591 138.243628,221.107755 134.963955,221.883621 C134.805704,221.926724 134.713726,222.023706 134.688017,222.174569 L134.037961,225.989224 C134.00858,226.161639 134.069341,226.247845 134.220247,226.247845 L142.69247,226.247845 Z M153.976292,230 C153.804657,230 153.706078,230.074073 153.68055,230.222222 L153.417985,231.746032 C153.388811,231.915345 153.46004,232 153.631675,232 L166.890397,232 C167.062032,232 167.162435,231.915345 167.191609,231.746032 L167.454174,230.222222 C167.479702,230.074073 167.406649,230 167.235014,230 L153.976292,230 Z M155.153886,224 C154.982252,224 154.881849,224.084655 154.852675,224.253968 L154.590109,225.777778 C154.564582,225.925927 154.637634,226 154.809269,226 L168.067991,226 C168.239626,226 168.338206,225.925927 168.363733,225.777778 L168.626298,224.253968 C168.655473,224.084655 168.584243,224 168.412608,224 L155.153886,224 Z M156.298926,219 C156.127291,219 156.026888,219.084655 155.997714,219.253968 L155.735148,220.777778 C155.709621,220.925927 155.782674,221 155.954308,221 L169.213031,221 C169.384665,221 169.483245,220.925927 169.508772,220.777778 L169.771338,219.253968 C169.800512,219.084655 169.729283,219 169.557648,219 L156.298926,219 Z M165.667723,241.331516 L169.097726,241.331516 C169.653367,241.331516 170.060257,241.078519 170.318406,240.572519 C170.476117,240.277352 170.657862,239.718652 170.863647,238.896401 C170.979041,238.474734 171.234733,238.16903 171.630731,237.97928 C171.862602,237.873864 172.085389,237.821156 172.299097,237.821156 C172.470064,237.821156 172.633763,237.863322 172.790199,237.947655 C172.832941,237.947655 172.873866,237.958197 172.912975,237.97928 C173.389549,238.190114 173.749969,238.516901 173.994247,238.959651 C174.167572,239.318068 174.219724,239.697563 174.150704,240.098146 C174.132541,240.203563 174.103693,240.308978 174.064159,240.414395 C173.563899,241.953479 173.024208,243.039255 172.445071,243.671756 C171.651376,244.557256 170.442455,245 168.818271,245 L164.490697,245 C162.567321,245 161.337868,244.662671 160.802301,243.988004 C160.266734,243.313337 160.158788,242.048355 160.478458,240.193021 L161.328485,235.259542 C161.353913,235.111959 161.281145,235.038168 161.110178,235.038168 L157.648119,235.038168 C157.477153,235.038168 157.368271,235.111959 157.321472,235.259542 C156.903913,236.56671 156.444255,237.68411 155.942487,238.611778 C155.390712,239.581612 154.646716,240.519806 153.710478,241.42639 C152.77424,242.332974 151.578468,243.102505 150.123126,243.735005 C149.149266,244.177756 148.034908,244.567792 146.780019,244.905125 C146.576784,244.968375 146.379,245 146.186663,245 C145.887471,245 145.600998,244.926209 145.327234,244.778626 C144.875663,244.546709 144.542062,244.188298 144.326421,243.703381 C144.312315,243.661214 144.296393,243.629589 144.278655,243.608506 C144.246811,243.545256 144.223837,243.492548 144.209731,243.450382 C144.100094,243.218465 144.065256,242.986552 144.105214,242.754635 C144.130643,242.607051 144.188126,242.45947 144.277667,242.311887 C144.474912,241.911303 144.796319,241.658307 145.241899,241.55289 C146.625013,241.215556 147.783928,240.814979 148.71868,240.351145 C150.070799,239.697561 151.050944,238.970197 151.659142,238.169029 C152.238703,237.410029 152.726359,236.440209 153.122123,235.259542 C153.168922,235.111959 153.117524,235.038168 152.967928,235.038168 L151.076618,235.038168 C150.563718,235.038168 150.152065,234.853691 149.841646,234.484733 C149.531227,234.115774 149.41961,233.678301 149.506793,233.172301 L152.144058,217.865867 C152.231241,217.359867 152.493608,216.922394 152.931169,216.553435 C153.368729,216.184477 153.843952,216 154.356853,216 L172.051821,216 C172.564721,216 172.976375,216.184477 173.286794,216.553435 C173.597213,216.922394 173.708829,217.359867 173.621646,217.865867 L170.984382,233.172301 C170.897199,233.678301 170.634831,234.115774 170.197271,234.484733 C169.75971,234.853691 169.284487,235.038168 168.771587,235.038168 L165.533921,235.038168 C165.384325,235.038168 165.296814,235.111959 165.271386,235.259542 L164.426807,240.161396 C164.335992,240.68848 164.359826,241.015267 164.498312,241.141767 C164.636798,241.268267 165.026597,241.331516 165.667723,241.331516 Z M186.017108,234.544933 C185.64287,234.848313 185.235148,235 184.793929,235 C184.352711,235 183.99192,234.842895 183.711548,234.528681 C183.431175,234.214466 183.318775,233.82983 183.374346,233.374761 L184.583649,222.615679 L184.976133,219.917782 C185.046388,219.376033 185.29566,218.920971 185.723958,218.552581 C186.152255,218.184192 186.624671,218 187.14122,218 L188.206595,218 C188.723144,218 189.133151,218.184192 189.436631,218.552581 C189.74011,218.920971 189.835198,219.376033 189.721897,219.917782 L189.200277,222.615679 L186.764178,233.374761 C186.665561,233.82983 186.416541,234.219884 186.017108,234.544933 Z M184.894086,243.169231 C184.237599,243.72308 183.483344,244 182.6313,244 C181.779255,244 181.120384,243.72308 180.654666,243.169231 C180.188948,242.615382 180.032046,241.89744 180.183955,241.015385 C180.332331,240.153842 180.736523,239.4359 181.396543,238.861538 C182.056563,238.287177 182.812584,238 183.664629,238 C184.516673,238 185.173778,238.287177 185.635963,238.861538 C186.098148,239.4359 186.255051,240.153842 186.106674,241.015385 C185.954765,241.89744 185.550573,242.615382 184.894086,243.169231 Z" id="path-3"></path>
        <path d="M239.84375,304.59375 C240.010418,304.59375 240.09375,304.520834 240.09375,304.375 L240.09375,303.5 C240.09375,303.333332 240.010418,303.25 239.84375,303.25 L235.0625,303.25 C234.729165,303.25 234.447918,303.135418 234.21875,302.90625 C233.989582,302.677082 233.875,302.395835 233.875,302.0625 C233.875,301.729165 233.989582,301.44271 234.21875,301.203125 C234.447918,300.96354 234.729165,300.84375 235.0625,300.84375 L241.46875,300.84375 C241.968752,300.84375 242.40104,301.02604 242.765625,301.390625 C243.13021,301.75521 243.3125,302.187497 243.3125,302.6875 L243.3125,305.1875 C243.3125,305.687503 243.13021,306.11979 242.765625,306.484375 C242.40104,306.84896 241.968752,307.03125 241.46875,307.03125 L237.8125,307.03125 C237.666666,307.03125 237.59375,307.114582 237.59375,307.28125 L237.59375,307.6875 C237.59375,308.020835 237.651041,308.239583 237.765625,308.34375 C237.880209,308.447917 238.135415,308.5 238.53125,308.5 L241.125,308.5 C241.437502,308.5 241.645833,308.427084 241.75,308.28125 C242.083335,307.864581 242.406248,307.65625 242.71875,307.65625 C242.822917,307.65625 242.921875,307.677083 243.015625,307.71875 C243.109375,307.760417 243.208333,307.791667 243.3125,307.8125 C243.708335,307.958334 244.020832,308.197915 244.25,308.53125 C244.375001,308.718751 244.4375,308.916666 244.4375,309.125 C244.4375,309.270834 244.40625,309.416666 244.34375,309.5625 C244.114582,310.104169 243.781252,310.479166 243.34375,310.6875 C242.906248,310.895834 242.302087,311 241.53125,311 L238.09375,311 C236.656243,311 235.692711,310.770836 235.203125,310.3125 C234.713539,309.854164 234.46875,308.98959 234.46875,307.71875 L234.46875,306.4375 C234.46875,305.937497 234.65104,305.50521 235.015625,305.140625 C235.38021,304.77604 235.812498,304.59375 236.3125,304.59375 L239.84375,304.59375 Z M229.34375,304.59375 C229.510418,304.59375 229.59375,304.520834 229.59375,304.375 L229.59375,303.5 C229.59375,303.333332 229.510418,303.25 229.34375,303.25 L224.75,303.25 C224.416665,303.25 224.13021,303.135418 223.890625,302.90625 C223.65104,302.677082 223.53125,302.395835 223.53125,302.0625 C223.53125,301.729165 223.65104,301.44271 223.890625,301.203125 C224.13021,300.96354 224.416665,300.84375 224.75,300.84375 L230.9375,300.84375 C231.458336,300.84375 231.895832,301.02604 232.25,301.390625 C232.604168,301.75521 232.78125,302.187497 232.78125,302.6875 L232.78125,305.1875 C232.78125,305.687503 232.604168,306.11979 232.25,306.484375 C231.895832,306.84896 231.458336,307.03125 230.9375,307.03125 L227.34375,307.03125 C227.197916,307.03125 227.125,307.114582 227.125,307.28125 L227.125,307.71875 C227.125,308.052085 227.182291,308.265625 227.296875,308.359375 C227.411459,308.453125 227.677081,308.5 228.09375,308.5 L230.53125,308.5 C230.843752,308.5 231.062499,308.427084 231.1875,308.28125 C231.479168,307.885415 231.781248,307.6875 232.09375,307.6875 C232.197917,307.6875 232.296875,307.708333 232.390625,307.75 C232.484375,307.791667 232.593749,307.822917 232.71875,307.84375 C233.114585,307.989584 233.416666,308.229165 233.625,308.5625 C233.750001,308.750001 233.8125,308.947916 233.8125,309.15625 C233.8125,309.281251 233.78125,309.416666 233.71875,309.5625 C233.489582,310.104169 233.156252,310.479166 232.71875,310.6875 C232.281248,310.895834 231.69792,311 230.96875,311 L227.59375,311 C226.19791,311 225.244794,310.770836 224.734375,310.3125 C224.223956,309.854164 223.96875,308.98959 223.96875,307.71875 L223.96875,306.4375 C223.96875,305.937497 224.15104,305.50521 224.515625,305.140625 C224.88021,304.77604 225.312498,304.59375 225.8125,304.59375 L229.34375,304.59375 Z M221.53125,304.375 C221.760418,304.666668 221.875,304.989582 221.875,305.34375 C221.875,305.468751 221.864583,305.604166 221.84375,305.75 C221.718749,306.250003 221.437502,306.635415 221,306.90625 L220.84375,307 C220.552082,307.187501 220.250002,307.28125 219.9375,307.28125 C219.812499,307.28125 219.677084,307.260417 219.53125,307.21875 C219.052081,307.114583 218.666668,306.854169 218.375,306.4375 C217.812497,305.624996 217.114588,304.760421 216.28125,303.84375 C216.031249,303.552082 215.90625,303.218752 215.90625,302.84375 L215.90625,302.65625 C215.947917,302.197914 216.166665,301.843751 216.5625,301.59375 C216.937502,301.343749 217.343748,301.21875 217.78125,301.21875 C217.84375,301.21875 217.916666,301.229167 218,301.25 C218.541669,301.291667 218.989582,301.499998 219.34375,301.875 C220.218754,302.770838 220.947914,303.604163 221.53125,304.375 Z M232.09375,315.71875 C231.927082,315.71875 231.84375,315.791666 231.84375,315.9375 L231.84375,317.59375 C231.84375,317.739584 231.927082,317.8125 232.09375,317.8125 L235.34375,317.8125 C235.489584,317.8125 235.5625,317.739584 235.5625,317.59375 L235.5625,315.9375 C235.5625,315.791666 235.489584,315.71875 235.34375,315.71875 L232.09375,315.71875 Z M230.28125,320.625 C230.239583,320.625 230.21875,320.635417 230.21875,320.65625 C230.21875,320.677083 230.229167,320.697917 230.25,320.71875 L231.0625,321 C231.458335,321.125001 231.697916,321.385415 231.78125,321.78125 L231.78125,322 C231.78125,322.312502 231.645835,322.562499 231.375,322.75 C229.97916,323.729172 228.375009,324.604163 226.5625,325.375 C226.541667,325.395833 226.53125,325.421875 226.53125,325.453125 C226.53125,325.484375 226.552083,325.5 226.59375,325.5 C227.281253,325.666668 228.072912,325.760417 228.96875,325.78125 C230.23959,325.84375 231.833324,325.875 233.75,325.875 L235.78125,325.875 C238.614598,325.833333 241.156239,325.750001 243.40625,325.625 L243.46875,325.625 C243.843752,325.625 244.156249,325.781248 244.40625,326.09375 C244.552084,326.322918 244.625,326.562499 244.625,326.8125 C244.625,326.937501 244.604167,327.072916 244.5625,327.21875 L244.5625,327.25 C244.395832,327.791669 244.104169,328.234373 243.6875,328.578125 C243.270831,328.921877 242.802086,329.104167 242.28125,329.125 C239.67707,329.229167 237.239595,329.28125 234.96875,329.28125 C232.822906,329.28125 230.822926,329.239584 228.96875,329.15625 C227.03124,329.072916 225.406257,328.770836 224.09375,328.25 C222.781243,327.729164 221.666671,326.895839 220.75,325.75 C220.645833,325.624999 220.541667,325.614583 220.4375,325.71875 C219.562496,326.635421 218.729171,327.468746 217.9375,328.21875 C217.687499,328.468751 217.385418,328.59375 217.03125,328.59375 C216.947916,328.59375 216.854167,328.583333 216.75,328.5625 C216.312498,328.479166 215.989584,328.229169 215.78125,327.8125 L215.625,327.5 C215.458332,327.187498 215.375,326.864585 215.375,326.53125 C215.375,326.364582 215.40625,326.187501 215.46875,326 C215.593751,325.499997 215.864581,325.083335 216.28125,324.75 C217.093754,324.14583 217.80208,323.572919 218.40625,323.03125 C218.510417,322.927083 218.5625,322.791668 218.5625,322.625 L218.5625,316.03125 C218.5625,315.885416 218.489584,315.8125 218.34375,315.8125 L217.03125,315.8125 C216.552081,315.8125 216.140627,315.640627 215.796875,315.296875 C215.453123,314.953123 215.28125,314.541669 215.28125,314.0625 C215.28125,313.583331 215.453123,313.171877 215.796875,312.828125 C216.140627,312.484373 216.552081,312.3125 217.03125,312.3125 L220.25,312.3125 C220.770836,312.3125 221.208332,312.49479 221.5625,312.859375 C221.916668,313.22396 222.09375,313.656247 222.09375,314.15625 L222.09375,322.3125 C222.09375,322.479168 222.135416,322.624999 222.21875,322.75 C223.031254,324.041673 224.291658,324.916664 226,325.375 C226.020833,325.375 226.041667,325.364583 226.0625,325.34375 C226.083333,325.322917 226.083333,325.302083 226.0625,325.28125 C225.749998,324.989582 225.395835,324.666668 225,324.3125 C224.749999,324.104166 224.625,323.854168 224.625,323.5625 C224.625,323.5 224.635417,323.4375 224.65625,323.375 C224.71875,322.999998 224.927082,322.739584 225.28125,322.59375 C226.885425,322.010414 228.124996,321.406253 229,320.78125 C229.041667,320.760417 229.057292,320.729167 229.046875,320.6875 C229.036458,320.645833 229.010417,320.625 228.96875,320.625 L224.53125,320.625 C224.135415,320.625 223.802085,320.489585 223.53125,320.21875 C223.260415,319.947915 223.125,319.619794 223.125,319.234375 C223.125,318.848956 223.260415,318.515626 223.53125,318.234375 C223.802085,317.953124 224.135415,317.8125 224.53125,317.8125 L228.09375,317.8125 C228.260418,317.8125 228.34375,317.739584 228.34375,317.59375 L228.34375,315.9375 C228.34375,315.791666 228.260418,315.71875 228.09375,315.71875 L225.4375,315.71875 C225.062498,315.71875 224.739585,315.578126 224.46875,315.296875 C224.197915,315.015624 224.0625,314.687502 224.0625,314.3125 C224.0625,313.937498 224.197915,313.609376 224.46875,313.328125 C224.739585,313.046874 225.062498,312.90625 225.4375,312.90625 L228.15625,312.90625 C228.281251,312.90625 228.34375,312.843751 228.34375,312.71875 C228.34375,312.302081 228.489582,311.947918 228.78125,311.65625 C229.072918,311.364582 229.427081,311.21875 229.84375,311.21875 L230.34375,311.21875 C230.760419,311.21875 231.114582,311.364582 231.40625,311.65625 C231.697918,311.947918 231.84375,312.302081 231.84375,312.71875 C231.84375,312.843751 231.916666,312.90625 232.0625,312.90625 L235.375,312.90625 C235.500001,312.90625 235.5625,312.843751 235.5625,312.71875 C235.5625,312.302081 235.708332,311.947918 236,311.65625 C236.291668,311.364582 236.645831,311.21875 237.0625,311.21875 L237.6875,311.21875 C238.104169,311.21875 238.458332,311.364582 238.75,311.65625 C239.041668,311.947918 239.1875,312.302081 239.1875,312.71875 C239.1875,312.843751 239.249999,312.90625 239.375,312.90625 L242.1875,312.90625 C242.562502,312.90625 242.885415,313.046874 243.15625,313.328125 C243.427085,313.609376 243.5625,313.937498 243.5625,314.3125 C243.5625,314.687502 243.427085,315.015624 243.15625,315.296875 C242.885415,315.578126 242.562502,315.71875 242.1875,315.71875 L239.40625,315.71875 C239.260416,315.71875 239.1875,315.791666 239.1875,315.9375 L239.1875,317.59375 C239.1875,317.739584 239.260416,317.8125 239.40625,317.8125 L243.15625,317.8125 C243.552085,317.8125 243.885415,317.953124 244.15625,318.234375 C244.427085,318.515626 244.5625,318.848956 244.5625,319.234375 C244.5625,319.619794 244.427085,319.947915 244.15625,320.21875 C243.885415,320.489585 243.552085,320.625 243.15625,320.625 L238.5625,320.625 C238.520833,320.625 238.5,320.640625 238.5,320.671875 C238.5,320.703125 238.510417,320.71875 238.53125,320.71875 C240.177092,321.510421 241.645827,322.302079 242.9375,323.09375 C243.229168,323.260418 243.375,323.499998 243.375,323.8125 C243.375,324.270836 243.166669,324.572916 242.75,324.71875 L242.34375,324.875 C241.947915,325.020834 241.562502,325.09375 241.1875,325.09375 C240.479163,325.09375 239.802087,324.864586 239.15625,324.40625 C238.364579,323.864581 237.541671,323.354169 236.6875,322.875 C236.333332,322.666666 236.15625,322.364585 236.15625,321.96875 C236.15625,321.572915 236.322915,321.281251 236.65625,321.09375 L237.28125,320.75 C237.302083,320.729167 237.3125,320.703125 237.3125,320.671875 C237.3125,320.640625 237.291667,320.625 237.25,320.625 L230.28125,320.625 Z M260.03125,317.9375 C260.03125,317.437497 260.208332,317.010418 260.5625,316.65625 C260.916668,316.302082 261.343748,316.125 261.84375,316.125 L261.96875,316.125 C262.468752,316.125 262.895832,316.302082 263.25,316.65625 C263.604168,317.010418 263.78125,317.437497 263.78125,317.9375 C263.78125,318.083334 263.864582,318.15625 264.03125,318.15625 L268.21875,318.15625 C268.260417,318.15625 268.291667,318.135417 268.3125,318.09375 C268.333333,318.052083 268.333333,318.020833 268.3125,318 C267.604163,317.27083 267.010419,316.552087 266.53125,315.84375 C266.427083,315.697916 266.302084,315.625 266.15625,315.625 L257.9375,315.625 C257.791666,315.625 257.677084,315.697916 257.59375,315.84375 C257.114581,316.593754 256.583336,317.312497 256,318 C255.979167,318.020833 255.979167,318.052083 256,318.09375 C256.020833,318.135417 256.052083,318.15625 256.09375,318.15625 L259.78125,318.15625 C259.947918,318.15625 260.03125,318.083334 260.03125,317.9375 Z M276.1875,313.03125 C276.500002,313.322918 276.65625,313.68229 276.65625,314.109375 C276.65625,314.53646 276.50521,314.895832 276.203125,315.1875 C275.90104,315.479168 275.541669,315.625 275.125,315.625 L270.8125,315.625 C270.770833,315.625 270.739583,315.645833 270.71875,315.6875 C270.697917,315.729167 270.708333,315.770833 270.75,315.8125 C272.104173,317.104173 273.729157,318.177079 275.625,319.03125 C276.000002,319.218751 276.239583,319.520831 276.34375,319.9375 C276.364583,320.041667 276.375,320.145833 276.375,320.25 C276.375,320.541668 276.281251,320.812499 276.09375,321.0625 C276.072917,321.0625 276.0625,321.072917 276.0625,321.09375 C275.708332,321.510419 275.281252,321.791666 274.78125,321.9375 C274.593749,322 274.406251,322.03125 274.21875,322.03125 C273.927082,322.03125 273.625002,321.958334 273.3125,321.8125 C271.854159,321.041663 270.531256,320.104172 269.34375,319 C269.302083,318.979167 269.260417,318.973958 269.21875,318.984375 C269.177083,318.994792 269.15625,319.020833 269.15625,319.0625 L269.15625,319.28125 C269.15625,319.781253 268.979168,320.21354 268.625,320.578125 C268.270832,320.94271 267.833336,321.125 267.3125,321.125 L264.03125,321.125 C263.864582,321.125 263.78125,321.197916 263.78125,321.34375 L263.78125,322.625 C263.78125,322.791668 263.864582,322.875 264.03125,322.875 L271.90625,322.875 C272.322919,322.875 272.68229,323.020832 272.984375,323.3125 C273.28646,323.604168 273.4375,323.96354 273.4375,324.390625 C273.4375,324.81771 273.28646,325.177082 272.984375,325.46875 C272.68229,325.760418 272.322919,325.90625 271.90625,325.90625 L264.03125,325.90625 C263.864582,325.90625 263.78125,325.989582 263.78125,326.15625 L263.78125,327.9375 C263.78125,328.458336 263.604168,328.895832 263.25,329.25 C262.895832,329.604168 262.458336,329.78125 261.9375,329.78125 L261.875,329.78125 C261.354164,329.78125 260.916668,329.604168 260.5625,329.25 C260.208332,328.895832 260.03125,328.458336 260.03125,327.9375 L260.03125,326.15625 C260.03125,325.989582 259.947918,325.90625 259.78125,325.90625 L252.4375,325.90625 C252.020831,325.90625 251.666668,325.760418 251.375,325.46875 C251.083332,325.177082 250.9375,324.81771 250.9375,324.390625 C250.9375,323.96354 251.083332,323.604168 251.375,323.3125 C251.666668,323.020832 252.020831,322.875 252.4375,322.875 L259.78125,322.875 C259.947918,322.875 260.03125,322.791668 260.03125,322.625 L260.03125,321.34375 C260.03125,321.197916 259.947918,321.125 259.78125,321.125 L256.5625,321.125 C256.104164,321.125 255.708335,320.958335 255.375,320.625 C255.041665,320.291665 254.875,319.885419 254.875,319.40625 C254.875,319.385417 254.854167,319.364583 254.8125,319.34375 C254.770833,319.322917 254.739583,319.322917 254.71875,319.34375 C253.531244,320.468756 252.229174,321.416663 250.8125,322.1875 C250.520832,322.354168 250.208335,322.4375 249.875,322.4375 C249.708332,322.4375 249.531251,322.40625 249.34375,322.34375 C248.843748,322.218749 248.427085,321.937502 248.09375,321.5 C247.885416,321.249999 247.78125,320.979168 247.78125,320.6875 C247.78125,320.583333 247.791667,320.479167 247.8125,320.375 C247.895834,319.937498 248.135415,319.625001 248.53125,319.4375 C250.46876,318.499995 252.13541,317.291674 253.53125,315.8125 C253.552083,315.770833 253.552083,315.729167 253.53125,315.6875 C253.510417,315.645833 253.479167,315.625 253.4375,315.625 L249.03125,315.625 C248.614581,315.625 248.25521,315.479168 247.953125,315.1875 C247.65104,314.895832 247.5,314.53646 247.5,314.109375 C247.5,313.68229 247.65104,313.31771 247.953125,313.015625 C248.25521,312.71354 248.614581,312.5625 249.03125,312.5625 L250.375,312.5625 C250.520834,312.5625 250.59375,312.489584 250.59375,312.34375 L250.21875,302.875 C250.21875,302.416664 250.395832,302.031252 250.75,301.71875 C251.020835,301.468749 251.333332,301.34375 251.6875,301.34375 C251.770834,301.34375 251.864583,301.354167 251.96875,301.375 L252.40625,301.46875 C252.552084,301.489583 252.697916,301.46875 252.84375,301.40625 C253.531253,301.156249 254.17708,300.885418 254.78125,300.59375 C255.072918,300.468749 255.364582,300.40625 255.65625,300.40625 C255.781251,300.40625 255.916666,300.416667 256.0625,300.4375 C256.500002,300.520834 256.854165,300.729165 257.125,301.0625 C257.312501,301.270834 257.40625,301.499999 257.40625,301.75 C257.40625,301.833334 257.395833,301.916666 257.375,302 C257.291666,302.375002 257.072918,302.614583 256.71875,302.71875 C255.822912,303.031252 254.854172,303.333332 253.8125,303.625 C253.666666,303.666667 253.59375,303.760416 253.59375,303.90625 L253.625,304.6875 C253.625,304.833334 253.697916,304.90625 253.84375,304.90625 L255.84375,304.90625 C256.197918,304.90625 256.489582,305.02604 256.71875,305.265625 C256.947918,305.50521 257.0625,305.791665 257.0625,306.125 C257.0625,306.458335 256.947918,306.74479 256.71875,306.984375 C256.489582,307.22396 256.197918,307.34375 255.84375,307.34375 L253.9375,307.34375 C253.791666,307.34375 253.71875,307.427082 253.71875,307.59375 L253.75,308.5 C253.770833,308.645834 253.854166,308.71875 254,308.71875 L255.84375,308.71875 C256.197918,308.71875 256.489582,308.83854 256.71875,309.078125 C256.947918,309.31771 257.0625,309.604165 257.0625,309.9375 C257.0625,310.270835 256.947918,310.55729 256.71875,310.796875 C256.489582,311.03646 256.197918,311.15625 255.84375,311.15625 L254.09375,311.15625 C253.947916,311.15625 253.875,311.239582 253.875,311.40625 L253.9375,312.34375 C253.9375,312.489584 254.010416,312.5625 254.15625,312.5625 L257.8125,312.5625 C257.958334,312.5625 258.03125,312.489584 258.03125,312.34375 L258.03125,310.4375 C258.03125,310.041665 258.166665,309.713543 258.4375,309.453125 C258.708335,309.192707 259.031248,309.0625 259.40625,309.0625 C259.781252,309.0625 260.104165,309.192707 260.375,309.453125 C260.645835,309.713543 260.78125,310.041665 260.78125,310.4375 L260.78125,312.34375 C260.78125,312.489584 260.864582,312.5625 261.03125,312.5625 L262.21875,312.5625 C262.364584,312.5625 262.4375,312.489584 262.4375,312.34375 L262.4375,308.34375 C262.4375,308.197916 262.364584,308.125 262.21875,308.125 L261.125,308.125 C261.083333,308.125 261.0625,308.145833 261.0625,308.1875 C261.041667,308.291667 260.984375,308.385416 260.890625,308.46875 C260.796875,308.552084 260.697917,308.583333 260.59375,308.5625 L259.53125,308.5 C259.135415,308.458333 258.812501,308.281252 258.5625,307.96875 C258.333332,307.697915 258.21875,307.395835 258.21875,307.0625 C258.21875,307.020833 258.229167,306.96875 258.25,306.90625 C258.416668,305.218742 258.541666,303.437509 258.625,301.5625 C258.645833,301.145831 258.802082,300.802085 259.09375,300.53125 C259.385418,300.260415 259.718748,300.125 260.09375,300.125 L260.25,300.125 C260.666669,300.145833 260.999999,300.312498 261.25,300.625 C261.500001,300.895835 261.625,301.208332 261.625,301.5625 C261.625,301.750001 261.687499,301.84375 261.8125,301.84375 L264.625,301.84375 C264.979168,301.84375 265.27604,301.968749 265.515625,302.21875 C265.75521,302.468751 265.875,302.765623 265.875,303.109375 C265.875,303.453127 265.75521,303.74479 265.515625,303.984375 C265.27604,304.22396 264.979168,304.34375 264.625,304.34375 L261.65625,304.34375 C261.510416,304.34375 261.427083,304.416666 261.40625,304.5625 L261.34375,305.46875 C261.322917,305.614584 261.395832,305.6875 261.5625,305.6875 L263.6875,305.6875 C264.187502,305.6875 264.61979,305.86979 264.984375,306.234375 C265.34896,306.59896 265.53125,307.031247 265.53125,307.53125 L265.53125,312.34375 C265.53125,312.489584 265.604166,312.5625 265.75,312.5625 L269.5,312.5625 C269.666668,312.5625 269.75,312.489584 269.75,312.34375 L269.8125,311.40625 C269.833333,311.239582 269.760418,311.15625 269.59375,311.15625 L267.84375,311.15625 C267.510415,311.15625 267.22396,311.03646 266.984375,310.796875 C266.74479,310.55729 266.625,310.270835 266.625,309.9375 C266.625,309.604165 266.74479,309.31771 266.984375,309.078125 C267.22396,308.83854 267.510415,308.71875 267.84375,308.71875 L269.71875,308.71875 C269.885418,308.71875 269.96875,308.645834 269.96875,308.5 L270.03125,307.59375 C270.03125,307.427082 269.958334,307.34375 269.8125,307.34375 L267.9375,307.34375 C267.604165,307.34375 267.322918,307.22396 267.09375,306.984375 C266.864582,306.74479 266.75,306.458335 266.75,306.125 C266.75,305.791665 266.864582,305.50521 267.09375,305.265625 C267.322918,305.02604 267.604165,304.90625 267.9375,304.90625 L269.90625,304.90625 C270.052084,304.90625 270.125,304.833334 270.125,304.6875 L270.1875,303.78125 C270.1875,303.614582 270.114584,303.53125 269.96875,303.53125 L267.90625,303.53125 C267.552082,303.53125 267.250001,303.41146 267,303.171875 C266.749999,302.93229 266.625,302.635418 266.625,302.28125 C266.625,301.927082 266.749999,301.63021 267,301.390625 C267.250001,301.15104 267.552082,301.03125 267.90625,301.03125 L271.84375,301.03125 C272.343752,301.03125 272.770832,301.208332 273.125,301.5625 C273.479168,301.916668 273.65625,302.333331 273.65625,302.8125 C273.65625,305.229179 273.520835,308.40623 273.25,312.34375 C273.229167,312.489584 273.302082,312.5625 273.46875,312.5625 L275.125,312.5625 C275.541669,312.5625 275.895832,312.718748 276.1875,313.03125 Z M297.375,303.84375 C297.229166,303.593749 297.15625,303.333335 297.15625,303.0625 C297.15625,302.874999 297.1875,302.687501 297.25,302.5 C297.395834,302.041664 297.697914,301.718751 298.15625,301.53125 L298.5625,301.375 C298.812501,301.270833 299.072915,301.21875 299.34375,301.21875 C299.572918,301.21875 299.802082,301.260416 300.03125,301.34375 C300.510419,301.510418 300.885415,301.822914 301.15625,302.28125 C302.781258,305.031264 304.854154,307.697904 307.375,310.28125 C307.708335,310.635418 307.875,311.041664 307.875,311.5 C307.875,312.020836 307.687502,312.458332 307.3125,312.8125 C307.083332,313.041668 306.864584,313.270832 306.65625,313.5 C306.322915,313.854168 305.916669,314.03125 305.4375,314.03125 L305.40625,314.03125 C304.947914,314.03125 304.562502,313.864585 304.25,313.53125 C301.666654,310.510402 299.37501,307.281267 297.375,303.84375 Z M286.78125,302.3125 C286.989584,301.833331 287.322914,301.479168 287.78125,301.25 C288.072918,301.104166 288.374998,301.03125 288.6875,301.03125 C288.875001,301.03125 289.062499,301.052083 289.25,301.09375 L290.0625,301.34375 C290.520836,301.468751 290.864582,301.760414 291.09375,302.21875 C291.197917,302.427084 291.25,302.645832 291.25,302.875 C291.25,303.104168 291.197917,303.322916 291.09375,303.53125 C289.281241,307.406269 287.062513,310.749986 284.4375,313.5625 C284.104165,313.937502 283.677086,314.125 283.15625,314.125 L283.125,314.125 C282.604164,314.125 282.156252,313.968752 281.78125,313.65625 C281.531249,313.447916 281.281251,313.250001 281.03125,313.0625 C280.635415,312.770832 280.4375,312.375003 280.4375,311.875 C280.4375,311.458331 280.593748,311.104168 280.90625,310.8125 C283.281262,308.520822 285.239576,305.687517 286.78125,302.3125 Z M298.09375,320.03125 C297.906249,319.760415 297.8125,319.468752 297.8125,319.15625 C297.8125,319.031249 297.822917,318.906251 297.84375,318.78125 C297.968751,318.302081 298.249998,317.968751 298.6875,317.78125 L299.0625,317.59375 C299.375002,317.447916 299.697915,317.375 300.03125,317.375 C300.197918,317.375 300.374999,317.395833 300.5625,317.4375 C301.104169,317.562501 301.531248,317.843748 301.84375,318.28125 C303.927094,321.01043 305.708326,323.666654 307.1875,326.25 C307.354168,326.520835 307.4375,326.802082 307.4375,327.09375 C307.4375,327.281251 307.40625,327.458332 307.34375,327.625 C307.197916,328.125003 306.895836,328.489582 306.4375,328.71875 L305.75,329.09375 C305.479165,329.218751 305.208335,329.28125 304.9375,329.28125 C304.749999,329.28125 304.562501,329.25 304.375,329.1875 C303.895831,329.020832 303.541668,328.718752 303.3125,328.28125 C303.187499,328.052082 303.052084,327.822918 302.90625,327.59375 C302.84375,327.447916 302.729168,327.385417 302.5625,327.40625 C295.041629,327.906253 288.604193,328.281249 283.25,328.53125 C283.229167,328.552083 283.197917,328.5625 283.15625,328.5625 C282.677081,328.5625 282.250002,328.406252 281.875,328.09375 C281.479165,327.739582 281.25,327.312503 281.1875,326.8125 L281.15625,326.46875 C281.135417,326.385416 281.125,326.302084 281.125,326.21875 C281.125,325.822915 281.260415,325.468752 281.53125,325.15625 C281.843752,324.781248 282.249998,324.583333 282.75,324.5625 L285.125,324.46875 C285.291668,324.46875 285.40625,324.395834 285.46875,324.25 C287.364593,320.687482 288.958327,317.031269 290.25,313.28125 C290.437501,312.802081 290.749998,312.427085 291.1875,312.15625 C291.500002,311.989582 291.822915,311.90625 292.15625,311.90625 C292.322918,311.90625 292.479166,311.927083 292.625,311.96875 L293.625,312.1875 C294.083336,312.291667 294.427082,312.562498 294.65625,313 C294.760417,313.229168 294.8125,313.458332 294.8125,313.6875 C294.8125,313.875001 294.770834,314.072916 294.6875,314.28125 C293.104159,317.843768 291.479175,321.104152 289.8125,324.0625 C289.791667,324.125 289.796875,324.177083 289.828125,324.21875 C289.859375,324.260417 289.895833,324.28125 289.9375,324.28125 C292.395846,324.156249 295.874977,323.979168 300.375,323.75 C300.4375,323.75 300.479167,323.723959 300.5,323.671875 C300.520833,323.619791 300.520833,323.572917 300.5,323.53125 C299.749996,322.364577 298.947921,321.197923 298.09375,320.03125 Z M320.71875,315 C320.739583,315 320.75,314.994792 320.75,314.984375 C320.75,314.973958 320.739583,314.96875 320.71875,314.96875 C320.489582,314.90625 320.312501,314.760418 320.1875,314.53125 C320.062499,314.302082 320.052083,314.062501 320.15625,313.8125 C320.468752,312.916662 320.708332,312.145837 320.875,311.5 C320.895833,311.458333 320.890625,311.411459 320.859375,311.359375 C320.828125,311.307291 320.78125,311.28125 320.71875,311.28125 L316.3125,311.28125 C316.25,311.28125 316.208333,311.307291 316.1875,311.359375 C316.166667,311.411459 316.166667,311.458333 316.1875,311.5 C316.520835,312.270837 316.791666,313.031246 317,313.78125 C317.0625,314.052085 317.026042,314.296874 316.890625,314.515625 C316.755208,314.734376 316.552085,314.885416 316.28125,314.96875 L316.28125,315 L320.71875,315 Z M320.5,305.875 C320.354166,305.875 320.28125,305.958332 320.28125,306.125 L320.28125,307.84375 C320.28125,308.010418 320.354166,308.09375 320.5,308.09375 L324.03125,308.09375 C324.468752,308.09375 324.843748,308.249998 325.15625,308.5625 C325.468752,308.875002 325.625,309.249998 325.625,309.6875 C325.625,310.125002 325.468752,310.499998 325.15625,310.8125 C324.843748,311.125002 324.468752,311.28125 324.03125,311.28125 L323.09375,311.28125 L323.09375,311.3125 C323.385418,311.395834 323.598958,311.572915 323.734375,311.84375 C323.869792,312.114585 323.875001,312.385415 323.75,312.65625 C323.14583,314.05209 322.84375,314.760417 322.84375,314.78125 C322.822917,314.84375 322.822917,314.895833 322.84375,314.9375 C322.864583,314.979167 322.90625,315 322.96875,315 L323.53125,315 C323.968752,315 324.343748,315.156248 324.65625,315.46875 C324.968752,315.781252 325.125,316.156248 325.125,316.59375 C325.125,317.031252 324.968752,317.406248 324.65625,317.71875 C324.343748,318.031252 323.968752,318.1875 323.53125,318.1875 L320.5,318.1875 C320.354166,318.1875 320.28125,318.270832 320.28125,318.4375 L320.28125,320.4375 C320.28125,320.583334 320.354166,320.65625 320.5,320.65625 L323.1875,320.65625 C323.625002,320.65625 323.999998,320.812498 324.3125,321.125 C324.625002,321.437502 324.78125,321.817706 324.78125,322.265625 C324.78125,322.713544 324.625002,323.093748 324.3125,323.40625 C323.999998,323.718752 323.625002,323.875 323.1875,323.875 L320.5,323.875 C320.354166,323.875 320.28125,323.947916 320.28125,324.09375 L320.28125,327.9375 C320.28125,328.416669 320.109377,328.828123 319.765625,329.171875 C319.421873,329.515627 319.005211,329.6875 318.515625,329.6875 C318.026039,329.6875 317.609377,329.515627 317.265625,329.171875 C316.921873,328.828123 316.75,328.416669 316.75,327.9375 L316.75,324.09375 C316.75,323.947916 316.677084,323.875 316.53125,323.875 L313.59375,323.875 C313.135414,323.875 312.750002,323.718752 312.4375,323.40625 C312.124998,323.093748 311.96875,322.713544 311.96875,322.265625 C311.96875,321.817706 312.124998,321.437502 312.4375,321.125 C312.750002,320.812498 313.135414,320.65625 313.59375,320.65625 L316.53125,320.65625 C316.677084,320.65625 316.75,320.583334 316.75,320.4375 L316.75,318.4375 C316.75,318.270832 316.677084,318.1875 316.53125,318.1875 L313.3125,318.1875 C312.874998,318.1875 312.500002,318.031252 312.1875,317.71875 C311.874998,317.406248 311.71875,317.031252 311.71875,316.59375 C311.71875,316.156248 311.874998,315.781252 312.1875,315.46875 C312.500002,315.156248 312.874998,315 313.3125,315 L313.90625,315 C314.052084,315 314.114583,314.927084 314.09375,314.78125 C313.947916,314.072913 313.729168,313.333337 313.4375,312.5625 C313.354166,312.291665 313.374999,312.031251 313.5,311.78125 C313.625001,311.531249 313.822915,311.375 314.09375,311.3125 L314.09375,311.28125 L312.65625,311.28125 C312.218748,311.28125 311.843752,311.125002 311.53125,310.8125 C311.218748,310.499998 311.0625,310.125002 311.0625,309.6875 C311.0625,309.249998 311.218748,308.875002 311.53125,308.5625 C311.843752,308.249998 312.218748,308.09375 312.65625,308.09375 L316.53125,308.09375 C316.677084,308.09375 316.75,308.010418 316.75,307.84375 L316.75,306.125 C316.75,305.958332 316.677084,305.875 316.53125,305.875 L313.75,305.875 C313.312498,305.875 312.94271,305.72396 312.640625,305.421875 C312.33854,305.11979 312.1875,304.750002 312.1875,304.3125 C312.1875,303.874998 312.33854,303.50521 312.640625,303.203125 C312.94271,302.90104 313.312498,302.75 313.75,302.75 L316.53125,302.75 C316.677084,302.75 316.75,302.666668 316.75,302.5 L316.75,301.71875 C316.75,301.239581 316.921873,300.828127 317.265625,300.484375 C317.609377,300.140623 318.026039,299.96875 318.515625,299.96875 C319.005211,299.96875 319.421873,300.140623 319.765625,300.484375 C320.109377,300.828127 320.28125,301.239581 320.28125,301.71875 L320.28125,302.5 C320.28125,302.666668 320.354166,302.75 320.5,302.75 L322.875,302.75 C323.291669,302.75 323.656248,302.90104 323.96875,303.203125 C324.281252,303.50521 324.4375,303.874998 324.4375,304.3125 C324.4375,304.750002 324.281252,305.11979 323.96875,305.421875 C323.656248,305.72396 323.291669,305.875 322.875,305.875 L320.5,305.875 Z M329.71875,316.75 C329.71875,316.729167 329.708333,316.723958 329.6875,316.734375 C329.666667,316.744792 329.65625,316.760417 329.65625,316.78125 L329.65625,326.46875 C329.65625,326.53125 329.677083,326.567708 329.71875,326.578125 C329.760417,326.588542 329.802083,326.583333 329.84375,326.5625 C330.864588,325.708329 331.781246,324.729172 332.59375,323.625 C332.677084,323.499999 332.677084,323.375001 332.59375,323.25 C331.468744,321.333324 330.510421,319.166679 329.71875,316.75 Z M336.25,315.4375 C336.291667,315.291666 336.229168,315.21875 336.0625,315.21875 L332.5625,315.21875 C332.5,315.21875 332.453125,315.244791 332.421875,315.296875 C332.390625,315.348959 332.385417,315.395833 332.40625,315.4375 C332.947919,317.041675 333.645829,318.562493 334.5,320 C334.520833,320.041667 334.557291,320.057292 334.609375,320.046875 C334.661459,320.036458 334.697917,320.010417 334.71875,319.96875 C335.364587,318.552076 335.874998,317.041675 336.25,315.4375 Z M337.4375,312.1875 C337.583334,312.145833 337.739582,312.125 337.90625,312.125 C338.114584,312.125 338.333332,312.166666 338.5625,312.25 L339.125,312.46875 C339.458335,312.572917 339.713541,312.77604 339.890625,313.078125 C340.067709,313.38021 340.125,313.697915 340.0625,314.03125 C339.416663,317.468767 338.406257,320.499987 337.03125,323.125 C336.947916,323.250001 336.958333,323.374999 337.0625,323.5 C337.937504,324.437505 338.843745,325.229163 339.78125,325.875 C340.156252,326.125001 340.375,326.479164 340.4375,326.9375 L340.4375,327.15625 C340.4375,327.510418 340.322918,327.833332 340.09375,328.125 C340.052083,328.1875 340,328.25 339.9375,328.3125 C339.624998,328.708335 339.218752,328.958333 338.71875,329.0625 C338.593749,329.104167 338.479167,329.125 338.375,329.125 C338.020832,329.125 337.687502,329.010418 337.375,328.78125 C336.583329,328.156247 335.812504,327.427087 335.0625,326.59375 C334.958333,326.489583 334.854167,326.489583 334.75,326.59375 C334.14583,327.364587 333.51042,328.062497 332.84375,328.6875 C332.510415,328.958335 332.145835,329.09375 331.75,329.09375 L331.53125,329.09375 C331.031248,329.03125 330.604168,328.812502 330.25,328.4375 L329.8125,328 C329.770833,327.979167 329.734375,327.973958 329.703125,327.984375 C329.671875,327.994792 329.65625,328.020833 329.65625,328.0625 C329.65625,328.541669 329.489585,328.942707 329.15625,329.265625 C328.822915,329.588543 328.427086,329.75 327.96875,329.75 L327.90625,329.75 C327.447914,329.75 327.046877,329.583335 326.703125,329.25 C326.359373,328.916665 326.1875,328.510419 326.1875,328.03125 L326.1875,303.09375 C326.1875,302.572914 326.36979,302.135418 326.734375,301.78125 C327.09896,301.427082 327.531248,301.25 328.03125,301.25 L337.6875,301.25 C338.208336,301.25 338.645832,301.427082 339,301.78125 C339.354168,302.135418 339.53125,302.572914 339.53125,303.09375 L339.53125,307.25 C339.53125,308.104171 339.416668,308.770831 339.1875,309.25 C338.958332,309.729169 338.54167,310.083332 337.9375,310.3125 C337.187496,310.645835 336.000008,310.822917 334.375,310.84375 L334.3125,310.84375 C333.854164,310.84375 333.437502,310.697918 333.0625,310.40625 C332.666665,310.093748 332.385418,309.697919 332.21875,309.21875 C332.177083,309.072916 332.15625,308.927084 332.15625,308.78125 C332.15625,308.552082 332.229166,308.333334 332.375,308.125 C332.583334,307.812498 332.885415,307.65625 333.28125,307.65625 C333.927087,307.677083 334.624996,307.6875 335.375,307.6875 C335.625001,307.666667 335.796875,307.619792 335.890625,307.546875 C335.984375,307.473958 336.03125,307.354168 336.03125,307.1875 L336.03125,304.8125 C336.03125,304.645832 335.947918,304.5625 335.78125,304.5625 L329.875,304.5625 C329.729166,304.5625 329.65625,304.645832 329.65625,304.8125 L329.65625,311.96875 C329.65625,312.135418 329.729166,312.21875 329.875,312.21875 L337.28125,312.21875 C337.34375,312.21875 337.395833,312.208333 337.4375,312.1875 Z M362.90625,309.25 C362.760416,309.25 362.65625,309.317708 362.59375,309.453125 C362.53125,309.588542 362.520833,309.729166 362.5625,309.875 C363.083336,312.583347 363.843745,315.124988 364.84375,317.5 C364.864583,317.541667 364.895833,317.5625 364.9375,317.5625 C364.979167,317.5625 365.010417,317.541667 365.03125,317.5 C365.968755,315.291656 366.645831,312.614599 367.0625,309.46875 C367.083333,309.322916 367.010418,309.25 366.84375,309.25 L362.90625,309.25 Z M372.375,306.25 C372.729168,306.583335 372.90625,306.994789 372.90625,307.484375 C372.90625,307.973961 372.734377,308.390623 372.390625,308.734375 C372.046873,309.078127 371.635419,309.25 371.15625,309.25 C371.010416,309.25 370.927083,309.322916 370.90625,309.46875 C370.156246,314.343774 368.968758,318.302068 367.34375,321.34375 C367.260416,321.489584 367.260416,321.624999 367.34375,321.75 C368.572923,323.333341 369.989575,324.624995 371.59375,325.625 C371.968752,325.854168 372.1875,326.197914 372.25,326.65625 C372.270833,326.739584 372.28125,326.822916 372.28125,326.90625 C372.28125,327.239585 372.166668,327.552082 371.9375,327.84375 L371.625,328.21875 C371.312498,328.635419 370.906252,328.906249 370.40625,329.03125 C370.260416,329.072917 370.114584,329.09375 369.96875,329.09375 C369.635415,329.09375 369.322918,329.000001 369.03125,328.8125 C367.552076,327.812495 366.218756,326.562508 365.03125,325.0625 C364.927083,324.937499 364.822917,324.937499 364.71875,325.0625 C363.343743,326.604174 361.760426,327.906245 359.96875,328.96875 C359.697915,329.114584 359.416668,329.1875 359.125,329.1875 C358.958332,329.1875 358.781251,329.166667 358.59375,329.125 C358.135414,328.958332 357.760418,328.656252 357.46875,328.21875 C357.427083,328.135416 357.375,328.052084 357.3125,327.96875 C357.124999,327.697915 357.03125,327.406252 357.03125,327.09375 C357.03125,326.968749 357.052083,326.833334 357.09375,326.6875 C357.197917,326.229164 357.458331,325.885418 357.875,325.65625 C359.750009,324.614578 361.32291,323.302091 362.59375,321.71875 C362.697917,321.593749 362.708334,321.458334 362.625,321.3125 C361.687495,319.458324 360.864587,317.250013 360.15625,314.6875 C360.15625,314.645833 360.135417,314.625 360.09375,314.625 C360.052083,314.625 360.020833,314.645833 360,314.6875 C359.749999,315.041668 359.406252,315.239583 358.96875,315.28125 L358.875,315.28125 C358.458331,315.28125 358.104168,315.135418 357.8125,314.84375 L357.25,314.34375 C357.229167,314.322917 357.21875,314.333333 357.21875,314.375 C357.21875,314.541668 357.135418,314.625 356.96875,314.625 L353.8125,314.625 C353.666666,314.625 353.59375,314.697916 353.59375,314.84375 L353.59375,320.9375 C353.59375,321.104168 353.666666,321.166667 353.8125,321.125 L356.375,320.59375 C356.500001,320.552083 356.614583,320.53125 356.71875,320.53125 C357.052085,320.53125 357.354165,320.635416 357.625,320.84375 C358.000002,321.114585 358.208333,321.489581 358.25,321.96875 L358.25,322.15625 C358.25,322.572919 358.125001,322.958332 357.875,323.3125 C357.583332,323.729169 357.197919,323.989583 356.71875,324.09375 C355.114575,324.468752 352.802098,324.98958 349.78125,325.65625 C346.760402,326.32292 345.239583,326.65625 345.21875,326.65625 C345.072916,326.697917 344.937501,326.71875 344.8125,326.71875 C344.458332,326.71875 344.135418,326.614584 343.84375,326.40625 C343.427081,326.135415 343.177084,325.750003 343.09375,325.25 L343,324.65625 C342.979167,324.572916 342.96875,324.489584 342.96875,324.40625 C342.96875,324.093748 343.062499,323.812501 343.25,323.5625 C343.479168,323.208332 343.802081,323 344.21875,322.9375 C344.343751,322.916667 344.40625,322.843751 344.40625,322.71875 L344.40625,310.96875 C344.40625,310.510414 344.572915,310.114585 344.90625,309.78125 C345.239585,309.447915 345.640623,309.28125 346.109375,309.28125 C346.578127,309.28125 346.979165,309.447915 347.3125,309.78125 C347.645835,310.114585 347.8125,310.510414 347.8125,310.96875 L347.8125,322.0625 C347.8125,322.208334 347.895832,322.270833 348.0625,322.25 L349.65625,321.96875 C349.802084,321.927083 349.875,321.833334 349.875,321.6875 L349.875,305.65625 C349.875,305.510416 349.791668,305.4375 349.625,305.4375 L345.28125,305.4375 C344.781248,305.4375 344.354168,305.260418 344,304.90625 C343.645832,304.552082 343.46875,304.119794 343.46875,303.609375 C343.46875,303.098956 343.645832,302.666668 344,302.3125 C344.354168,301.958332 344.781248,301.78125 345.28125,301.78125 L356.3125,301.78125 C356.812502,301.78125 357.239582,301.958332 357.59375,302.3125 C357.947918,302.666668 358.125,303.098956 358.125,303.609375 C358.125,304.119794 357.947918,304.552082 357.59375,304.90625 C357.239582,305.260418 356.812502,305.4375 356.3125,305.4375 L353.8125,305.4375 C353.666666,305.4375 353.59375,305.510416 353.59375,305.65625 L353.59375,310.8125 C353.59375,310.958334 353.666666,311.03125 353.8125,311.03125 L356.53125,311.03125 C356.718751,311.03125 356.880208,311.098958 357.015625,311.234375 C357.151042,311.369792 357.21875,311.541666 357.21875,311.75 L357.25,311.765625 C357.270833,311.776042 357.28125,311.770833 357.28125,311.75 C358.864591,309.229154 360.062496,305.885437 360.875,301.71875 C360.979167,301.218747 361.239581,300.812502 361.65625,300.5 C361.989585,300.270832 362.343748,300.15625 362.71875,300.15625 C362.822917,300.15625 362.927083,300.166667 363.03125,300.1875 L363.15625,300.1875 C363.656252,300.270834 364.052082,300.520831 364.34375,300.9375 C364.572918,301.229168 364.6875,301.552082 364.6875,301.90625 C364.6875,302.031251 364.677083,302.156249 364.65625,302.28125 C364.447916,303.239588 364.187502,304.312494 363.875,305.5 C363.875,305.5625 363.890625,305.614583 363.921875,305.65625 C363.953125,305.697917 364,305.71875 364.0625,305.71875 L371.15625,305.71875 C371.635419,305.71875 372.041665,305.895832 372.375,306.25 Z M383.5625,313.65625 C383.395832,313.65625 383.3125,313.729166 383.3125,313.875 L383.3125,315.375 C383.3125,315.541668 383.395832,315.625 383.5625,315.625 L396.4375,315.625 C396.604168,315.625 396.6875,315.541668 396.6875,315.375 L396.6875,313.875 C396.6875,313.729166 396.604168,313.65625 396.4375,313.65625 L383.5625,313.65625 Z M383.5625,308.5625 C383.395832,308.5625 383.3125,308.645832 383.3125,308.8125 L383.3125,310.3125 C383.3125,310.458334 383.395832,310.53125 383.5625,310.53125 L396.4375,310.53125 C396.604168,310.53125 396.6875,310.458334 396.6875,310.3125 L396.6875,308.8125 C396.6875,308.645832 396.604168,308.5625 396.4375,308.5625 L383.5625,308.5625 Z M383.5625,303.5 C383.395832,303.5 383.3125,303.583332 383.3125,303.75 L383.3125,305.25 C383.3125,305.395834 383.395832,305.46875 383.5625,305.46875 L396.4375,305.46875 C396.604168,305.46875 396.6875,305.395834 396.6875,305.25 L396.6875,303.75 C396.6875,303.583332 396.604168,303.5 396.4375,303.5 L383.5625,303.5 Z M396.75,325.1875 L400.09375,325.1875 C400.635419,325.1875 400.989582,324.937503 401.15625,324.4375 C401.260417,324.145832 401.34375,323.593754 401.40625,322.78125 C401.447917,322.364581 401.645832,322.062501 402,321.875 C402.208334,321.770833 402.416666,321.71875 402.625,321.71875 C402.791668,321.71875 402.958332,321.760416 403.125,321.84375 C403.166667,321.84375 403.208333,321.854167 403.25,321.875 C403.750002,322.083334 404.156248,322.406248 404.46875,322.84375 C404.697918,323.197918 404.8125,323.572915 404.8125,323.96875 C404.8125,324.072917 404.802083,324.177083 404.78125,324.28125 C404.552082,325.802091 404.208336,326.874997 403.75,327.5 C403.124997,328.375004 402.020841,328.8125 400.4375,328.8125 L396.21875,328.8125 C394.343741,328.8125 393.088545,328.47917 392.453125,327.8125 C391.817705,327.14583 391.5,325.895842 391.5,324.0625 L391.5,319.1875 C391.5,319.041666 391.416668,318.96875 391.25,318.96875 L387.875,318.96875 C387.708332,318.96875 387.614583,319.041666 387.59375,319.1875 C387.406249,320.479173 387.145835,321.583329 386.8125,322.5 C386.437498,323.458338 385.869795,324.385412 385.109375,325.28125 C384.348955,326.177088 383.312507,326.937497 382,327.5625 C381.124996,328.000002 380.104173,328.385415 378.9375,328.71875 C378.749999,328.78125 378.562501,328.8125 378.375,328.8125 C378.083332,328.8125 377.791668,328.739584 377.5,328.59375 C377.020831,328.364582 376.635418,328.010419 376.34375,327.53125 C376.322917,327.489583 376.302083,327.458333 376.28125,327.4375 C376.239583,327.375 376.208333,327.322917 376.1875,327.28125 C376.041666,327.052082 375.96875,326.822918 375.96875,326.59375 C375.96875,326.447916 376,326.302084 376.0625,326.15625 C376.187501,325.760415 376.458331,325.510417 376.875,325.40625 C378.166673,325.072915 379.229163,324.677086 380.0625,324.21875 C381.270839,323.572913 382.104164,322.854171 382.5625,322.0625 C383.000002,321.312496 383.312499,320.354173 383.5,319.1875 C383.520833,319.041666 383.458334,318.96875 383.3125,318.96875 L381.46875,318.96875 C380.968748,318.96875 380.53646,318.78646 380.171875,318.421875 C379.80729,318.05729 379.625,317.625003 379.625,317.125 L379.625,302 C379.625,301.499997 379.80729,301.06771 380.171875,300.703125 C380.53646,300.33854 380.968748,300.15625 381.46875,300.15625 L398.71875,300.15625 C399.218752,300.15625 399.65104,300.33854 400.015625,300.703125 C400.38021,301.06771 400.5625,301.499997 400.5625,302 L400.5625,317.125 C400.5625,317.625003 400.38021,318.05729 400.015625,318.421875 C399.65104,318.78646 399.218752,318.96875 398.71875,318.96875 L395.5625,318.96875 C395.416666,318.96875 395.34375,319.041666 395.34375,319.1875 L395.34375,324.03125 C395.34375,324.552086 395.421874,324.874999 395.578125,325 C395.734376,325.125001 396.124997,325.1875 396.75,325.1875 Z M424.03125,324.625 C423.864582,324.625 423.78125,324.708332 423.78125,324.875 L423.78125,325.96875 C423.78125,326.114584 423.864582,326.1875 424.03125,326.1875 L435.03125,326.1875 C435.468752,326.1875 435.83854,326.33854 436.140625,326.640625 C436.44271,326.94271 436.59375,327.312498 436.59375,327.75 C436.59375,328.187502 436.44271,328.55729 436.140625,328.859375 C435.83854,329.16146 435.468752,329.3125 435.03125,329.3125 L409.0625,329.3125 C408.624998,329.3125 408.25521,329.16146 407.953125,328.859375 C407.65104,328.55729 407.5,328.187502 407.5,327.75 C407.5,327.312498 407.65104,326.94271 407.953125,326.640625 C408.25521,326.33854 408.624998,326.1875 409.0625,326.1875 L411.9375,326.1875 C412.104168,326.1875 412.1875,326.114584 412.1875,325.96875 L412.1875,323.21875 C412.1875,322.718747 412.364582,322.291668 412.71875,321.9375 C413.072918,321.583332 413.499998,321.40625 414,321.40625 C414.500002,321.40625 414.927082,321.583332 415.28125,321.9375 C415.635418,322.291668 415.8125,322.718747 415.8125,323.21875 L415.8125,325.96875 C415.8125,326.114584 415.895832,326.1875 416.0625,326.1875 L419.84375,326.1875 C420.010418,326.1875 420.09375,326.114584 420.09375,325.96875 L420.09375,320.59375 C420.09375,320.427082 420.010418,320.34375 419.84375,320.34375 L410.90625,320.34375 C410.489581,320.34375 410.135418,320.197918 409.84375,319.90625 C409.552082,319.614582 409.40625,319.260419 409.40625,318.84375 C409.40625,318.427081 409.552082,318.072918 409.84375,317.78125 C410.135418,317.489582 410.489581,317.34375 410.90625,317.34375 L433.09375,317.34375 C433.510419,317.34375 433.864582,317.489582 434.15625,317.78125 C434.447918,318.072918 434.59375,318.427081 434.59375,318.84375 C434.59375,319.260419 434.447918,319.614582 434.15625,319.90625 C433.864582,320.197918 433.510419,320.34375 433.09375,320.34375 L424.03125,320.34375 C423.864582,320.34375 423.78125,320.427082 423.78125,320.59375 L423.78125,321.625 C423.78125,321.770834 423.864582,321.84375 424.03125,321.84375 L430.65625,321.84375 C431.031252,321.84375 431.359374,321.979165 431.640625,322.25 C431.921876,322.520835 432.0625,322.848956 432.0625,323.234375 C432.0625,323.619794 431.921876,323.947915 431.640625,324.21875 C431.359374,324.489585 431.031252,324.625 430.65625,324.625 L424.03125,324.625 Z M421.375,313.09375 C421.562501,313.177084 421.677083,313.322916 421.71875,313.53125 C421.760417,313.739584 421.718751,313.927082 421.59375,314.09375 C421.572917,314.09375 421.567708,314.104167 421.578125,314.125 C421.588542,314.145833 421.604167,314.145833 421.625,314.125 C423.729177,313.52083 425.499993,312.677089 426.9375,311.59375 C427.062501,311.489583 427.072917,311.375001 426.96875,311.25 C426.406247,310.562497 425.875002,309.770838 425.375,308.875 C425.291666,308.729166 425.197917,308.718749 425.09375,308.84375 C424.781248,309.177085 424.406252,309.34375 423.96875,309.34375 L423.875,309.34375 C423.395831,309.322917 422.989585,309.125002 422.65625,308.75 L422.1875,308.28125 C422.166667,308.260417 422.135417,308.255208 422.09375,308.265625 C422.052083,308.276042 422.03125,308.302083 422.03125,308.34375 L422.03125,309.5 C422.03125,310.020836 421.84896,310.458332 421.484375,310.8125 C421.11979,311.166668 420.687502,311.34375 420.1875,311.34375 L418.28125,311.34375 C418.239583,311.34375 418.213542,311.359375 418.203125,311.390625 C418.192708,311.421875 418.208333,311.447917 418.25,311.46875 C419.812508,312.260421 420.854164,312.802082 421.375,313.09375 Z M411.65625,307.375 C411.489582,307.375 411.40625,307.458332 411.40625,307.625 L411.40625,308.875 C411.40625,309.041668 411.489582,309.125 411.65625,309.125 L413.25,309.125 C413.416668,309.125 413.5,309.041668 413.5,308.875 L413.5,307.625 C413.5,307.458332 413.416668,307.375 413.25,307.375 L411.65625,307.375 Z M418.90625,307.625 C418.90625,307.458332 418.822918,307.375 418.65625,307.375 L417.0625,307.375 C416.895832,307.375 416.8125,307.458332 416.8125,307.625 L416.8125,308.875 C416.8125,309.041668 416.895832,309.125 417.0625,309.125 L418.65625,309.125 C418.822918,309.125 418.90625,309.041668 418.90625,308.875 L418.90625,307.625 Z M430.625,306.34375 C430.645833,306.302083 430.640625,306.255209 430.609375,306.203125 C430.578125,306.151041 430.53125,306.125 430.46875,306.125 L427.375,306.125 C427.333333,306.125 427.296875,306.151041 427.265625,306.203125 C427.234375,306.255209 427.229167,306.302083 427.25,306.34375 C427.750002,307.322922 428.343747,308.229163 429.03125,309.0625 C429.135417,309.187501 429.239583,309.177084 429.34375,309.03125 C429.885419,308.239579 430.312498,307.343755 430.625,306.34375 Z M436,303.5625 C436.291668,303.854168 436.4375,304.208331 436.4375,304.625 C436.4375,305.041669 436.291668,305.395832 436,305.6875 C435.708332,305.979168 435.354169,306.125 434.9375,306.125 L434.5625,306.125 C434.395832,306.125 434.291667,306.197916 434.25,306.34375 C433.64583,308.28126 432.833338,309.927077 431.8125,311.28125 C431.708333,311.406251 431.718749,311.520833 431.84375,311.625 C432.885422,312.35417 434.031244,312.958331 435.28125,313.4375 C435.656252,313.583334 435.906249,313.854165 436.03125,314.25 C436.072917,314.375001 436.09375,314.499999 436.09375,314.625 C436.09375,314.895835 436.010418,315.145832 435.84375,315.375 C435.531248,315.812502 435.135419,316.114582 434.65625,316.28125 C434.427082,316.364584 434.208334,316.40625 434,316.40625 C433.729165,316.40625 433.468751,316.354167 433.21875,316.25 C431.864577,315.624997 430.645839,314.854171 429.5625,313.9375 C429.458333,313.833333 429.343751,313.833333 429.21875,313.9375 C428.093744,314.812504 426.781257,315.58333 425.28125,316.25 C425.010415,316.354167 424.729168,316.40625 424.4375,316.40625 C424.229166,316.40625 424.010418,316.375 423.78125,316.3125 C423.281248,316.145832 422.864585,315.843752 422.53125,315.40625 C422.197915,315.010415 421.895835,314.677085 421.625,314.40625 C421.520833,314.281249 421.416667,314.281249 421.3125,314.40625 C421.020832,314.781252 420.635419,315.010416 420.15625,315.09375 L419.875,315.09375 C419.499998,315.09375 419.145835,314.979168 418.8125,314.75 C418.249997,314.333331 417.645837,313.916669 417,313.5 C416.958333,313.479167 416.916667,313.479167 416.875,313.5 C416.833333,313.520833 416.8125,313.552083 416.8125,313.59375 L416.8125,315 C416.8125,315.458336 416.651043,315.848957 416.328125,316.171875 C416.005207,316.494793 415.614586,316.65625 415.15625,316.65625 C414.697914,316.65625 414.307293,316.494793 413.984375,316.171875 C413.661457,315.848957 413.5,315.458336 413.5,315 L413.5,313.84375 C413.5,313.802083 413.479167,313.776042 413.4375,313.765625 C413.395833,313.755208 413.354167,313.760417 413.3125,313.78125 C412.458329,314.614587 411.552088,315.354163 410.59375,316 C410.302082,316.187501 410.000002,316.28125 409.6875,316.28125 C409.583333,316.28125 409.479167,316.260417 409.375,316.21875 C408.937498,316.135416 408.562502,315.927085 408.25,315.59375 C408.041666,315.364582 407.9375,315.114585 407.9375,314.84375 C407.9375,314.760416 407.947917,314.677084 407.96875,314.59375 C408.03125,314.239582 408.229165,313.968751 408.5625,313.78125 C409.83334,313.11458 410.968745,312.354171 411.96875,311.5 C411.989583,311.479167 411.994792,311.447917 411.984375,311.40625 C411.973958,311.364583 411.947917,311.34375 411.90625,311.34375 L410.3125,311.34375 C409.791664,311.34375 409.354168,311.166668 409,310.8125 C408.645832,310.458332 408.46875,310.020836 408.46875,309.5 L408.46875,307 C408.46875,306.479164 408.645832,306.041668 409,305.6875 C409.354168,305.333332 409.791664,305.15625 410.3125,305.15625 L413.25,305.15625 C413.416668,305.15625 413.5,305.072918 413.5,304.90625 L413.5,304.28125 C413.5,304.135416 413.416668,304.0625 413.25,304.0625 L409.03125,304.0625 C408.677082,304.0625 408.375001,303.937501 408.125,303.6875 C407.874999,303.437499 407.75,303.140627 407.75,302.796875 C407.75,302.453123 407.874999,302.156251 408.125,301.90625 C408.375001,301.656249 408.677082,301.53125 409.03125,301.53125 L413.3125,301.53125 C413.437501,301.53125 413.5,301.468751 413.5,301.34375 C413.5,300.947915 413.640624,300.609376 413.921875,300.328125 C414.203126,300.046874 414.541665,299.90625 414.9375,299.90625 L415.375,299.90625 C415.770835,299.90625 416.109374,300.046874 416.390625,300.328125 C416.671876,300.609376 416.8125,300.947915 416.8125,301.34375 C416.8125,301.468751 416.874999,301.53125 417,301.53125 L421.21875,301.53125 C421.572918,301.53125 421.86979,301.656249 422.109375,301.90625 C422.34896,302.156251 422.46875,302.453123 422.46875,302.796875 C422.46875,303.140627 422.34896,303.437499 422.109375,303.6875 C421.86979,303.937501 421.572918,304.0625 421.21875,304.0625 L417.0625,304.0625 C416.895832,304.0625 416.8125,304.135416 416.8125,304.28125 L416.8125,304.90625 C416.8125,305.072918 416.895832,305.15625 417.0625,305.15625 L420.4375,305.15625 C420.875002,305.15625 421.249998,305.30729 421.5625,305.609375 C421.875002,305.91146 422.03125,306.281248 422.03125,306.71875 C422.03125,306.760417 422.052083,306.786458 422.09375,306.796875 C422.135417,306.807292 422.166667,306.802083 422.1875,306.78125 C423.52084,305.427077 424.593746,303.697927 425.40625,301.59375 C425.572918,301.114581 425.864581,300.760418 426.28125,300.53125 C426.593752,300.343749 426.906248,300.25 427.21875,300.25 C427.343751,300.25 427.479166,300.270833 427.625,300.3125 C428.083336,300.416667 428.427082,300.666665 428.65625,301.0625 C428.802084,301.312501 428.875,301.562499 428.875,301.8125 C428.875,301.979168 428.84375,302.156249 428.78125,302.34375 C428.697916,302.531251 428.625,302.718749 428.5625,302.90625 C428.541667,302.96875 428.546875,303.020833 428.578125,303.0625 C428.609375,303.104167 428.645833,303.125 428.6875,303.125 L434.9375,303.125 C435.354169,303.125 435.708332,303.270832 436,303.5625 Z M460.375,320.28125 C460.375,320.135416 460.291668,320.0625 460.125,320.0625 L447.96875,320.0625 C447.802082,320.0625 447.71875,320.135416 447.71875,320.28125 L447.71875,325.03125 C447.71875,325.197918 447.802082,325.28125 447.96875,325.28125 L460.125,325.28125 C460.291668,325.28125 460.375,325.197918 460.375,325.03125 L460.375,320.28125 Z M445.8125,329.8125 C445.312498,329.8125 444.88021,329.635418 444.515625,329.28125 C444.15104,328.927082 443.96875,328.489586 443.96875,327.96875 L443.96875,318.53125 C443.96875,318.031247 444.15104,317.59896 444.515625,317.234375 C444.88021,316.86979 445.312498,316.6875 445.8125,316.6875 L462.4375,316.6875 C462.937502,316.6875 463.36979,316.86979 463.734375,317.234375 C464.09896,317.59896 464.28125,318.031247 464.28125,318.53125 L464.28125,327.96875 C464.28125,328.489586 464.09896,328.927082 463.734375,329.28125 C463.36979,329.635418 462.937502,329.8125 462.4375,329.8125 L461.40625,329.8125 C461.114582,329.8125 460.869793,329.708334 460.671875,329.5 C460.473957,329.291666 460.375,329.041668 460.375,328.75 C460.375,328.666666 460.333334,328.625 460.25,328.625 L447.875,328.625 C447.770833,328.625 447.71875,328.666666 447.71875,328.75 C447.71875,329.041668 447.619793,329.291666 447.421875,329.5 C447.223957,329.708334 446.979168,329.8125 446.6875,329.8125 L445.8125,329.8125 Z M447.71875,310.03125 C447.697917,310.052083 447.692708,310.078125 447.703125,310.109375 C447.713542,310.140625 447.739583,310.15625 447.78125,310.15625 L460.21875,310.15625 C460.260417,310.15625 460.286458,310.140625 460.296875,310.109375 C460.307292,310.078125 460.302083,310.052083 460.28125,310.03125 C457.61457,307.927073 455.531257,305.87501 454.03125,303.875 C454.010417,303.8125 453.96875,303.78125 453.90625,303.78125 C453.84375,303.78125 453.802083,303.8125 453.78125,303.875 C452.281242,305.93751 450.260429,307.989573 447.71875,310.03125 Z M450.71875,301.4375 C451.468754,300.437495 452.427077,299.9375 453.59375,299.9375 L453.84375,299.9375 C455.031256,299.9375 456.020829,300.427078 456.8125,301.40625 C458.270841,303.239592 459.947907,304.916659 461.84375,306.4375 C463.739593,307.958341 465.697907,309.208328 467.71875,310.1875 C468.114585,310.375001 468.364583,310.697914 468.46875,311.15625 C468.489583,311.281251 468.5,311.395833 468.5,311.5 C468.5,311.812502 468.406251,312.093749 468.21875,312.34375 C468.114583,312.489584 468.010417,312.645832 467.90625,312.8125 C467.614582,313.229169 467.218752,313.510416 466.71875,313.65625 C466.552082,313.697917 466.385418,313.71875 466.21875,313.71875 C465.906248,313.71875 465.604168,313.635418 465.3125,313.46875 C464.312495,312.885414 463.281255,312.218754 462.21875,311.46875 C462.177083,311.427083 462.135417,311.416667 462.09375,311.4375 C462.052083,311.458333 462.03125,311.5 462.03125,311.5625 L462.03125,311.6875 C462.03125,312.187503 461.84896,312.61979 461.484375,312.984375 C461.11979,313.34896 460.687502,313.53125 460.1875,313.53125 L447.9375,313.53125 C447.437498,313.53125 447.00521,313.34896 446.640625,312.984375 C446.27604,312.61979 446.09375,312.187503 446.09375,311.6875 L446.09375,311.53125 C446.09375,311.46875 446.072917,311.427083 446.03125,311.40625 C445.989583,311.385417 445.947917,311.395833 445.90625,311.4375 C444.927078,312.145837 443.875006,312.83333 442.75,313.5 C442.437498,313.687501 442.125002,313.78125 441.8125,313.78125 C441.645832,313.78125 441.479168,313.760417 441.3125,313.71875 C440.833331,313.593749 440.437502,313.322919 440.125,312.90625 C440.0625,312.84375 440.010417,312.770834 439.96875,312.6875 C439.739582,312.416665 439.625,312.114585 439.625,311.78125 C439.625,311.677083 439.635417,311.572917 439.65625,311.46875 C439.739584,311.031248 439.979165,310.697918 440.375,310.46875 C442.395843,309.322911 444.317699,307.942716 446.140625,306.328125 C447.963551,304.713534 449.489577,303.083342 450.71875,301.4375 Z M498.71875,315.34375 C499.218752,315.34375 499.65104,315.52604 500.015625,315.890625 C500.38021,316.25521 500.5625,316.687497 500.5625,317.1875 L500.5625,317.375 C500.5625,317.895836 500.38021,318.333332 500.015625,318.6875 C499.65104,319.041668 499.218752,319.21875 498.71875,319.21875 L488.21875,319.21875 C488.052082,319.21875 487.96875,319.302082 487.96875,319.46875 L487.96875,327.9375 C487.96875,328.458336 487.791668,328.895832 487.4375,329.25 C487.083332,329.604168 486.645836,329.78125 486.125,329.78125 L485.875,329.78125 C485.354164,329.78125 484.916668,329.604168 484.5625,329.25 C484.208332,328.895832 484.03125,328.458336 484.03125,327.9375 L484.03125,319.46875 C484.03125,319.302082 483.947918,319.21875 483.78125,319.21875 L473.40625,319.21875 C472.906248,319.21875 472.47396,319.041668 472.109375,318.6875 C471.74479,318.333332 471.5625,317.895836 471.5625,317.375 L471.5625,317.1875 C471.5625,316.687497 471.74479,316.25521 472.109375,315.890625 C472.47396,315.52604 472.906248,315.34375 473.40625,315.34375 L483.78125,315.34375 C483.947918,315.34375 484.03125,315.270834 484.03125,315.125 L484.03125,305.875 C484.03125,305.729166 483.947918,305.65625 483.78125,305.65625 L475.0625,305.65625 C474.562498,305.65625 474.13021,305.47396 473.765625,305.109375 C473.40104,304.74479 473.21875,304.312503 473.21875,303.8125 L473.21875,303.71875 C473.21875,303.218747 473.40104,302.78646 473.765625,302.421875 C474.13021,302.05729 474.562498,301.875 475.0625,301.875 L496.875,301.875 C497.375002,301.875 497.80729,302.05729 498.171875,302.421875 C498.53646,302.78646 498.71875,303.218747 498.71875,303.71875 L498.71875,303.8125 C498.71875,304.312503 498.53646,304.74479 498.171875,305.109375 C497.80729,305.47396 497.375002,305.65625 496.875,305.65625 L488.21875,305.65625 C488.052082,305.65625 487.96875,305.729166 487.96875,305.875 L487.96875,315.125 C487.96875,315.270834 488.052082,315.34375 488.21875,315.34375 L498.71875,315.34375 Z M475.90625,309.375 C475.822916,309.166666 475.78125,308.947918 475.78125,308.71875 C475.78125,308.489582 475.833333,308.260418 475.9375,308.03125 C476.145834,307.614581 476.479164,307.333334 476.9375,307.1875 C477.145834,307.125 477.354166,307.09375 477.5625,307.09375 C477.854168,307.09375 478.135415,307.156249 478.40625,307.28125 C478.885419,307.489584 479.239582,307.833331 479.46875,308.3125 C479.989586,309.437506 480.416665,310.479162 480.75,311.4375 C480.8125,311.625001 480.84375,311.812499 480.84375,312 C480.84375,312.291668 480.760418,312.572915 480.59375,312.84375 C480.343749,313.302086 479.968752,313.604166 479.46875,313.75 L479.28125,313.8125 C479.114582,313.875 478.937501,313.90625 478.75,313.90625 C478.479165,313.90625 478.208335,313.822918 477.9375,313.65625 C477.499998,313.406249 477.208334,313.041669 477.0625,312.5625 C476.749998,311.541662 476.364586,310.479172 475.90625,309.375 Z M494.75,312.8125 C494.499999,313.250002 494.135419,313.562499 493.65625,313.75 C493.385415,313.854167 493.114585,313.90625 492.84375,313.90625 C492.635416,313.90625 492.427084,313.875 492.21875,313.8125 C491.781248,313.687499 491.479168,313.416669 491.3125,313 C491.229166,312.812499 491.1875,312.625001 491.1875,312.4375 C491.1875,312.208332 491.229166,311.989584 491.3125,311.78125 C491.833336,310.677078 492.312498,309.531256 492.75,308.34375 C492.937501,307.843747 493.249998,307.468751 493.6875,307.21875 C494.000002,307.052082 494.312498,306.96875 494.625,306.96875 C494.791668,306.96875 494.958332,306.989583 495.125,307.03125 L495.59375,307.15625 C496.072919,307.281251 496.406249,307.552081 496.59375,307.96875 C496.697917,308.197918 496.75,308.416666 496.75,308.625 C496.75,308.833334 496.697917,309.052082 496.59375,309.28125 C495.92708,310.656257 495.312503,311.833328 494.75,312.8125 Z M524.5625,319.53125 C524.5625,319.364582 524.479168,319.28125 524.3125,319.28125 L511.46875,319.28125 C511.322916,319.28125 511.25,319.364582 511.25,319.53125 L511.25,324.59375 C511.25,324.739584 511.322916,324.8125 511.46875,324.8125 L524.3125,324.8125 C524.479168,324.8125 524.5625,324.739584 524.5625,324.59375 L524.5625,319.53125 Z M509.1875,329.75 C508.687498,329.75 508.25521,329.572918 507.890625,329.21875 C507.52604,328.864582 507.34375,328.427086 507.34375,327.90625 L507.34375,317.53125 C507.34375,317.010414 507.52604,316.572918 507.890625,316.21875 C508.25521,315.864582 508.687498,315.6875 509.1875,315.6875 L526.8125,315.6875 C527.312502,315.6875 527.74479,315.864582 528.109375,316.21875 C528.47396,316.572918 528.65625,317.010414 528.65625,317.53125 L528.65625,327.875 C528.65625,328.375003 528.47396,328.80729 528.109375,329.171875 C527.74479,329.53646 527.312502,329.71875 526.8125,329.71875 L525.65625,329.71875 C525.364582,329.71875 525.109376,329.609376 524.890625,329.390625 C524.671874,329.171874 524.5625,328.916668 524.5625,328.625 C524.5625,328.520833 524.510417,328.46875 524.40625,328.46875 L511.40625,328.46875 C511.302083,328.46875 511.25,328.520833 511.25,328.625 C511.25,328.937502 511.140626,329.203124 510.921875,329.421875 C510.703124,329.640626 510.437502,329.75 510.125,329.75 L509.1875,329.75 Z M522.625,306.5625 C522.291665,306.249998 522.125,305.875002 522.125,305.4375 C522.125,304.937497 522.333331,304.531252 522.75,304.21875 L522.78125,304.21875 C523.177085,303.906248 523.635414,303.75 524.15625,303.75 L524.21875,303.75 C524.760419,303.75 525.239581,303.927082 525.65625,304.28125 C528.281263,306.572928 530.333326,308.677074 531.8125,310.59375 C532.062501,310.927085 532.1875,311.281248 532.1875,311.65625 C532.1875,311.760417 532.177083,311.874999 532.15625,312 C532.052083,312.500003 531.791669,312.916665 531.375,313.25 L531,313.53125 C530.708332,313.760418 530.385418,313.875 530.03125,313.875 C529.927083,313.875 529.822917,313.864583 529.71875,313.84375 C529.239581,313.739583 528.854168,313.489585 528.5625,313.09375 C528.291665,312.718748 527.989585,312.322919 527.65625,311.90625 C527.552083,311.802083 527.427084,311.75 527.28125,311.75 C521.364554,312.062502 514.281291,312.374998 506.03125,312.6875 L505.9375,312.6875 C505.458331,312.6875 505.041668,312.520835 504.6875,312.1875 C504.312498,311.854165 504.104167,311.427086 504.0625,310.90625 L504.0625,310.75 C504.020833,310.249997 504.171873,309.81771 504.515625,309.453125 C504.859377,309.08854 505.281248,308.895833 505.78125,308.875 C507.05209,308.833333 508.010413,308.802083 508.65625,308.78125 C508.802084,308.78125 508.916666,308.718751 509,308.59375 C510.479174,306.281238 511.770828,303.875013 512.875,301.375 C513.083334,300.895831 513.427081,300.552084 513.90625,300.34375 C514.177085,300.197916 514.447915,300.125 514.71875,300.125 C514.927084,300.125 515.135416,300.166666 515.34375,300.25 L516.21875,300.53125 C516.677086,300.677084 516.989582,300.968748 517.15625,301.40625 C517.239584,301.593751 517.28125,301.781249 517.28125,301.96875 C517.28125,302.218751 517.218751,302.458332 517.09375,302.6875 C515.989578,304.666677 514.833339,306.583324 513.625,308.4375 C513.583333,308.479167 513.578125,308.520833 513.609375,308.5625 C513.640625,308.604167 513.677083,308.625 513.71875,308.625 C516.114595,308.541666 519.572894,308.395834 524.09375,308.1875 C524.135417,308.1875 524.166667,308.166667 524.1875,308.125 C524.208333,308.083333 524.197917,308.052083 524.15625,308.03125 C523.697914,307.552081 523.187503,307.062503 522.625,306.5625 Z" id="path-4"></path>
    </defs>
    <g id="" stroke="none" stroke-width="1" fill="none" fill-rule="evenodd">
        <g id="-UI" transform="translate(-32.000000, -395.000000)">
            <g id="Group-3" transform="translate(41.000000, 401.000000)">
                <g id="Group-2" fill-rule="nonzero">
                    <g id="Group-6" transform="translate(366.000000, 1.000000)" stroke="url(#linearGradient-1)" stroke-linecap="round" stroke-linejoin="round" stroke-width="18">
                        <path d="M41.6405534,50.8166116 L134.349831,107.911297 L41.6405534,50.8166116 Z M85.0799187,79.8261471 L34.4519289,99.8182968 L85.0799187,79.8261471 Z" id="Combined-Shape" transform="translate(85.401634, 79.486169) rotate(99.000000) translate(-85.401634, -79.486169) "></path>
                        <path d="M48.8838181,77.2399309 C39.7226959,87.4427964 34.1458772,100.931114 34.1390708,115.718437 C34.1244295,147.527694 59.8894674,173.302323 91.6868935,173.287682 C123.48432,173.27304 149.273096,147.474673 149.287737,115.665416 C149.302378,83.8561593 123.53734,58.0815306 91.7399143,58.0961719 L88.0173073,19.2221473" id="Path" transform="translate(91.713404, 96.254918) rotate(-214.000000) translate(-91.713404, -96.254918) "></path>
                    </g>
                    <g id="Group-4" fill="url(#linearGradient-1)">
                        <path d="M49,12 C44.0294373,12 40,7.97056275 40,3 C40,-1.97056275 44.0294373,-6 49,-6 L179.34,-6 C184.310563,-6 188.34,-1.97056275 188.34,3 C188.34,7.97056275 184.310563,12 179.34,12 L49,12 Z" id="Path-9"></path>
                        <path d="M142,112 C137.029437,112 133,107.970563 133,103 C133,98.0294373 137.029437,94 142,94 L174.571429,94 C179.541991,94 183.571429,98.0294373 183.571429,103 C183.571429,107.970563 179.541991,112 174.571429,112 L142,112 Z" id="Path-9-Copy-2"></path>
                        <path d="M98.6237706,168 L179,168 C183.970563,168 188,172.029437 188,177 C188,181.970563 183.970563,186 179,186 L87,186 C81.1147327,186 76.8130866,180.444295 78.2866918,174.7465 L114.235889,35.7465005 C115.480462,30.9342732 120.390469,28.0421184 125.202696,29.2866918 C130.014924,30.5312652 132.907078,35.4412723 131.662505,40.2534995 L98.6237706,168 Z" id="Path-9-Copy"></path>
                        <path d="M30.8029317,171 L65,171 C69.9705627,171 74,175.029437 74,180 C74,184.970563 69.9705627,189 65,189 L24.0397539,189 C20.0335101,189 16.5095928,186.351902 15.3950495,182.503814 L-8.64470445,99.5038141 C-10.0275228,94.7294756 -7.27815251,89.7381139 -2.50381407,88.3552955 C2.27052437,86.9724772 7.26188613,89.7218475 8.64470445,94.4961859 L30.8029317,171 Z" id="Path-9-Copy-3" transform="translate(32.498834, 138.498834) scale(-1, 1) translate(-32.498834, -138.498834) "></path>
                    </g>
                    <g id="Group-5" transform="translate(207.000000, 3.000000)">
                        <polygon id="Path-9-Copy-4" stroke="url(#linearGradient-1)" stroke-width="18" stroke-linecap="round" stroke-linejoin="round" points="36.4429132 0 146 0 125.697918 115 13 115"></polygon>
                        <path d="M61,86 C56.0294373,86 52,81.9705627 52,77 C52,72.0294373 56.0294373,68 61,68 L96.0769231,68 C101.047486,68 105.076923,72.0294373 105.076923,77 C105.076923,81.9705627 101.047486,86 96.0769231,86 L61,86 Z" id="Path-9-Copy-7" fill="url(#linearGradient-1)"></path>
                        <path d="M67,47 C62.0294373,47 58,42.9705627 58,38 C58,33.0294373 62.0294373,29 67,29 L100.541667,29 C105.512229,29 109.541667,33.0294373 109.541667,38 C109.541667,42.9705627 105.512229,47 100.541667,47 L67,47 Z" id="Path-9-Copy-8" fill="url(#linearGradient-1)"></path>
                        <path d="M83.8252839,136 L75,171 C98.5990377,171 112.754241,171 117.46561,171 C129.244219,171 138.422349,164.194444 145,150.583333" id="Path-9-Copy-6" stroke="url(#linearGradient-1)" stroke-width="18" stroke-linecap="round" stroke-linejoin="round"></path>
                        <path d="M0,174 C16.568314,174 28.4008333,171.409208 35.4975579,166.227624 L44,136" id="Path-9-Copy-5" stroke="url(#linearGradient-1)" stroke-width="18" stroke-linecap="round" stroke-linejoin="round"></path>
                    </g>
                </g>
                <g id="!">
                    <use fill="#FFFFFF" xlink:href="#path-3"></use>
                    <use fill="url(#linearGradient-2)" xlink:href="#path-3"></use>
                </g>
                <g id="">
                    <use fill="#FFFFFF" xlink:href="#path-4"></use>
                    <use fill="url(#linearGradient-2)" xlink:href="#path-4"></use>
                </g>
            </g>
        </g>
    </g>
</svg>