<?xml version="1.0" encoding="UTF-8"?>
<svg width="85px" height="81px" viewBox="0 0 85 81" version="1.1" xmlns="http://www.w3.org/2000/svg" xmlns:xlink="http://www.w3.org/1999/xlink">
    <!-- Generator: Sketch 52.4 (67378) - http://www.bohemiancoding.com/sketch -->
    <title>Group 6</title>
    <desc>Created with Sketch.</desc>
    <defs>
        <linearGradient x1="50%" y1="0%" x2="50%" y2="100%" id="linearGradient-1">
            <stop stop-color="#FE6270" offset="0%"></stop>
            <stop stop-color="#ED3853" offset="100%"></stop>
        </linearGradient>
        <path d="M13.729,41 L13.729,26.94 L16.598,26.94 L20.683,34.426 L22.089,37.466 L22.184,37.466 C22.032,36.003 21.823,34.141 21.823,32.545 L21.823,26.94 L24.483,26.94 L24.483,41 L21.633,41 L17.567,33.476 L16.142,30.455 L16.047,30.455 C16.18,31.975 16.389,33.742 16.389,35.357 L16.389,41 L13.729,41 Z M27.96,41 L27.96,26.94 L36.586,26.94 L36.586,29.277 L30.772,29.277 L30.772,32.526 L35.712,32.526 L35.712,34.882 L30.772,34.882 L30.772,38.644 L36.795,38.644 L36.795,41 L27.96,41 Z M38.182,41 L42.134,33.742 L38.429,26.94 L41.545,26.94 L42.951,29.828 C43.274,30.493 43.578,31.177 43.996,32.051 L44.091,32.051 C44.433,31.177 44.718,30.493 45.022,29.828 L46.352,26.94 L49.316,26.94 L45.611,33.875 L49.563,41 L46.447,41 L44.87,37.884 C44.509,37.162 44.186,36.421 43.768,35.566 L43.692,35.566 C43.331,36.421 43.008,37.162 42.666,37.884 L41.165,41 L38.182,41 Z M54.351,41 L54.351,29.277 L50.399,29.277 L50.399,26.94 L61.153,26.94 L61.153,29.277 L57.163,29.277 L57.163,41 L54.351,41 Z" id="path-2"></path>
    </defs>
    <g id="政見" stroke="none" stroke-width="1" fill="none" fill-rule="evenodd">
        <g id="地區-UI" transform="translate(-657.000000, -903.000000)">
            <g id="Group-6" transform="translate(662.000000, 908.000000)">
                <path d="M22.3515291,3.41116428e-14 C9.18659335,5.77370552 1.0658141e-13,18.8423988 1.0658141e-13,34.0395487 C1.0658141e-13,54.5843278 16.7893219,71.2391621 37.5,71.2391621 C58.2106781,71.2391621 75,54.5843278 75,34.0395487 C75,18.9846788 65.9846164,6.01859767 53.017182,0.164079211 L53.017182,15.6469786 L53.017182,2.60263495e-13 L73.2284969,-5.68434189e-14" id="Path" stroke="url(#linearGradient-1)" stroke-width="9" stroke-linecap="round" stroke-linejoin="round" fill-rule="nonzero"></path>
                <g id="NEXT">
                    <use fill="#FFFFFF" xlink:href="#path-2"></use>
                    <use fill="url(#linearGradient-1)" xlink:href="#path-2"></use>
                </g>
            </g>
        </g>
    </g>
</svg>