<?xml version="1.0" encoding="UTF-8"?>
<svg width="69px" height="61px" viewBox="0 0 69 61" version="1.1" xmlns="http://www.w3.org/2000/svg" xmlns:xlink="http://www.w3.org/1999/xlink">
    <!-- Generator: Sketch 52.4 (67378) - http://www.bohemiancoding.com/sketch -->
    <title>icons8-contact_card</title>
    <desc>Created with Sketch.</desc>
    <defs>
        <linearGradient x1="50%" y1="0%" x2="50%" y2="100%" id="linearGradient-1">
            <stop stop-color="#79828D" offset="0%"></stop>
            <stop stop-color="#444B54" offset="100%"></stop>
        </linearGradient>
    </defs>
    <g id="政見" stroke="none" stroke-width="1" fill="none" fill-rule="evenodd">
        <g id="首頁-UI" transform="translate(-884.000000, -481.000000)">
            <g id="icons8-contact_card" transform="translate(886.000000, 483.000000)">
                <path d="M58.5,7.15 L26.69615,7.15 C25.83425,7.15 25.00745,6.80745 24.39775,6.1984 L19.1516,0.95225 C18.54255,0.34255 17.71575,0 16.85385,0 L3.25,0 C1.45535,0 0,1.45535 0,3.25 L0,10.4 L0,50.7 C0,54.28995 2.91005,57.2 9.1,57.2 L13,57.2 L13,55.05175 C11.80595,53.98055 11.05,52.4303 11.05,50.7 C11.05,47.46885 13.66885,44.85 16.9,44.85 C20.13115,44.85 22.75,47.46885 22.75,50.7 C22.75,52.4303 21.99405,53.98055 20.8,55.05175 L20.8,57.2 L44.2,57.2 L44.2,55.05175 C43.00595,53.98055 42.25,52.4303 42.25,50.7 C42.25,47.46885 44.86885,44.85 48.1,44.85 C51.33115,44.85 53.95,47.46885 53.95,50.7 C53.95,52.4303 53.19405,53.98055 52,55.05175 L52,57.2 L61.1,57.2 C62.08995,57.2 65,54.28995 65,50.7 L65,13.65 C65,10.06005 62.08995,7.15 58.5,7.15" id="Path" fill="#F6E5AB"></path>
                <path d="M16.85385,0 L3.25,0 C1.45535,0 0,1.45535 0,3.25 L0,10.4 L0,50.7 C0,52.14235 0.4693,53.47485 1.4326,54.55255 C5.1714,33.55105 24.72405,13 45.825,13 L64.96815,13 C64.64185,9.7149 61.8709,7.15 58.5,7.15 L26.69615,7.15 C25.83425,7.15 25.00745,6.80745 24.39775,6.1984 L19.1516,0.95225 C18.54255,0.34255 17.71575,0 16.85385,0" id="Path" fill="#FCF7E6"></path>
                <path d="M57.2,22.1 L39,22.1 C37.92295,22.1 37.05,21.22705 37.05,20.15 C37.05,19.07295 37.92295,18.2 39,18.2 L57.2,18.2 C58.27705,18.2 59.15,19.07295 59.15,20.15 C59.15,21.22705 58.27705,22.1 57.2,22.1 Z" id="Path" fill="#CD928D"></path>
                <path d="M57.2,29.9 L39,29.9 C37.92295,29.9 37.05,29.02705 37.05,27.95 C37.05,26.87295 37.92295,26 39,26 L57.2,26 C58.27705,26 59.15,26.87295 59.15,27.95 C59.15,29.02705 58.27705,29.9 57.2,29.9 Z" id="Path" fill="#CD928D"></path>
                <path d="M49.4,37.7 L39,37.7 C37.92295,37.7 37.05,36.82705 37.05,35.75 C37.05,34.67295 37.92295,33.8 39,33.8 L49.4,33.8 C50.47705,33.8 51.35,34.67295 51.35,35.75 C51.35,36.82705 50.47705,37.7 49.4,37.7 Z" id="Path" fill="#CD928D"></path>
                <path d="M26.65,20.7467 C26.65,27.2753 23.44875,30.55 19.5,30.55 C15.55125,30.55 12.35,27.2753 12.35,20.7467 C12.35,16.8272 15.55125,13.65 19.5,13.65 C23.44875,13.65 26.65,16.8272 26.65,20.7467 Z" id="Path" fill="#EFD5BE"></path>
                <path d="M19.5,30.55 C10.4,30.55 7.8,38.35 7.8,38.35 L7.8,40.3 L31.2,40.3 L31.2,38.35 C31.2,38.35 27.95,30.55 19.5,30.55 Z" id="Path" fill="#C7D6E2"></path>
                <path d="M7.8,40.30065 C7.5959,40.30065 7.3879,40.26815 7.18315,40.1999 C6.16135,39.85995 5.6095,38.75495 5.9501,37.7338 C7.0031,34.57415 11.1904,28.6 19.5,28.6 C29.1395,28.6 32.84645,37.23265 33.0005,37.5999 C33.41455,38.5944 32.9446,39.7358 31.9501,40.1505 C30.95625,40.56585 29.8142,40.0933 29.40015,39.10075 C29.28835,38.83815 26.5018,32.5 19.5,32.5 C11.8937,32.5 9.67135,38.9025 9.6499,38.9662 C9.37755,39.7839 8.6164,40.30065 7.8,40.30065 Z" id="Path" fill="#444B54"></path>
                <path d="M19.5,32.5 C13.21385,32.5 10.4,26.5967 10.4,20.7467 C10.4,15.7586 14.482,11.7 19.5,11.7 C24.518,11.7 28.6,15.7586 28.6,20.7467 C28.6,26.5967 25.78615,32.5 19.5,32.5 Z M19.5,15.6 C16.63285,15.6 14.3,17.9088 14.3,20.7467 C14.3,25.59115 16.29225,28.6 19.5,28.6 C22.70775,28.6 24.7,25.59115 24.7,20.7467 C24.7,17.9088 22.36715,15.6 19.5,15.6 Z" id="Shape" fill="#444B54" fill-rule="nonzero"></path>
                <path d="M58.5,7.15 L26.69615,7.15 C25.83425,7.15 25.00745,6.80745 24.39775,6.1984 L19.1516,0.95225 C18.54255,0.34255 17.71575,0 16.85385,0 L3.25,0 C1.45535,0 0,1.45535 0,3.25 L0,50.7 C0,54.28995 2.91005,57.2 6.5,57.2 L13,57.2 L13,55.0511 C11.8235,53.99875 11.0747,52.48035 11.05065,50.7832 C11.00645,47.6385 13.58045,44.94425 16.7245,44.85195 C20.0356,44.75575 22.75,47.411 22.75,50.7 C22.75,52.43095 21.99535,53.98185 20.8,55.0511 L20.8,57.2 L44.2,57.2 L44.2,55.0511 C43.0235,53.99875 42.2747,52.48035 42.25065,50.7832 C42.20645,47.6385 44.78045,44.94425 47.9245,44.85195 C51.2356,44.75575 53.95,47.411 53.95,50.7 C53.95,52.43095 53.19535,53.98185 52,55.0511 L52,57.2 L58.5,57.2 C62.08995,57.2 65,54.28995 65,50.7 L65,13.65 C65,10.06005 62.08995,7.15 58.5,7.15 Z" id="Path" stroke="url(#linearGradient-1)" stroke-width="3" stroke-linejoin="round"></path>
                <circle id="Oval" fill="#CD928D" cx="57.2" cy="35.75" r="1.95"></circle>
            </g>
        </g>
    </g>
</svg>