<?xml version="1.0" encoding="UTF-8"?>
<svg width="30px" height="30px" viewBox="0 0 30 30" version="1.1" xmlns="http://www.w3.org/2000/svg" xmlns:xlink="http://www.w3.org/1999/xlink">
    <!-- Generator: Sketch 52.5 (67469) - http://www.bohemiancoding.com/sketch -->
    <title>icons8-update_left_rotation</title>
    <desc>Created with Sketch.</desc>
    <defs>
        <radialGradient cx="106.88926%" cy="-4.27711355%" fx="106.88926%" fy="-4.27711355%" r="123.618354%" id="radialGradient-1">
            <stop stop-color="#ACAFB6" offset="0%"></stop>
            <stop stop-color="#747780" offset="100%"></stop>
        </radialGradient>
    </defs>
    <g id="政見" stroke="none" stroke-width="1" fill="none" fill-rule="evenodd">
        <g id="Artboard" transform="translate(-374.000000, -464.000000)">
            <g id="icons8-update_left_rotation" transform="translate(374.000000, 464.000000)">
                <g id="Group">
                    <path d="M29.9457831,15 C29.9457831,6.74698795 23.253012,0.0542168675 15,0.0542168675 C6.74698795,0.0542168675 0.0542168675,6.74698795 0.0542168675,15 C0.0542168675,23.253012 6.74698795,29.9457831 15,29.9457831 C23.253012,29.9457831 29.9457831,23.253012 29.9457831,15 Z" id="Path" fill="url(#radialGradient-1)"></path>
                    <path d="M26.2048193,18.8313253 C25.1144578,17.126506 24.0301205,15.4156627 22.939759,13.7108434 C22.7590361,13.4216867 22.3554217,13.4277108 22.1746988,13.7108434 C21.0783133,15.4096386 19.9819277,17.1144578 18.8855422,18.813253 C18.7650602,19 18.8072289,19.1746988 18.9156627,19.2951807 C18.9819277,19.3975904 19.0963855,19.4759036 19.2650602,19.4759036 C19.8433735,19.4759036 20.4216867,19.4759036 21,19.4819277 C18.3373494,23.7168675 11.8674699,24.1024096 8.8373494,19.7590361 C7.86746988,18.3674699 5.56626506,19.6987952 6.54819277,21.1024096 C8.69277108,24.1686747 12.2108434,25.9277108 15.9698795,25.5 C19.5903614,25.0843373 22.5120482,22.746988 23.9638554,19.4939759 C24.5843373,19.4939759 25.2048193,19.5 25.8253012,19.5 C26.1506024,19.5 26.3915663,19.1204819 26.2048193,18.8313253 Z" id="Path" fill="#FFFFFF"></path>
                </g>
                <path d="M23.1525046,9.04977602 C21.0209606,5.97504051 17.5242705,4.21114509 13.7820936,4.64003747 C10.1476914,5.06288911 7.22579965,7.45502126 5.80077868,10.7653455 C5.03438085,10.7653455 4.26798302,10.7593048 3.4955977,10.7593048 C3.17227362,10.7593048 2.9327743,11.1398713 3.11239879,11.4298267 C4.19613322,13.1393555 5.27388017,14.854925 6.3576146,16.5644538 C6.54322658,16.8544092 6.93840046,16.8483684 7.11802495,16.5644538 C8.20774687,14.854925 9.29746878,13.1514369 10.3871907,11.4479489 C10.5069404,11.260686 10.465028,11.0855046 10.3572533,10.9646899 C10.291391,10.8619973 10.1776288,10.7834678 10.0099793,10.7834678 C9.57888049,10.7834678 9.15376919,10.7834678 8.72267041,10.777427 C11.333213,6.44017732 17.8356196,6.01128494 20.8712735,10.4029013 C21.8412458,11.792271 24.1284643,10.4633087 23.1525046,9.04977602 Z" id="Path" fill="#FFFFFF"></path>
            </g>
        </g>
    </g>
</svg>