<?xml version="1.0" encoding="UTF-8"?>
<svg width="65px" height="59px" viewBox="0 0 65 59" version="1.1" xmlns="http://www.w3.org/2000/svg" xmlns:xlink="http://www.w3.org/1999/xlink">
    <!-- Generator: Sketch 52.4 (67378) - http://www.bohemiancoding.com/sketch -->
    <title>icons8-chat</title>
    <desc>Created with Sketch.</desc>
    <g id="政見" stroke="none" stroke-width="1" fill="none" fill-rule="evenodd">
        <g id="首頁-UI" transform="translate(-891.000000, -327.000000)">
            <g id="icons8-chat" transform="translate(891.000000, 327.000000)">
                <path d="M7.28448276,12.9439655 L44.6594828,12.9439655 C47.7413793,12.9439655 50.262931,15.4655172 50.262931,18.5474138 L50.262931,39.7284483 C50.262931,42.8103448 47.7413793,45.3318966 44.6594828,45.3318966 L13.3362069,45.3318966 L13.3362069,56.5387931 L1.68103448,45.3318966 L1.68103448,18.5474138 C1.68103448,15.4094828 4.20258621,12.9439655 7.28448276,12.9439655 Z" id="Path" fill="#E9E8F3"></path>
                <path d="M11.9353448,31.8836207 L11.9353448,13.2801724 L13.3922414,13.2801724 L44.7155172,13.2801724 L44.7155172,39.7284483 L19.7801724,39.7284483 C15.4094828,39.7284483 11.9353448,36.1982759 11.9353448,31.8836207 Z" id="Path" fill="#D8D4EA"></path>
                <path d="M13.3362069,58.2198276 C12.9439655,58.2198276 12.4956897,58.0517241 12.1594828,57.7715517 L0.504310345,46.5646552 C0.168103448,46.2284483 0,45.7801724 0,45.3318966 L0,18.5474138 C0,14.512931 3.25,11.262931 7.28448276,11.262931 L44.6594828,11.262931 C48.6939655,11.262931 51.9439655,14.512931 51.9439655,18.5474138 L51.9439655,39.7284483 C51.9439655,43.762931 48.6939655,47.012931 44.6594828,47.012931 L13.3362069,47.012931 C12.3836207,47.012931 11.6551724,46.2844828 11.6551724,45.3318966 C11.6551724,44.3793103 12.3836207,43.6508621 13.3362069,43.6508621 L44.6594828,43.6508621 C46.8448276,43.6508621 48.5818966,41.9137931 48.5818966,39.7284483 L48.5818966,18.5474138 C48.5818966,16.362069 46.8448276,14.625 44.6594828,14.625 L7.28448276,14.625 C5.09913793,14.625 3.36206897,16.362069 3.36206897,18.5474138 L3.36206897,44.6594828 L14.512931,55.362069 C15.1853448,55.9784483 15.1853448,57.0431034 14.5689655,57.7155172 C14.2327586,58.0517241 13.7844828,58.2198276 13.3362069,58.2198276 Z" id="Path" fill="#45536B"></path>
                <path d="M57.7155172,2.07327586 L23.1422414,2.07327586 C20.0603448,2.07327586 17.5387931,4.59482759 17.5387931,7.67672414 L17.5387931,28.8577586 C17.5387931,31.9396552 20.0603448,34.4612069 23.1422414,34.4612069 L57.2672414,34.4612069 L63.3189655,45.8922414 L63.3189655,7.67672414 C63.3189655,4.59482759 60.7974138,2.07327586 57.7155172,2.07327586 Z" id="Path" fill="#FFFFFF"></path>
                <path d="M63.3189655,47.5732759 C62.3663793,47.5732759 61.637931,46.8448276 61.637931,45.8922414 L61.637931,7.67672414 C61.637931,5.49137931 59.9008621,3.75431034 57.7155172,3.75431034 L23.1422414,3.75431034 C20.9568966,3.75431034 19.2198276,5.49137931 19.2198276,7.67672414 L19.2198276,28.8577586 C19.2198276,31.0431034 20.9568966,32.7801724 23.1422414,32.7801724 L57.2672414,32.7801724 C58.2198276,32.7801724 58.9482759,33.5086207 58.9482759,34.4612069 C58.9482759,35.4137931 58.2198276,36.1422414 57.2672414,36.1422414 L23.1422414,36.1422414 C19.1077586,36.1422414 15.8577586,32.8922414 15.8577586,28.8577586 L15.8577586,7.67672414 C15.8577586,3.64224138 19.1077586,0.392241379 23.1422414,0.392241379 L57.7155172,0.392241379 C61.75,0.392241379 65,3.64224138 65,7.67672414 L65,45.9482759 C65,46.8448276 64.2715517,47.5732759 63.3189655,47.5732759 Z" id="Path" fill="#45536B"></path>
                <circle id="Oval" fill="#9FBAD3" cx="28.1853448" cy="18.5474138" r="2.68965517"></circle>
                <circle id="Oval" fill="#9FBAD3" cx="39" cy="18.5474138" r="2.68965517"></circle>
                <circle id="Oval" fill="#9FBAD3" cx="49.8146552" cy="18.5474138" r="2.68965517"></circle>
            </g>
        </g>
    </g>
</svg>