<?xml version="1.0" encoding="utf-8"?>
<!-- Generator: Adobe Illustrator 21.1.0, SVG Export Plug-In . SVG Version: 6.00 Build 0)  -->
<svg version="1.1" id="Layer_1" xmlns="http://www.w3.org/2000/svg" xmlns:xlink="http://www.w3.org/1999/xlink" x="0px" y="0px" viewBox="0 0 128 128" style="enable-background:new 0 0 128 128;" xml:space="preserve">

<g>
	<g>
		<g>
			<path d="M15.9,47.5c-0.5,0.2-1,0.2-1.6,0.1c-1.6-0.3-2.7-1.9-2.4-3.5c2.1-11,7.8-21.3,16-28.9
				c1.2-1.1,3.1-1.1,4.2,0.2c1.1,1.2,1.1,3.1-0.2,4.2c-7.3,6.8-12.3,15.9-14.2,25.6C17.6,46.3,16.8,47.1,15.9,47.5z" style="fill:#C3DBEA;"/>
		</g>
	</g>
</g>
<g>
	<g>
		<g>
			<path d="M15.1,59.7c-0.3,0.1-0.5,0.1-0.8,0.2c-1.4,0.1-2.6-0.8-3-2c-0.1-0.3-0.1-0.5-0.2-0.8
				c-0.1-1.7,1.2-3.1,2.8-3.2c1.4-0.1,2.6,0.7,3,2c0.1,0.3,0.1,0.5,0.2,0.8l0,0.1C17.1,58.1,16.3,59.3,15.1,59.7z" style="fill:#C3DBEA;"/>
		</g>
	</g>
</g>
<g>
	<g>
		<g>
			<path d="M28.5,40.5c-0.7,0.2-1.5,0.2-2.2-0.1c-1.5-0.7-2.2-2.5-1.5-4c2.3-5.1,5.5-9.7,9.6-13.6
				c1.2-1.1,3.1-1.1,4.2,0.1c1.1,1.2,1.1,3.1-0.1,4.2c-3.5,3.3-6.3,7.3-8.2,11.7C29.9,39.7,29.2,40.2,28.5,40.5z" style="fill:#C3DBEA;"/>
		</g>
	</g>
</g>
<g>
	<g>
		<path d="M20.7,31.9c-0.5,0-1-0.1-1.5-0.4c-1.4-0.8-1.9-2.7-1.1-4.1c5.6-9.7,14.4-17.5,24.6-22c1.5-0.7,3.3,0,4,1.5
			c0.7,1.5,0,3.3-1.5,4c-9.1,4-16.9,10.9-21.9,19.5C22.8,31.4,21.8,31.9,20.7,31.9z" style="fill:#3F4A54;"/>
	</g>
</g>
<g>
	<g>
		<path d="M15.9,43.2c-0.3,0-0.6,0-0.8-0.1c-1.3-0.4-2.2-1.6-2.2-2.9c0-0.3,0-0.6,0.1-0.8c0.5-1.6,2.1-2.6,3.7-2.1
			c1.3,0.4,2.2,1.6,2.2,2.8c0,0.3,0,0.5-0.1,0.8l0,0.1C18.4,42.3,17.2,43.2,15.9,43.2z" style="fill:#3F4A54;"/>
	</g>
</g>
<g>
	<g>
		<path d="M35,29.5c-0.7,0-1.5-0.3-2.1-0.8c-1.2-1.1-1.3-3-0.1-4.2c3.9-4.1,8.4-7.3,13.5-9.6c1.5-0.7,3.3,0,4,1.5
			c0.7,1.5,0,3.3-1.5,4c-4.4,2-8.3,4.8-11.6,8.3C36.6,29.2,35.8,29.5,35,29.5z" style="fill:#3F4A54;"/>
	</g>
</g>
<g>
	<g>
		<path d="M74,124H54L59.8,8c0.1-2.2,2-4,4.2-4h0c2.2,0,4.1,1.8,4.2,4L74,124z" style="fill:#FFFFFF;"/>
	</g>
</g>
<g>
	<g>
		<path d="M59.5,75.1C59.5,75.1,59.6,75.1,59.5,75.1c2-1,4.3,0.4,4.4,2.6c0.6,13.6,1.1,28.4,1.3,32.5
			c0.1,2.1,1.9,3.8,4,3.8c2.3,0,4.1-1.9,4-4.2l-0.3-7.4L68.2,8c-0.1-2.2-2-4-4.2-4s-4.1,1.8-4.2,4l-3.4,68.7L59.5,75.1z" style="fill:#C3DBEA;"/>
	</g>
</g>
<g>
	<g>
		<path d="M74,127H54c-0.8,0-1.6-0.3-2.2-0.9c-0.6-0.6-0.9-1.4-0.8-2.2l2-47.1c0.1-1.7,1.4-2.9,3.1-2.9
			c1.7,0.1,2.9,1.5,2.9,3.1l-1.9,44h13.7l-2.6-55.7c-0.1-1.7,1.2-3.1,2.9-3.1c1.7-0.1,3.1,1.2,3.1,2.9l2.7,58.8
			c0,0.8-0.3,1.6-0.8,2.2C75.6,126.7,74.8,127,74,127z" style="fill:#3F4A54;"/>
	</g>
</g>
<g>
	<g>
		<path d="M94,127H74c-1.7,0-3-1.3-3-3s1.3-3,3-3h20c1.7,0,3,1.3,3,3S95.7,127,94,127z" style="fill:#3F4A54;"/>
	</g>
</g>
<g>
	<g>
		<path d="M109,127c-0.8,0-1.6-0.3-2.1-0.9c-0.6-0.6-0.9-1.3-0.9-2.1c0-0.2,0-0.4,0.1-0.6c0-0.2,0.1-0.4,0.2-0.6
			c0.1-0.2,0.2-0.3,0.3-0.5c0.1-0.2,0.2-0.3,0.4-0.4c1.1-1.1,3.1-1.1,4.2,0c0.6,0.6,0.9,1.3,0.9,2.1s-0.3,1.6-0.9,2.1
			c-0.1,0.1-0.3,0.3-0.5,0.4c-0.2,0.1-0.3,0.2-0.5,0.3c-0.2,0.1-0.4,0.1-0.6,0.2C109.4,127,109.2,127,109,127z" style="fill:#3F4A54;"/>
	</g>
</g>
<g>
	<g>
		<path d="M105.8,73.2L79,55.8c-5.3-3.5-8.7-9.3-9.1-15.7L68.2,8.2c-0.1-2.1-1.7-3.9-3.8-4.1c-2.4-0.3-4.5,1.6-4.7,4
			L58,40.2c-0.3,6.3-3.7,12.1-9,15.6L22.3,73.5c-1.8,1.2-2.5,3.4-1.7,5.4c1,2.2,3.7,3.1,5.8,2L55,66.2c5.7-2.9,12.4-2.9,18.1-0.1
			l28.7,14.5c2.1,1.1,4.8,0.2,5.8-2.1C108.4,76.6,107.6,74.3,105.8,73.2z" style="fill:#FFFFFF;"/>
	</g>
</g>
<g>
	<g>
		<path d="M55,69.2c-1.1,0-2.1-0.6-2.7-1.6c-0.8-1.5-0.2-3.3,1.3-4c6.5-3.3,14.3-3.4,20.9-0.1c1.5,0.7,2.1,2.6,1.3,4
			c-0.7,1.5-2.6,2.1-4,1.3c-4.8-2.4-10.6-2.4-15.4,0C55.9,69.1,55.4,69.2,55,69.2z" style="fill:#3F4A54;"/>
	</g>
</g>
<g>
	<g>
		<path d="M79,58.8c-0.6,0-1.1-0.2-1.6-0.5c-6.1-4-10-10.7-10.4-18c-0.1-1.7,1.2-3.1,2.8-3.2c1.6-0.1,3.1,1.2,3.2,2.8
			c0.3,5.4,3.2,10.4,7.7,13.3c1.4,0.9,1.8,2.8,0.9,4.2C81,58.3,80,58.8,79,58.8z" style="fill:#3F4A54;"/>
	</g>
</g>
<g>
	<g>
		<path d="M58,43.2c-0.1,0-0.1,0-0.2,0c-1.7-0.1-2.9-1.5-2.8-3.2l1.8-32.2c0.1-2,1-3.8,2.5-5.1c1.5-1.3,3.5-1.9,5.4-1.7
			c3.5,0.4,6.3,3.4,6.5,7L73,39.9c0.1,1.7-1.2,3.1-2.8,3.2c-1.6,0.1-3.1-1.2-3.2-2.8L65.2,8.3c0-0.7-0.5-1.3-1.1-1.3
			c-0.4,0-0.8,0.1-0.9,0.3c-0.1,0.1-0.4,0.4-0.4,0.9L61,40.4C60.9,42,59.6,43.2,58,43.2z" style="fill:#3F4A54;"/>
	</g>
</g>
<g>
	<g>
		<path d="M103.7,84.1c-1.1,0-2.2-0.3-3.3-0.8L69.9,67.9c-1.5-0.7-2.1-2.6-1.3-4c0.7-1.5,2.6-2.1,4-1.3l30.5,15.4
			c0.4,0.2,0.8,0.1,1,0.1c0.2-0.1,0.5-0.3,0.7-0.7c0.2-0.5,0-1.2-0.6-1.6L77.4,58.3c-1.4-0.9-1.8-2.8-0.9-4.2s2.8-1.8,4.2-0.9
			l26.8,17.4c3,2,4.2,5.9,2.8,9.1c-0.8,1.8-2.3,3.2-4.2,3.9C105.3,83.9,104.5,84.1,103.7,84.1z" style="fill:#3F4A54;"/>
	</g>
</g>
<g>
	<g>
		<path d="M24.5,84.3c-0.8,0-1.6-0.1-2.4-0.4c-1.9-0.7-3.4-2-4.2-3.9c-1.4-3.2-0.3-7.1,2.8-9.1l26.8-17.7
			c1.4-0.9,3.2-0.5,4.2,0.9c0.9,1.4,0.5,3.2-0.9,4.2L23.9,76c-0.6,0.4-0.8,1.1-0.6,1.6c0.2,0.4,0.5,0.6,0.7,0.7
			c0.2,0.1,0.6,0.1,1-0.1l30.4-15.6c1.5-0.8,3.3-0.2,4,1.3c0.8,1.5,0.2,3.3-1.3,4L27.8,83.5C26.7,84,25.6,84.3,24.5,84.3z" style="fill:#3F4A54;"/>
	</g>
</g>
<g>
	<g>
		<circle cx="64" cy="54" r="4" style="fill:#3F4A54;"/>
	</g>
</g>
</svg>
