<?xml version="1.0" encoding="utf-8"?>
<!-- Generator: Adobe Illustrator 21.1.0, SVG Export Plug-In . SVG Version: 6.00 Build 0)  -->
<svg version="1.1" id="Layer_1" xmlns="http://www.w3.org/2000/svg" xmlns:xlink="http://www.w3.org/1999/xlink" x="0px" y="0px" viewBox="0 0 128 128" style="enable-background:new 0 0 128 128;" xml:space="preserve">

<g>
	<g>
		<rect x="29" y="49" width="70" height="6" style="fill:#E9EEF4;"/>
	</g>
</g>
<g>
	<g>
		<path d="M107,32.3L64,23l-43,9.3V41c0,4.4,3.6,8,8,8h35h35c4.4,0,8-3.6,8-8V32.3z" style="fill:#676F77;"/>
	</g>
</g>
<g>
	<g>
		<path d="M64,114L64,114c-16.8,0-30.5-13.7-30.5-30.5V61h61c0,0-11.9,51.1-27.1,52.8C66.3,113.9,65.1,114,64,114z" style="fill:#FFFFFF;"/>
	</g>
</g>
<g>
	<g>
		<path d="M64,61l0.1,23c0,2.2,1.8,4,4,4l4.1,2.6V94l0,0c0,1.7-1.3,3.1-3,3.3h-3l0,0c-1.1,0-2.1,0.9-2.1,2.1L64,110.8
			c0,1.8,1.5,3.2,3.3,3c15.3-1.7,27.1-14.6,27.1-30.3V61H64z" style="fill:#9B8272;"/>
	</g>
</g>
<g>
	<g>
		<path d="M64,52L64,52c0-1.7-1.3-3-3-3H29v6h32C62.7,55,64,53.7,64,52z" style="fill:#FFFFFF;"/>
	</g>
</g>
<g>
	<g>
		<circle cx="50" cy="77" r="7" style="fill:#FFFFFF;"/>
	</g>
</g>
<g>
	<g>
		<path d="M53,77c0,1.7-1.3,3-3,3s-3-1.3-3-3v-2h6V77z" style="fill:#444B54;"/>
	</g>
</g>
<g>
	<g>
		<circle cx="78" cy="77" r="7" style="fill:#FFFFFF;"/>
	</g>
</g>
<g>
	<g>
		<path d="M84,77H44c-8.3,0-15-6.7-15-15l0,0v-7h70v7l0,0C99,70.3,92.3,77,84,77z" style="fill:#676F77;"/>
	</g>
</g>
<g>
	<g>
		<path d="M74,94H54c-1.7,0-3-1.3-3-3s1.3-3,3-3h20c1.7,0,3,1.3,3,3S75.7,94,74,94z" style="fill:#444B54;"/>
	</g>
</g>
<g>
	<g>
		<path d="M81,77c0,1.7-1.3,3-3,3s-3-1.3-3-3v-2h6V77z" style="fill:#444B54;"/>
	</g>
</g>
<g>
	<g>
		<path d="M107,32.3L64,23l0,0v20c0,3.3-2.7,6-6,6l0,0h41c4.4,0,8-3.6,8-8V32.3z" style="fill:#444B54;"/>
	</g>
</g>
<g>
	<g>
		<g>
			<rect x="55" y="31" width="6" height="6" style="fill:#FFFFFF;"/>
		</g>
	</g>
	<g>
		<g>
			<rect x="67" y="31" width="6" height="6" style="fill:#FFFFFF;"/>
		</g>
	</g>
</g>
<g>
	<g>
		<g>
			<rect x="61" y="37" width="6" height="6" style="fill:#FFFFFF;"/>
		</g>
	</g>
</g>
<path d="M29,55v6h32c1.7,0,3,1.3,3,3v13h20c8.3,0,15-6.7,15-15v-1v-6H29z" style="fill:#444B54;"/>
</svg>
