<?xml version="1.0" encoding="UTF-8"?>
<svg width="100px" height="100px" viewBox="0 0 100 100" version="1.1" xmlns="http://www.w3.org/2000/svg" xmlns:xlink="http://www.w3.org/1999/xlink">
    <!-- Generator: Sketch 52.3 (67297) - http://www.bohemiancoding.com/sketch -->
    <title>icons8-museum</title>
    <desc>Created with Sketch.</desc>
    <g id="政見" stroke="none" stroke-width="1" fill="none" fill-rule="evenodd">
        <g id="選擇議題-UI-" transform="translate(-463.000000, -393.000000)">
            <g id="Group-5" transform="translate(429.000000, 353.000000)">
                <g id="icons8-museum" transform="translate(34.000000, 40.000000)">
                    <path d="M25.4464286,78.5714286 L25.4464286,33.9285714 C25.4464286,29.0178571 29.4642857,25 34.375,25 L20.9821429,25 L7.58928571,25 C12.5,25 16.5178571,29.0178571 16.5178571,33.9285714 L16.5178571,78.5714286 L16.5178571,78.9285714 C16.5178571,83.8392857 7.58928571,87.8571429 7.58928571,87.8571429 L20.9821429,87.8571429 L20.9821429,87.5 L34.375,87.5 C34.375,87.5 25.4464286,83.4821429 25.4464286,78.5714286 Z" id="Path" fill="#FFFFFF"></path>
                    <path d="M56.6964286,78.5714286 L56.6964286,33.9285714 C56.6964286,29.0178571 60.7142857,25 65.625,25 L52.2321429,25 L38.8392857,25 C43.75,25 47.7678571,29.0178571 47.7678571,33.9285714 L47.7678571,78.5714286 L47.7678571,78.9285714 C47.7678571,83.8392857 38.8392857,87.8571429 38.8392857,87.8571429 L52.2321429,87.8571429 L52.2321429,87.5 L65.625,87.5 C65.625,87.5 56.6964286,83.4821429 56.6964286,78.5714286 Z" id="Path" fill="#FFFFFF"></path>
                    <path d="M83.4821429,78.5714286 L83.4821429,33.9285714 C83.4821429,29.0178571 87.5,25 92.4107143,25 L79.0178571,25 L65.625,25 C70.5357143,25 74.5535714,29.0178571 74.5535714,33.9285714 L74.5535714,78.5714286 L74.5535714,78.9285714 C74.5535714,83.8392857 65.625,87.8571429 65.625,87.8571429 L79.0178571,87.8571429 L79.0178571,87.5 L92.4107143,87.5 C92.4107143,87.5 83.4821429,83.4821429 83.4821429,78.5714286 Z" id="Path" fill="#FFFFFF"></path>
                    <polygon id="Path" fill="#9FBAD3" points="96.875 96.4285714 3.125 96.4285714 7.58928571 87.5 92.4107143 87.5"></polygon>
                    <rect id="Rectangle" fill="#9FBAD3" x="7.58928571" y="16.0714286" width="84.8214286" height="8.92857143"></rect>
                    <polyline id="Path" fill="#FFFFFF" points="7.58928571 16.0714286 52.2321429 3.57142857 92.4107143 16.0714286"></polyline>
                    <path d="M96.875,99.1071429 L3.125,99.1071429 C1.60714286,99.1071429 0.446428571,97.9464286 0.446428571,96.4285714 C0.446428571,94.9107143 1.60714286,93.75 3.125,93.75 L96.875,93.75 C98.3928571,93.75 99.5535714,94.9107143 99.5535714,96.4285714 C99.5535714,97.9464286 98.3928571,99.1071429 96.875,99.1071429 Z" id="Path" fill="#454B54"></path>
                    <path d="M92.4107143,90.1785714 L7.58928571,90.1785714 C6.07142857,90.1785714 4.91071429,89.0178571 4.91071429,87.5 C4.91071429,85.9821429 6.07142857,84.8214286 7.58928571,84.8214286 L92.4107143,84.8214286 C93.9285714,84.8214286 95.0892857,85.9821429 95.0892857,87.5 C95.0892857,89.0178571 93.9285714,90.1785714 92.4107143,90.1785714 Z" id="Path" fill="#454B54"></path>
                    <path d="M34.375,90.1785714 C27.9464286,90.1785714 22.7678571,85 22.7678571,78.5714286 L22.7678571,33.9285714 C22.7678571,27.5 27.9464286,22.3214286 34.375,22.3214286 C35.8928571,22.3214286 37.0535714,23.4821429 37.0535714,25 C37.0535714,26.5178571 35.8928571,27.6785714 34.375,27.6785714 C30.8928571,27.6785714 28.125,30.4464286 28.125,33.9285714 L28.125,78.5714286 C28.125,82.0535714 30.8928571,84.8214286 34.375,84.8214286 C35.8928571,84.8214286 37.0535714,85.9821429 37.0535714,87.5 C37.0535714,89.0178571 35.8928571,90.1785714 34.375,90.1785714 Z" id="Path" fill="#454B54"></path>
                    <path d="M16.5178571,81.25 C15,81.25 13.8392857,80.0892857 13.8392857,78.5714286 L13.8392857,33.9285714 C13.8392857,30.4464286 11.0714286,27.6785714 7.58928571,27.6785714 C6.07142857,27.6785714 4.91071429,26.5178571 4.91071429,25 C4.91071429,23.4821429 6.07142857,22.3214286 7.58928571,22.3214286 C14.0178571,22.3214286 19.1964286,27.5 19.1964286,33.9285714 L19.1964286,78.5714286 C19.1964286,80.0892857 18.0357143,81.25 16.5178571,81.25 Z" id="Path" fill="#454B54"></path>
                    <path d="M65.625,90.1785714 C64.9107143,90.1785714 64.1964286,89.9107143 63.75,89.375 C63.2142857,88.8392857 62.9464286,88.2142857 62.9464286,87.5 C62.9464286,86.7857143 63.2142857,86.0714286 63.75,85.625 C64.7321429,84.6428571 66.5178571,84.6428571 67.5,85.625 C68.0357143,86.1607143 68.3035714,86.7857143 68.3035714,87.5 C68.3035714,88.2142857 68.0357143,88.9285714 67.5,89.375 C67.0535714,89.9107143 66.3392857,90.1785714 65.625,90.1785714 Z" id="Path" fill="#454B54"></path>
                    <path d="M65.625,90.1785714 C59.1964286,90.1785714 54.0178571,85 54.0178571,78.5714286 L54.0178571,33.9285714 C54.0178571,27.5 59.1964286,22.3214286 65.625,22.3214286 C67.1428571,22.3214286 68.3035714,23.4821429 68.3035714,25 C68.3035714,26.5178571 67.1428571,27.6785714 65.625,27.6785714 C62.1428571,27.6785714 59.375,30.4464286 59.375,33.9285714 L59.375,78.5714286 C59.375,82.0535714 62.1428571,84.8214286 65.625,84.8214286 C67.1428571,84.8214286 68.3035714,85.9821429 68.3035714,87.5 C68.3035714,89.0178571 67.1428571,90.1785714 65.625,90.1785714 Z" id="Path" fill="#454B54"></path>
                    <path d="M92.4107143,90.1785714 C91.6964286,90.1785714 90.9821429,89.9107143 90.5357143,89.375 C90,88.8392857 89.7321429,88.2142857 89.7321429,87.5 C89.7321429,86.7857143 90,86.0714286 90.5357143,85.625 C91.5178571,84.6428571 93.3035714,84.6428571 94.2857143,85.625 C94.8214286,86.1607143 95.0892857,86.7857143 95.0892857,87.5 C95.0892857,88.2142857 94.8214286,88.9285714 94.2857143,89.375 C93.8392857,89.9107143 93.125,90.1785714 92.4107143,90.1785714 Z" id="Path" fill="#454B54"></path>
                    <path d="M92.4107143,90.1785714 C85.9821429,90.1785714 80.8035714,85 80.8035714,78.5714286 L80.8035714,33.9285714 C80.8035714,27.5 85.9821429,22.3214286 92.4107143,22.3214286 C93.9285714,22.3214286 95.0892857,23.4821429 95.0892857,25 C95.0892857,26.5178571 93.9285714,27.6785714 92.4107143,27.6785714 C88.9285714,27.6785714 86.1607143,30.4464286 86.1607143,33.9285714 L86.1607143,78.5714286 C86.1607143,82.0535714 88.9285714,84.8214286 92.4107143,84.8214286 C93.9285714,84.8214286 95.0892857,85.9821429 95.0892857,87.5 C95.0892857,89.0178571 93.9285714,90.1785714 92.4107143,90.1785714 Z" id="Path" fill="#454B54"></path>
                    <path d="M74.5535714,81.25 C73.0357143,81.25 71.875,80.0892857 71.875,78.5714286 L71.875,33.9285714 C71.875,30.4464286 69.1071429,27.6785714 65.625,27.6785714 C64.1071429,27.6785714 62.9464286,26.5178571 62.9464286,25 C62.9464286,23.4821429 64.1071429,22.3214286 65.625,22.3214286 C72.0535714,22.3214286 77.2321429,27.5 77.2321429,33.9285714 L77.2321429,78.5714286 C77.2321429,80.0892857 76.0714286,81.25 74.5535714,81.25 Z" id="Path" fill="#454B54"></path>
                    <path d="M7.58928571,27.6785714 C6.07142857,27.6785714 4.91071429,26.5178571 4.91071429,25 L4.91071429,16.0714286 C4.91071429,14.5535714 6.07142857,13.3928571 7.58928571,13.3928571 C9.10714286,13.3928571 10.2678571,14.5535714 10.2678571,16.0714286 L10.2678571,25 C10.2678571,26.5178571 9.10714286,27.6785714 7.58928571,27.6785714 Z" id="Path" fill="#454B54"></path>
                    <path d="M38.8392857,27.6785714 L21.875,27.6785714 C20.3571429,27.6785714 19.1964286,26.5178571 19.1964286,25 C19.1964286,23.4821429 20.3571429,22.3214286 21.875,22.3214286 L38.8392857,22.3214286 C40.3571429,22.3214286 41.5178571,23.4821429 41.5178571,25 C41.5178571,26.5178571 40.3571429,27.6785714 38.8392857,27.6785714 Z" id="Path" fill="#454B54"></path>
                    <path d="M65.625,27.6785714 L53.125,27.6785714 C51.6071429,27.6785714 50.4464286,26.5178571 50.4464286,25 C50.4464286,23.4821429 51.6071429,22.3214286 53.125,22.3214286 L65.625,22.3214286 C67.1428571,22.3214286 68.3035714,23.4821429 68.3035714,25 C68.3035714,26.5178571 67.1428571,27.6785714 65.625,27.6785714 Z" id="Path" fill="#454B54"></path>
                    <path d="M92.4107143,27.6785714 L79.9107143,27.6785714 C78.3928571,27.6785714 77.2321429,26.5178571 77.2321429,25 C77.2321429,23.4821429 78.3928571,22.3214286 79.9107143,22.3214286 L89.7321429,22.3214286 L89.7321429,18.0357143 L52.2321429,6.33928571 L8.30357143,18.6607143 C6.875,19.0178571 5.44642857,18.2142857 5,16.7857143 C4.64285714,15.3571429 5.44642857,13.8392857 6.875,13.4821429 L51.5178571,0.982142857 C52.0535714,0.803571429 52.5,0.892857143 53.0357143,0.982142857 L93.2142857,13.4821429 C94.375,13.8392857 95.0892857,14.9107143 95.0892857,16.0714286 L95.0892857,25 C95.0892857,26.5178571 93.9285714,27.6785714 92.4107143,27.6785714 Z" id="Path" fill="#454B54"></path>
                    <path d="M91.9642857,18.75 L7.58928571,18.75 C6.07142857,18.75 4.91071429,17.5892857 4.91071429,16.0714286 C4.91071429,14.5535714 6.07142857,13.3928571 7.58928571,13.3928571 L91.9642857,13.3928571 C93.4821429,13.3928571 94.6428571,14.5535714 94.6428571,16.0714286 C94.6428571,17.5892857 93.4821429,18.75 91.9642857,18.75 Z" id="Path" fill="#454B54"></path>
                    <path d="M47.7678571,81.25 C46.25,81.25 45.0892857,80.0892857 45.0892857,78.5714286 L45.0892857,33.9285714 C45.0892857,30.4464286 42.3214286,27.6785714 38.8392857,27.6785714 C37.3214286,27.6785714 36.1607143,26.5178571 36.1607143,25 C36.1607143,23.4821429 37.3214286,22.3214286 38.8392857,22.3214286 C45.2678571,22.3214286 50.4464286,27.5 50.4464286,33.9285714 L50.4464286,78.5714286 C50.4464286,80.0892857 49.2857143,81.25 47.7678571,81.25 Z" id="Path" fill="#454B54"></path>
                </g>
            </g>
        </g>
    </g>
</svg>