<?xml version="1.0" encoding="UTF-8"?>
<svg width="100px" height="83px" viewBox="0 0 100 83" version="1.1" xmlns="http://www.w3.org/2000/svg" xmlns:xlink="http://www.w3.org/1999/xlink">
    <!-- Generator: Sketch 52.3 (67297) - http://www.bohemiancoding.com/sketch -->
    <title>icons8-bulldozer</title>
    <desc>Created with Sketch.</desc>
    <g id="政見" stroke="none" stroke-width="1" fill="none" fill-rule="evenodd">
        <g id="選擇議題-UI-" transform="translate(-670.000000, -402.000000)">
            <g id="Group-6" transform="translate(636.000000, 353.000000)">
                <g id="icons8-bulldozer" transform="translate(34.000000, 49.000000)">
                    <path d="M16.9724771,22.7522936 L16.9724771,3.02752294 L43.2110092,3.02752294 C50.2752294,3.02752294 56.4220183,7.98165138 57.7981651,14.8623853 L68.0733945,69.266055 L16.9724771,69.1743119 L16.9724771,22.7522936" id="Path" fill="#98BED8"></path>
                    <path d="M28.0733945,37.4311927 C28.0733945,40.9174312 30.5504587,43.9449541 34.0366972,44.6788991 L66.5137615,56.3302752 L64.7706422,48.8990826 L57.7981651,14.9541284 C56.4220183,8.0733945 50.3669725,3.11926606 43.2110092,3.11926606 L28.0733945,3.11926606 L28.0733945,35.412844 L28.0733945,37.4311927 Z" id="Path" fill="#FFFFFF"></path>
                    <path d="M8.44036697,69.3577982 L4.67889908,69.3577982 C3.85321101,69.3577982 3.21100917,68.7155963 3.21100917,67.8899083 L3.21100917,24.6788991 C3.21100917,21.6513761 5.68807339,19.1743119 8.80733945,19.1743119 C11.3761468,19.1743119 13.6697248,21.0091743 14.2201835,23.4862385 L20.8256881,53.2110092" id="Path" fill="#98BED8"></path>
                    <ellipse id="Oval" fill="#FFFFFF" cx="56.2385321" cy="66.6055046" rx="12.9357798" ry="12.8440367"></ellipse>
                    <path d="M56.2385321,82.293578 C47.5229358,82.293578 40.5504587,75.3211009 40.5504587,66.6972477 C40.5504587,58.0733945 47.6146789,51.1009174 56.2385321,51.1009174 C64.8623853,51.1009174 71.9266055,58.0733945 71.9266055,66.6972477 C71.9266055,75.3211009 64.9541284,82.293578 56.2385321,82.293578 Z M56.2385321,56.5137615 C50.6422018,56.5137615 46.0550459,61.1009174 46.0550459,66.6055046 C46.0550459,72.1100917 50.6422018,76.6972477 56.2385321,76.6972477 C61.8348624,76.6972477 66.4220183,72.1100917 66.4220183,66.6055046 C66.4220183,61.1009174 61.9266055,56.5137615 56.2385321,56.5137615 Z" id="Shape" fill="#454B54" fill-rule="nonzero"></path>
                    <ellipse id="Oval" fill="#FFFFFF" cx="21.3761468" cy="66.6055046" rx="12.9357798" ry="12.8440367"></ellipse>
                    <path d="M21.3761468,82.293578 C12.6605505,82.293578 5.68807339,75.3211009 5.68807339,66.6972477 C5.68807339,58.0733945 12.7522936,51.1009174 21.3761468,51.1009174 C30,51.1009174 37.0642202,58.0733945 37.0642202,66.6972477 C37.0642202,75.3211009 30.0917431,82.293578 21.3761468,82.293578 Z M21.3761468,56.5137615 C15.7798165,56.5137615 11.1926606,61.1009174 11.1926606,66.6055046 C11.1926606,72.1100917 15.7798165,76.6972477 21.3761468,76.6972477 C26.9724771,76.6972477 31.559633,72.1100917 31.559633,66.6055046 C31.559633,61.1009174 27.0642202,56.5137615 21.3761468,56.5137615 Z" id="Shape" fill="#454B54" fill-rule="nonzero"></path>
                    <path d="M8.44036697,72.1100917 L4.67889908,72.1100917 C2.3853211,72.1100917 0.458715596,70.1834862 0.458715596,67.8899083 L0.458715596,24.6788991 C0.458715596,20.0917431 4.22018349,16.4220183 8.80733945,16.4220183 C12.7522936,16.4220183 16.0550459,19.0825688 16.9724771,22.9357798 L23.5779817,52.6605505 C23.9449541,54.1284404 22.9357798,55.5963303 21.4678899,55.9633028 C20,56.3302752 18.5321101,55.3211009 18.1651376,53.853211 L11.559633,24.1284404 C11.2844037,22.8440367 10.0917431,21.9266055 8.80733945,21.9266055 C7.24770642,21.9266055 5.96330275,23.2110092 5.96330275,24.6788991 L5.96330275,66.6055046 L8.44036697,66.6055046 C10,66.6055046 11.1926606,67.7981651 11.1926606,69.3577982 C11.1926606,70.9174312 9.90825688,72.1100917 8.44036697,72.1100917 Z" id="Path" fill="#454B54"></path>
                    <path d="M43.3027523,72.1100917 L34.4036697,72.1100917 C32.8440367,72.1100917 31.6513761,70.9174312 31.6513761,69.3577982 C31.6513761,67.7981651 32.8440367,66.6055046 34.4036697,66.6055046 L43.3027523,66.6055046 C44.8623853,66.6055046 46.0550459,67.7981651 46.0550459,69.3577982 C46.0550459,70.9174312 44.7706422,72.1100917 43.3027523,72.1100917 Z" id="Path" fill="#454B54"></path>
                    <path d="M60.8256881,33.6697248 C59.5412844,33.6697248 58.3486239,32.7522936 58.1651376,31.4678899 L55.0458716,15.412844 C53.9449541,9.81651376 48.9908257,5.77981651 43.2110092,5.77981651 L19.7247706,5.77981651 L19.7247706,13.5779817 C19.7247706,15.1376147 18.5321101,16.3302752 16.9724771,16.3302752 C15.412844,16.3302752 14.2201835,15.1376147 14.2201835,13.5779817 L14.2201835,3.02752294 C14.2201835,1.46788991 15.412844,0.275229358 16.9724771,0.275229358 L43.2110092,0.275229358 C51.559633,0.275229358 58.8073394,6.23853211 60.4587156,14.3119266 L63.5779817,30.2752294 C63.853211,31.7431193 62.8440367,33.2110092 61.3761468,33.4862385 C61.1926606,33.5779817 61.0091743,33.6697248 60.8256881,33.6697248 Z" id="Path" fill="#454B54"></path>
                    <path d="M68.3486239,64.7706422 C67.1559633,64.7706422 66.146789,64.0366972 65.6880734,62.8440367 C63.7614679,56.8807339 58.7155963,52.3853211 52.5688073,51.1926606 L33.4862385,47.3394495 C28.8073394,46.4220183 25.3211009,42.2018349 25.3211009,37.4311927 L25.3211009,29.6330275 C25.3211009,28.0733945 26.5137615,26.8807339 28.0733945,26.8807339 C29.6330275,26.8807339 30.8256881,28.0733945 30.8256881,29.6330275 L30.8256881,37.4311927 C30.8256881,39.6330275 32.3853211,41.559633 34.587156,41.9266055 L53.6697248,45.7798165 C61.7431193,47.4311927 68.440367,53.3027523 71.0091743,61.1926606 C71.4678899,62.6605505 70.6422018,64.2201835 69.266055,64.6788991 C68.8990826,64.7706422 68.6238532,64.7706422 68.3486239,64.7706422 Z" id="Path" fill="#454B54"></path>
                    <path d="M28.0733945,32.3853211 C26.5137615,32.3853211 25.3211009,31.1926606 25.3211009,29.6330275 L25.3211009,12.2018349 C25.3211009,10.6422018 26.5137615,9.44954128 28.0733945,9.44954128 C29.6330275,9.44954128 30.8256881,10.6422018 30.8256881,12.2018349 L30.8256881,29.6330275 C30.8256881,31.1009174 29.6330275,32.3853211 28.0733945,32.3853211 Z" id="Path" fill="#454B54"></path>
                    <path d="M83.3027523,59.8165138 C82.6605505,59.8165138 81.9266055,59.5412844 81.3761468,59.0825688 L65.412844,43.7614679 L15.1376147,28.8990826 C13.6697248,28.440367 12.8440367,26.9724771 13.3027523,25.5045872 C13.7614679,24.0366972 15.2293578,23.2110092 16.6972477,23.6697248 L67.6146789,38.7155963 C68.0733945,38.8073394 68.440367,39.0825688 68.7155963,39.3577982 L85.2293578,55.0458716 C86.3302752,56.0550459 86.3302752,57.7981651 85.3211009,58.8990826 C84.7706422,59.5412844 84.0366972,59.8165138 83.3027523,59.8165138 Z" id="Path" fill="#454B54"></path>
                    <path d="M96.7889908,79.5412844 L88.7155963,79.5412844 C79.6330275,79.5412844 74.4036697,69.3577982 79.6330275,62.1100917 L89.3577982,48.6238532 L90.0917431,48.6238532 L93.0275229,79.5412844 L96.7889908,79.5412844 Z" id="Path" fill="#98BED8"></path>
                    <path d="M96.7889908,82.293578 L88.7155963,82.293578 C83.4862385,82.293578 78.7155963,79.4495413 76.3302752,74.7706422 C73.9449541,70.1834862 74.4036697,64.6788991 77.4311927,60.4587156 L87.1559633,46.9724771 C87.706422,46.2385321 88.5321101,45.8715596 89.3577982,45.8715596 L90.0917431,45.8715596 C91.4678899,45.8715596 92.6605505,46.9724771 92.8440367,48.3486239 L95.5963303,76.7889908 L96.7889908,76.7889908 C98.3486239,76.7889908 99.5412844,77.9816514 99.5412844,79.5412844 C99.5412844,81.1009174 98.3486239,82.293578 96.7889908,82.293578 Z M87.9816514,55.2293578 L81.9266055,63.6697248 C80.0917431,66.2385321 79.8165138,69.4495413 81.2844037,72.2018349 C82.7522936,75.0458716 85.5045872,76.6972477 88.7155963,76.6972477 L90,76.6972477 L87.9816514,55.2293578 Z" id="Shape" fill="#454B54" fill-rule="nonzero"></path>
                </g>
            </g>
        </g>
    </g>
</svg>