<?xml version="1.0" encoding="utf-8"?>
<!-- Generator: Adobe Illustrator 21.0.2, SVG Export Plug-In . SVG Version: 6.00 Build 0)  -->
<svg xmlns="http://www.w3.org/2000/svg" xmlns:xlink="http://www.w3.org/1999/xlink" version="1.1" id="Слой_1" x="0px" y="0px" viewBox="0 0 128 128" style="enable-background:new 0 0 128 128;" xml:space="preserve">
<path style="fill:#968377;" d="M104.6,62.5c-0.7-5.4-2.5-10.4-5-14.8l6.5-7.3c1.8-2,2.7-4.6,2.5-7.2c-0.2-2.6-1.3-5.1-3.3-6.9  c-1.8-1.6-4.2-2.5-6.7-2.5c-2.8,0-5.6,1.2-7.5,3.3l-5.5,6.2C79.4,29.3,71.9,27,64,27c-7.9,0-15.4,2.3-21.7,6.2L36.8,27  c-1.9-2.1-4.6-3.3-7.5-3.3c-2.5,0-4.8,0.9-6.7,2.5c-2,1.8-3.2,4.2-3.3,6.9c-0.1,2.7,0.8,5.2,2.5,7.2l6.5,7.3  c-2.6,4.5-4.3,9.5-5,14.8L18.2,101L64,121l45.8-20L104.6,62.5"/>
<path style="fill:#7A6C63;" d="M98.8,23.8c-0.9,0-1.8,0.1-2.8,0.4c-1.9,0.5-3.5,1.7-4.8,3.1l-5.4,6c0,0-0.1-0.1-0.1-0.1l-0.1,0.1  C79.4,29.3,71.9,27,64,27c0,0,0,0,0,0c0,0,0,0,0,0c0,0,0,0,0,0c0,0,0,0,0,0c0,0,0,0,0,0c0,0,0,0,0,0c0,0,0,0,0,0c0,0,0,0,0,0  c0,0,0,0,0,0h0c0,0,0,0,0,0c0,0,0,0,0,0c0,0,0,0,0,0c0,0,0,0,0,0c-0.3,0-0.6,0-0.8,0c0,0,0,0,0,0c0,0,0,0,0,0c0,0,0,0,0,0  c0,0,0,0,0,0c-1.7,0-3.3,0.2-4.9,0.4c-1.2,0.2-2.3,0.4-3.5,0.7c15.2,1.1,27.7,7.4,35.2,23.7c4.4,9.4,5.8,19.8,4.6,30.1l-3.3,27.2  l11.3-4.9l7.4-3.2l-5.2-38.5c-0.7-5.4-2.5-10.4-5-14.8l6.5-7.3c1.8-2,2.7-4.6,2.5-7.2c-0.2-2.6-1.3-5.1-3.3-6.9  c-1.2-1.1-2.7-1.8-4.3-2.2C100.2,23.9,99.5,23.8,98.8,23.8"/>
<path style="fill:#B7A59F;" d="M49,44l-2.1,2.4c-8.1,9.1-11.1,21.6-8.2,33.5L44,101l20,20l20-20l5.3-21.1c3-11.8-0.1-24.3-8.2-33.5  L79,44C71,35,57,35,49,44z"/>
<path style="fill:#454B54;" d="M109.8,104c-1.5,0-2.8-1.1-3-2.6l-5.2-38.5C101,58,99.4,53.4,97,49.2c-0.6-1.1-0.5-2.5,0.4-3.5  l6.5-7.3c1.2-1.4,1.9-3.2,1.8-5.1c-0.1-1.9-0.9-3.6-2.3-4.8c-1.3-1.2-2.9-1.8-4.7-1.8c-2,0-3.9,0.8-5.2,2.3L88,35.2  c-1,1.1-2.6,1.3-3.8,0.5C78.1,32,71.1,30,64,30s-14.1,2-20.1,5.8c-1.2,0.8-2.9,0.5-3.8-0.5L34.6,29c-1.3-1.5-3.2-2.3-5.2-2.3  c-1.7,0-3.4,0.6-4.7,1.8c-1.4,1.2-2.2,3-2.3,4.8c-0.1,1.9,0.5,3.7,1.8,5.1l6.5,7.3c0.9,1,1,2.4,0.4,3.5c-2.4,4.3-4,8.9-4.7,13.7  l-5.2,38.5c-0.2,1.6-1.7,2.8-3.4,2.6c-1.6-0.2-2.8-1.7-2.6-3.4l5.2-38.5c0.7-4.9,2.1-9.6,4.4-14l-5.1-5.7c-2.3-2.6-3.5-5.9-3.3-9.4  c0.2-3.5,1.7-6.7,4.3-9c2.4-2.1,5.5-3.3,8.7-3.3c3.7,0,7.2,1.6,9.7,4.3l3.9,4.4c6.4-3.5,13.6-5.4,21-5.4s14.6,1.9,21.1,5.4L89,25  c2.5-2.8,6-4.3,9.7-4.3c3.2,0,6.3,1.2,8.7,3.3c2.6,2.3,4.1,5.5,4.3,9c0.2,3.5-1,6.8-3.3,9.4l-5.1,5.7c2.2,4.4,3.7,9.1,4.4,14  l5.2,38.5c0.2,1.6-0.9,3.2-2.6,3.4C110.1,104,109.9,104,109.8,104z"/>
<path style="fill:none;stroke:#454B54;stroke-width:6;stroke-linecap:round;stroke-linejoin:round;stroke-miterlimit:10;" d="  M89.4,110.5"/>
<path style="fill:#454B54;" d="M104.6,65.5c-1.5,0-2.8-1.1-3-2.6c-1.1-8-4.6-15.4-10.3-21.2c-1.1-1.2-1.1-3.1,0.1-4.2  c1.2-1.1,3.1-1.1,4.2,0.1c6.5,6.8,10.6,15.3,11.9,24.6c0.2,1.6-0.9,3.2-2.6,3.4C104.9,65.5,104.7,65.5,104.6,65.5z"/>
<path style="fill:#454B54;" d="M23.4,65.5c-0.1,0-0.3,0-0.4,0c-1.6-0.2-2.8-1.7-2.6-3.4c1.2-9.2,5.3-17.7,11.7-24.4  c1.1-1.2,3-1.2,4.2-0.1c1.2,1.1,1.2,3,0.1,4.2c-5.5,5.8-9,13.1-10.1,21.1C26.2,64.4,24.9,65.5,23.4,65.5z"/>
<path style="fill:#E5C6B5;" d="M64,69.1c-3.1,0-5.8,1.8-7.1,4.5L45.6,97.5c-1,2.2-1,4.7,0.1,6.9l3.8,7.6c2.7,5.5,8.3,8.9,14.5,8.9  c6.1,0,11.7-3.5,14.5-8.9l3.8-7.6c1.1-2.2,1.1-4.7,0.1-6.9L71.1,73.6C69.8,70.9,67.1,69.1,64,69.1"/>
<path style="fill:#5D626C;" d="M62.9,112.9c-2.8-0.3-5.1-2.2-6.4-4.7l-3.7-7.4c4.4-9.4,17.8-9.4,22.2,0l-3.8,7.6  C69.8,111.6,66.5,113.4,62.9,112.9"/>
<path style="fill:#BAA195;" d="M64,69.1L69.4,86c1,3.2,1.5,6.6,1.5,9.9c1.7,1.2,3.1,2.8,4.1,4.9l-3.8,7.6c-1,2.2-2.8,3.7-5,4.3  c-1.1,1.8-2.4,3.5-4,5.1c-1.1,1.2-2.1,2.1-2.9,2.4c1.5,0.4,3.1,0.7,4.7,0.7c6.1,0,11.7-3.5,14.5-8.9l3.8-7.6c0.7-1.5,1-3.1,0.8-4.6  c-0.1-0.8-0.3-1.5-0.7-2.3l0,0L71.1,73.6c-1.1-2.4-3.4-4-6-4.4C64.8,69.1,64.4,69.1,64,69.1C64,69.1,64,69.1,64,69.1  C64,69.1,64,69.1,64,69.1C64,69.1,64,69.1,64,69.1C64,69.1,64,69.1,64,69.1C64,69.1,64,69.1,64,69.1"/>
<path style="fill:#4D515A;" d="M70.9,95.9c0,5.9-1.6,11.8-4.8,16.8c2.2-0.6,4.1-2.1,5-4.3l3.8-7.6C74,98.7,72.6,97.1,70.9,95.9"/>
<path style="fill:#454B54;" d="M64,124c-7.3,0-13.9-4.1-17.2-10.6l-3.8-7.6c-1.5-3-1.5-6.5-0.1-9.5l11.2-23.9  c1.8-3.8,5.6-6.2,9.8-6.2s8.1,2.5,9.8,6.2l11.2,23.9c1.4,3,1.4,6.5-0.1,9.5l-3.8,7.6C77.9,119.9,71.3,124,64,124z M64,72.1  c-1.9,0-3.6,1.1-4.4,2.8L48.3,98.8c-0.6,1.4-0.6,2.9,0.1,4.3l3.8,7.6c2.2,4.5,6.8,7.3,11.8,7.3s9.5-2.8,11.8-7.3l3.8-7.6  c0.7-1.3,0.7-2.9,0.1-4.3L68.4,74.9C67.6,73.2,65.9,72.1,64,72.1z"/>
<path style="fill:#454B54;" d="M49,72.1h-5c-1.7,0-3-1.3-3-3s1.3-3,3-3h5c1.7,0,3,1.3,3,3S50.7,72.1,49,72.1z"/>
<path style="fill:#454B54;" d="M84,72.1h-5c-1.7,0-3-1.3-3-3s1.3-3,3-3h5c1.7,0,3,1.3,3,3S85.7,72.1,84,72.1z"/>
</svg>
