<?xml version="1.0" encoding="utf-8"?>
<!-- Generator: Adobe Illustrator 21.0.2, SVG Export Plug-In . SVG Version: 6.00 Build 0)  -->
<svg xmlns="http://www.w3.org/2000/svg" xmlns:xlink="http://www.w3.org/1999/xlink" version="1.1" id="Слой_1" x="0px" y="0px" viewBox="0 0 128 128" style="enable-background:new 0 0 128 128;" xml:space="preserve">
<path style="fill:#454B54;" d="M64,121.2c-18.3,0-33.2-15-33.2-33.5V56.9c0-2.8,1-5.6,2.9-7.7c1.1-1.3,3-1.4,4.2-0.3  c1.3,1.1,1.4,3,0.3,4.2c-0.9,1-1.4,2.4-1.4,3.8v30.7c0,15.2,12.2,27.5,27.2,27.5s27.2-12.3,27.2-27.5V56.9c0-1.4-0.5-2.7-1.4-3.8  c-1.1-1.3-1-3.1,0.3-4.2c1.3-1.1,3.1-1,4.2,0.3c1.9,2.1,2.9,4.9,2.9,7.7v30.7C97.2,106.1,82.3,121.2,64,121.2z"/>
<path style="fill:#F0D6BF;" d="M64,22.8c13.1,0,23.8,10.7,23.8,24c0,13.3-10.7,24-23.8,24s-23.8-10.7-23.8-24  C40.2,33.5,50.9,22.8,64,22.8"/>
<path style="fill:#CEBAAA;" d="M56.5,45.5c-1.8,0-3.3,1.5-3.3,3.3c0,1.8,1.5,3.3,3.3,3.3c1.8,0,3.3-1.5,3.3-3.3  C59.8,47,58.3,45.5,56.5,45.5"/>
<path style="fill:#CEBAAA;" d="M73.1,45.5c-1.8,0-3.3,1.5-3.3,3.3c0,1.8,1.5,3.3,3.3,3.3c1.8,0,3.3-1.5,3.3-3.3  C76.4,47,74.9,45.5,73.1,45.5"/>
<path style="fill:#454B54;" d="M64,73.8c-14.8,0-26.8-12.1-26.8-27s12-27,26.8-27s26.8,12.1,26.8,27S78.8,73.8,64,73.8z M64,25.9  c-11.4,0-20.8,9.4-20.8,21s9.3,21,20.8,21s20.8-9.4,20.8-21S75.4,25.9,64,25.9z"/>
<path style="fill:#C7D7E2;" d="M64,118.2L64,118.2c-16.7,0-30.2-13.7-30.2-30.5V56.9c0-2.1,0.8-4.2,2.1-5.7l58.3,31.9v4.6  C94.2,104.5,80.7,118.2,64,118.2z"/>
<path style="fill:#FFFFFF;" d="M64,118.2L64,118.2c16.7,0,30.2-13.7,30.2-30.5V56.9c0-2.1-0.8-4.2-2.1-5.7L33.8,83.1v4.6  C33.8,104.5,47.3,118.2,64,118.2z"/>
<path style="fill:#454B54;" d="M64,121.2c-18.3,0-33.2-15-33.2-33.5V56.9c0-2.8,1-5.6,2.9-7.7c0.9-1.1,2.5-1.3,3.7-0.7l19,10.4  c1.5,0.8,2,2.6,1.2,4.1s-2.6,2-4.1,1.2l-16.4-9c-0.2,0.5-0.3,1.1-0.3,1.7v30.7c0,15.2,12.2,27.5,27.2,27.5s27.2-12.3,27.2-27.5V83  c0-1.7,1.3-3,3-3s3,1.3,3,3v4.6C97.2,106.1,82.3,121.2,64,121.2z"/>
<path style="fill:#454B54;" d="M64,121.2c-18.3,0-33.2-15-33.2-33.5c0-1.7,1.3-3,3-3s3,1.3,3,3c0,15.2,12.2,27.5,27.2,27.5  s27.2-12.3,27.2-27.5V56.9c0-0.6-0.1-1.2-0.3-1.7l-47.4,26C42,82,40.2,81.5,39.4,80s-0.3-3.3,1.2-4.1l50-27.3  c1.2-0.7,2.8-0.4,3.7,0.7c1.9,2.1,2.9,4.9,2.9,7.7v30.7C97.2,106.1,82.3,121.2,64,121.2z"/>
<path style="fill:#454B54;" d="M64,25.9c-1.7,0-3-1.3-3-3c0-6.5,5.2-11.7,11.6-11.7c1.7,0,3,1.3,3,3s-1.3,3-3,3  c-3.1,0-5.6,2.6-5.6,5.7C67,24.5,65.7,25.9,64,25.9z"/>
</svg>
