<?xml version="1.0" encoding="utf-8"?>
<!-- Generator: Adobe Illustrator 21.1.0, SVG Export Plug-In . SVG Version: 6.00 Build 0)  -->
<svg version="1.1" id="Layer_1" xmlns="http://www.w3.org/2000/svg" xmlns:xlink="http://www.w3.org/1999/xlink" x="0px" y="0px" viewBox="0 0 128 128" style="enable-background:new 0 0 128 128;" xml:space="preserve">

<g>
	<g>
		<g>
			<path d="M119,124H59c-2.8,0-5-2.2-5-5V79c0-2.8,2.2-5,5-5h60c2.8,0,5,2.2,5,5v40C124,121.8,121.8,124,119,124z" style="fill:#444B54;"/>
		</g>
	</g>
	<g>
		<g>
			<path d="M119,127H59c-4.4,0-8-3.6-8-8V79c0-4.4,3.6-8,8-8h60c4.4,0,8,3.6,8,8v40C127,123.4,123.4,127,119,127z
				 M59,77c-1.1,0-2,0.9-2,2v40c0,1.1,0.9,2,2,2h60c1.1,0,2-0.9,2-2V79c0-1.1-0.9-2-2-2H59z" style="fill:#444B54;"/>
		</g>
	</g>
	<g>
		<g>
			<path d="M99,124H9c-2.8,0-5-2.2-5-5V59c0-2.8,2.2-5,5-5h90c2.8,0,5,2.2,5,5v60C104,121.8,101.8,124,99,124z" style="fill:#FF5576;"/>
		</g>
	</g>
	<g>
		<g>
			<path d="M102,121H19c-1.7,0-3-1.3-3-3s1.3-3,3-3h83c1.7,0,3,1.3,3,3S103.7,121,102,121z" style="fill:#DB3E64;"/>
		</g>
	</g>
	<g>
		<g>
			<path d="M70.5,113.3L47.9,105c-1.6-0.6-2.4-2.3-1.8-3.8L50.9,88c0.6-1.6,2.3-2.4,3.8-1.8l22.6,8.2
				c1.6,0.6,2.4,2.3,1.8,3.8l-4.8,13.2C73.8,113,72,113.8,70.5,113.3z" style="fill:#FFFFFF;"/>
		</g>
	</g>
	<g>
		<g>
			<path d="M48.8,78.4l-13.2,4.8c-1.6,0.6-3.3-0.2-3.8-1.8l-3.1-8.5c-0.6-1.6,0.2-3.3,1.8-3.8l13.2-4.8
				c1.6-0.6,3.3,0.2,3.8,1.8l3.1,8.5C51.1,76.1,50.3,77.8,48.8,78.4z" style="fill:#FFFFFF;"/>
		</g>
	</g>
	<g>
		<g>
			<path d="M99,127H9c-4.4,0-8-3.6-8-8V59c0-4.4,3.6-8,8-8h90c4.4,0,8,3.6,8,8v60C107,123.4,103.4,127,99,127z M9,57
				c-1.1,0-2,0.9-2,2v60c0,1.1,0.9,2,2,2h90c1.1,0,2-0.9,2-2V59c0-1.1-0.9-2-2-2H9z" style="fill:#444B54;"/>
		</g>
	</g>
	<g>
		<g>
			<path d="M19,127c-1.7,0-3-1.3-3-3V67c0-1.7,1.3-3,3-3s3,1.3,3,3v57C22,125.7,20.7,127,19,127z" style="fill:#444B54;"/>
		</g>
	</g>
	<g>
		<g>
			<path d="M89,127c-1.7,0-3-1.3-3-3V66c0-1.7,1.3-3,3-3s3,1.3,3,3v58C92,125.7,90.7,127,89,127z" style="fill:#444B54;"/>
		</g>
	</g>
	<g>
		<g>
			<path d="M66.5,48c-1.7,0-3-1.3-3-3c0-1.7-1.3-3-3-3h-13c-1.7,0-3,1.3-3,3c0,1.7-1.3,3-3,3s-3-1.3-3-3c0-5,4-9,9-9h13
				c5,0,9,4,9,9C69.5,46.7,68.2,48,66.5,48z" style="fill:#444B54;"/>
		</g>
	</g>
	<g>
		<g>
			<path d="M103.5,48c-1.7,0-3-1.3-3-3V22c0-1.7-1.3-3-3-3h-13c-1.7,0-3,1.3-3,3v23c0,1.7-1.3,3-3,3s-3-1.3-3-3V22
				c0-5,4-9,9-9h13c5,0,9,4,9,9v23C106.5,46.7,105.2,48,103.5,48z" style="fill:#444B54;"/>
		</g>
	</g>
	<g>
		<g>
			<circle cx="19" cy="51" r="3" style="fill:#444B54;"/>
		</g>
	</g>
	<g>
		<g>
			<circle cx="89" cy="51" r="3" style="fill:#444B54;"/>
		</g>
	</g>
</g>
</svg>
