<?xml version="1.0" encoding="UTF-8"?>
<svg width="100px" height="92px" viewBox="0 0 100 92" version="1.1" xmlns="http://www.w3.org/2000/svg" xmlns:xlink="http://www.w3.org/1999/xlink">
    <!-- Generator: Sketch 52.3 (67297) - http://www.bohemiancoding.com/sketch -->
    <title>icons8-asian_street_food</title>
    <desc>Created with Sketch.</desc>
    <g id="政見" stroke="none" stroke-width="1" fill="none" fill-rule="evenodd">
        <g id="選擇議題-UI-" transform="translate(-877.000000, -135.000000)">
            <g id="Group-8" transform="translate(843.000000, 96.000000)">
                <g id="icons8-asian_street_food" transform="translate(34.000000, 39.000000)">
                    <path d="M50,41.2698413 L34.1269841,41.2698413 L10.3174603,41.2698413 L17.6984127,85.5555556 C18.015873,87.4603175 19.6825397,88.8888889 21.5873016,88.8888889 L34.1269841,88.8888889 L50,88.8888889 L62.5396825,88.8888889 C64.4444444,88.8888889 66.1111111,87.4603175 66.4285714,85.5555556 L73.8095238,41.2698413 L50,41.2698413 Z" id="Path" fill="#FFFFFF"></path>
                    <g id="Group">
                        <path d="M32.3015873,75.4761905 L32.7777778,75.3174603 C37.1428571,73.8888889 40.6349206,70.3968254 42.0634921,66.031746 L42.1428571,41.2698413 L10.3968254,41.2698413 L14.9206349,68.4920635 C18.0952381,74.5238095 25.3174603,77.7777778 32.3015873,75.4761905 Z" id="Path" fill="#90C5E1"></path>
                        <path d="M50.0793651,88.8888889 L50.0793651,73.8095238 L50.0793651,65.0793651 C50.0793651,51.9047619 60.7142857,41.2698413 73.8888889,41.2698413 L66.5079365,85.5555556 C66.1904762,87.4603175 64.5238095,88.8888889 62.6190476,88.8888889 L50.0793651,88.8888889 Z" id="Path" fill="#90C5E1"></path>
                        <path d="M62.6190476,91.2698413 L50.0793651,91.2698413 C48.7301587,91.2698413 47.6984127,90.2380952 47.6984127,88.8888889 C47.6984127,87.5396825 48.7301587,86.5079365 50.0793651,86.5079365 L62.6190476,86.5079365 C63.4126984,86.5079365 64.047619,85.952381 64.2063492,85.1587302 L71.1111111,43.6507937 L58.015873,43.6507937 C56.6666667,43.6507937 55.6349206,42.6190476 55.6349206,41.2698413 C55.6349206,39.9206349 56.6666667,38.8888889 58.015873,38.8888889 L73.8888889,38.8888889 C74.6031746,38.8888889 75.2380952,39.2063492 75.7142857,39.7619048 C76.1904762,40.3174603 76.3492063,41.031746 76.2698413,41.6666667 L68.8888889,85.952381 C68.3333333,89.047619 65.7142857,91.2698413 62.6190476,91.2698413 Z" id="Path" fill="#3F4A54"></path>
                        <polygon id="Path" fill="#FFFFFF" points="2.46031746 65.0793651 10.3968254 41.2698413 50.0793651 41.2698413 42.3015873 65.0793651"></polygon>
                        <path d="M81.8253968,67.4603175 C80.7936508,67.4603175 79.9206349,66.8253968 79.6031746,65.7936508 L75.6349206,53.8888889 C75.2380952,52.6190476 75.8730159,51.2698413 77.1428571,50.8730159 C78.4126984,50.4761905 79.7619048,51.1111111 80.1587302,52.3809524 L84.1269841,64.2857143 C84.5238095,65.5555556 83.8888889,66.9047619 82.6190476,67.3015873 C82.3015873,67.4603175 82.0634921,67.4603175 81.8253968,67.4603175 Z" id="Path" fill="#3F4A54"></path>
                        <g>
                            <path d="M87.1428571,73.1746032 C86.9047619,68.6507937 89.5238095,60.8730159 89.5238095,48.015873 C89.5238095,44.4444444 88.5714286,37.4603175 84.9206349,30.3174603 C79.3650794,19.3650794 80.3968254,1.58730159 80.3968254,1.58730159 L67.6984127,1.58730159 C67.6984127,1.58730159 68.7301587,19.3650794 63.1746032,30.3174603 C59.6031746,37.4603175 58.7301587,44.4444444 58.7301587,48.015873 C58.7301587,60.8730159 61.4285714,68.6507937 61.1111111,73.1746032 C60.8730159,77.0634921 59.3650794,79.9206349 58.6507937,84.3650794 C58.2539683,86.7460317 60.1587302,88.968254 62.5396825,88.968254 L72.5396825,88.968254 L75.7142857,88.968254 L85.7142857,88.968254 C88.1746032,88.968254 90,86.7460317 89.6031746,84.3650794 C88.8888889,79.9206349 87.3809524,77.0634921 87.1428571,73.1746032 Z" id="Path" fill="#FFFFFF"></path>
                            <path d="M89.6031746,84.2857143 C88.8888889,79.9206349 87.3809524,76.984127 87.1428571,73.0952381 C86.9047619,68.5714286 89.5238095,60.7936508 89.5238095,47.9365079 C89.5238095,44.3650794 88.015873,37.6190476 84.9206349,30.2380952 C81.7460317,24.047619 80.7142857,13.1746032 80.4761905,7.06349206 L72.5396825,7.06349206 L72.0634921,16.3492063 C71.984127,18.6507937 67.3809524,14.3650794 66.984127,17.1428571 C66.3492063,21.6666667 65.1587302,26.3492063 63.2539683,30.2380952 C60.2380952,37.6984127 58.7301587,44.4444444 58.7301587,48.015873 C58.7301587,60.8730159 61.4285714,68.6507937 61.1111111,73.1746032 C60.8730159,77.0634921 59.3650794,79.9206349 58.6507937,84.3650794 C58.2539683,86.7460317 60.1587302,88.968254 62.5396825,88.968254 L72.5396825,88.968254 L75.7142857,88.968254 L85.7142857,88.968254 C88.1746032,88.8888889 90,86.6666667 89.6031746,84.2857143 Z" id="Path" fill="#70E7D2"></path>
                            <g transform="translate(56.349206, 38.888889)">
                                <path d="M10.1587302,46.6666667 L17.5396825,2.38095238 L3.88888889,2.38095238 C3.33333333,5.15873016 3.0952381,7.46031746 3.0952381,9.12698413 C3.0952381,21.984127 5.79365079,29.7619048 5.47619048,34.2857143 C5.23809524,38.1746032 3.73015873,41.031746 3.01587302,45.4761905 C2.61904762,47.8571429 4.52380952,50.0793651 6.9047619,50.0793651 L6.19047619,50.0793651 C8.17460317,50 9.84126984,48.5714286 10.1587302,46.6666667 Z" id="Path" fill="#009F96"></path>
                                <path d="M6.98412698,52.3809524 L6.26984127,52.3809524 C5.87301587,52.3809524 5.47619048,52.3015873 5.15873016,52.1428571 C4.04761905,51.8253968 2.93650794,51.1111111 2.14285714,50.1587302 C0.952380952,48.7301587 0.396825397,46.9047619 0.714285714,45.0793651 C1.03174603,43.015873 1.58730159,41.2698413 1.98412698,39.6825397 C2.53968254,37.7777778 3.01587302,36.1111111 3.17460317,34.2063492 C3.25396825,32.6190476 2.93650794,30.3174603 2.46031746,27.3809524 C1.74603175,22.9365079 0.793650794,16.9047619 0.793650794,9.12698413 C0.793650794,7.06349206 1.11111111,4.44444444 1.58730159,1.9047619 C1.82539683,0.793650794 2.77777778,0 3.88888889,0 L17.5396825,0 C18.2539683,0 18.8888889,0.317460317 19.3650794,0.873015873 C19.8412698,1.42857143 20,2.14285714 19.9206349,2.77777778 L12.5396825,47.0634921 C12.1428571,49.5238095 10.3968254,51.4285714 8.0952381,52.0634921 C7.77777778,52.3015873 7.38095238,52.3809524 6.98412698,52.3809524 Z M5.87301587,4.76190476 C5.55555556,6.82539683 5.55555556,8.33333333 5.55555556,9.12698413 C5.55555556,16.5079365 6.42857143,22.0634921 7.14285714,26.5079365 C7.61904762,29.6825397 8.0952381,32.2222222 7.93650794,34.3650794 C7.77777778,36.8253968 7.22222222,38.8888889 6.58730159,40.8730159 C6.19047619,42.3809524 5.71428571,43.968254 5.3968254,45.7142857 C5.31746032,46.3492063 5.55555556,46.7460317 5.71428571,46.984127 C5.87301587,47.1428571 6.11111111,47.3809524 6.58730159,47.5396825 C7.22222222,47.3809524 7.6984127,46.9047619 7.77777778,46.2698413 L14.7619048,4.76190476 L5.87301587,4.76190476 Z" id="Shape" fill="#009F96" fill-rule="nonzero"></path>
                                <circle id="Oval" fill="#FFFFFF" cx="9.28571429" cy="36.7460317" r="2.38095238"></circle>
                            </g>
                            <path d="M81.8253968,67.4603175 C80.7936508,67.4603175 79.9206349,66.8253968 79.6031746,65.7936508 L71.6666667,41.984127 C71.2698413,40.7142857 71.9047619,39.3650794 73.1746032,38.968254 C74.4444444,38.5714286 75.7936508,39.2063492 76.1904762,40.4761905 L84.1269841,64.2857143 C84.5238095,65.5555556 83.8888889,66.9047619 82.6190476,67.3015873 C82.3015873,67.4603175 82.0634921,67.4603175 81.8253968,67.4603175 Z" id="Path" fill="#009F96"></path>
                            <path d="M71.1904762,86.5079365 L61.9047619,86.5079365 C60.5555556,86.5079365 59.5238095,85.4761905 59.5238095,84.1269841 C59.5238095,82.7777778 60.5555556,81.7460317 61.9047619,81.7460317 L71.1904762,81.7460317 C72.5396825,81.7460317 73.5714286,82.7777778 73.5714286,84.1269841 C73.5714286,85.4761905 72.5396825,86.5079365 71.1904762,86.5079365 Z" id="Path" fill="#FFFFFF"></path>
                            <path d="M97.6190476,86.5079365 L91.8253968,86.5079365 C92.0634921,85.6349206 92.0634921,84.7619048 91.984127,83.8888889 C91.6666667,81.8253968 91.1111111,80.0793651 90.7142857,78.4920635 C90.1587302,76.5873016 89.6825397,74.9206349 89.5238095,73.015873 C89.4444444,71.4285714 89.7619048,69.1269841 90.2380952,66.1904762 C90.952381,61.8253968 91.9047619,55.7936508 91.9047619,48.015873 C91.9047619,43.4920635 90.6349206,36.2698413 87.0634921,29.2063492 C81.9047619,19.1269841 82.7777778,9.84126984 82.7777778,9.76190476 C82.9365079,8.49206349 81.984127,7.3015873 80.6349206,7.14285714 C79.2857143,6.98412698 78.1746032,7.93650794 78.015873,9.28571429 C77.9365079,9.68253968 76.9047619,20 82.7777778,31.4285714 C86.9047619,39.5238095 87.0634921,46.6666667 87.0634921,48.0952381 C87.0634921,55.4761905 86.1904762,61.031746 85.4761905,65.5555556 C85,68.7301587 84.5238095,71.2698413 84.6825397,73.4126984 C84.8412698,75.8730159 85.3968254,77.9365079 86.031746,79.9206349 C86.4285714,81.4285714 86.9047619,83.015873 87.2222222,84.7619048 C87.3015873,85.3968254 87.0634921,85.7936508 86.9047619,86.031746 C86.7460317,86.2698413 86.3492063,86.5873016 85.7142857,86.5873016 L62.5396825,86.5873016 C61.9047619,86.5873016 61.5079365,86.2698413 61.3492063,86.031746 C61.1904762,85.7936508 60.8730159,85.3968254 61.031746,84.7619048 C61.3492063,82.9365079 61.7460317,81.4285714 62.2222222,79.9206349 C62.7777778,77.9365079 63.4126984,75.7936508 63.5714286,73.4126984 C63.7301587,71.2698413 63.3333333,68.8095238 62.7777778,65.5555556 C62.0634921,61.1111111 61.1904762,55.4761905 61.1904762,48.1746032 C61.1904762,46.8253968 61.4285714,39.6031746 65.4761905,31.5079365 C67.6984127,27.2222222 69.1269841,22.6190476 69.8412698,17.7777778 C70,16.5079365 69.1269841,15.2380952 67.8571429,15.0793651 C66.5873016,14.9206349 65.3174603,15.7936508 65.1587302,17.0634921 C64.5238095,21.3492063 63.1746032,25.4761905 61.2698413,29.3650794 C59.6031746,32.6190476 58.4920635,35.952381 57.6984127,39.047619 L10.3968254,39.047619 C9.36507937,39.047619 8.49206349,39.6825397 8.17460317,40.7142857 L0.238095238,64.5238095 C-0.0793650794,65.0793651 0.0793650794,65.8730159 0.555555556,66.5079365 C0.952380952,67.0634921 1.66666667,67.4603175 2.46031746,67.4603175 L42.3015873,67.4603175 C43.3333333,67.4603175 44.2857143,66.8253968 44.6031746,65.7936508 L48.7301587,53.015873 C49.1269841,51.7460317 48.4920635,50.3968254 47.2222222,50 C45.952381,49.6031746 44.6031746,50.2380952 44.2063492,51.5079365 L40.5555556,62.6190476 L5.79365079,62.6190476 L12.1428571,43.5714286 L56.6666667,43.5714286 C56.4285714,45.2380952 56.3492063,46.6666667 56.3492063,47.9365079 C56.3492063,55.7142857 57.3015873,61.7460317 58.015873,66.1111111 C58.4920635,69.047619 58.8888889,71.3492063 58.7301587,72.9365079 C58.6507937,74.8412698 58.0952381,76.5079365 57.5396825,78.4126984 C57.0634921,80 56.5873016,81.7460317 56.2698413,83.8095238 C56.1111111,84.6825397 56.1904762,85.5555556 56.4285714,86.4285714 L52.4603175,86.4285714 L52.4603175,72.9365079 C52.4603175,71.5873016 51.4285714,70.5555556 50.0793651,70.5555556 C48.7301587,70.5555556 47.6984127,71.5873016 47.6984127,72.9365079 L47.6984127,86.4285714 L21.6666667,86.4285714 C20.8730159,86.4285714 20.2380952,85.8730159 20.0793651,85.0793651 L18.015873,72.5396825 C17.7777778,71.2698413 16.5873016,70.3968254 15.2380952,70.5555556 C13.968254,70.7936508 13.0952381,71.984127 13.2539683,73.3333333 L15.3174603,85.8730159 C15.7936508,88.968254 18.4920635,91.1904762 21.5873016,91.1904762 L62.4603175,91.1904762 L85.7142857,91.1904762 L97.6190476,91.1904762 C98.968254,91.1904762 100,90.1587302 100,88.8095238 C100,87.4603175 98.968254,86.5079365 97.6190476,86.5079365 Z" id="Path" fill="#3F4A54"></path>
                            <path d="M80.4761905,4.76190476 L67.7777778,4.76190476 C66.4285714,4.76190476 65.3968254,3.73015873 65.3968254,2.38095238 C65.3968254,1.03174603 66.4285714,0 67.7777778,0 L80.4761905,0 C81.8253968,0 82.8571429,1.03174603 82.8571429,2.38095238 C82.8571429,3.73015873 81.8253968,4.76190476 80.4761905,4.76190476 Z" id="Path" fill="#70E9D4"></path>
                            <path d="M80.4761905,4.76190476 L77.3015873,4.76190476 C75.952381,4.76190476 74.9206349,3.73015873 74.9206349,2.38095238 C74.9206349,1.03174603 75.952381,0 77.3015873,0 L80.4761905,0 C81.8253968,0 82.8571429,1.03174603 82.8571429,2.38095238 C82.8571429,3.73015873 81.8253968,4.76190476 80.4761905,4.76190476 Z" id="Path" fill="#009F96"></path>
                            <path d="M78.968254,51.1904762 L63.4920635,51.1904762 C62.1428571,51.1904762 61.1111111,50.1587302 61.1111111,48.8095238 C61.1111111,47.4603175 62.1428571,46.4285714 63.4920635,46.4285714 L78.968254,46.4285714 C80.3174603,46.4285714 81.3492063,47.4603175 81.3492063,48.8095238 C81.3492063,50.1587302 80.2380952,51.1904762 78.968254,51.1904762 Z" id="Path" fill="#FFFFFF"></path>
                            <path d="M65,67.4603175 C63.8888889,67.4603175 62.8571429,66.5873016 62.6190476,65.4761905 C62.3809524,64.2063492 62.2222222,62.9365079 61.984127,61.5079365 C61.5873016,58.4920635 61.031746,53.8888889 61.031746,48.0952381 C61.031746,44.7619048 61.8253968,40.4761905 63.1746032,36.5873016 C63.8095238,34.8412698 64.5238095,33.0952381 65.3174603,31.4285714 C65.8730159,30.3174603 66.3492063,29.2063492 66.8253968,28.0952381 C67.7777778,25.8730159 68.4920635,23.4920635 68.968254,20.952381 C69.4444444,18.4126984 69.6825397,15.7936508 69.6825397,12.7777778 L69.6825397,4.84126984 L78.4126984,4.84126984 L78.4126984,7.22222222 L74.4444444,7.22222222 L74.4444444,12.7777778 C74.4444444,16.1111111 74.2063492,19.047619 73.6507937,21.9047619 C73.0952381,24.6825397 72.3015873,27.3809524 71.2698413,29.9206349 C70.7936508,31.1904762 70.1587302,32.3809524 69.6031746,33.6507937 C68.8888889,35 68.2539683,36.5079365 67.6984127,38.0952381 C65.952381,43.1746032 65.8730159,46.984127 65.8730159,48.015873 C65.8730159,53.4126984 66.3492063,57.6984127 66.8253968,60.7936508 C66.984127,62.2222222 67.2222222,63.4920635 67.4603175,64.6825397 C67.6984127,65.952381 66.7460317,67.2222222 65.4761905,67.3809524 C65.3174603,67.4603175 65.1587302,67.4603175 65,67.4603175 Z" id="Path" fill="#FFFFFF"></path>
                        </g>
                    </g>
                    <circle id="Oval" fill="#3F4A54" cx="8.96825397" cy="88.8888889" r="2.38095238"></circle>
                </g>
            </g>
        </g>
    </g>
</svg>