<?xml version="1.0" encoding="UTF-8"?>
<svg width="100px" height="92px" viewBox="0 0 100 92" version="1.1" xmlns="http://www.w3.org/2000/svg" xmlns:xlink="http://www.w3.org/1999/xlink">
    <!-- Generator: Sketch 52.3 (67297) - http://www.bohemiancoding.com/sketch -->
    <title>icons8-trust</title>
    <desc>Created with Sketch.</desc>
    <g id="政見" stroke="none" stroke-width="1" fill="none" fill-rule="evenodd">
        <g id="選擇議題-UI-" transform="translate(-877.000000, -659.000000)">
            <g id="Group-2" transform="translate(843.000000, 610.000000)">
                <g id="icons8-trust" transform="translate(34.000000, 49.000000)">
                    <path d="M95.8730159,58.6507937 C93.6507937,56.5079365 90.1587302,56.7460317 88.015873,58.8888889 C76.1904762,70.7142857 66.3492063,74.5238095 54.3650794,73.015873 C49.4444444,72.3809524 46.984127,70.952381 42.5396825,68.968254 C42.1428571,68.8095238 41.1111111,68.2539683 40,67.5396825 C36.8253968,65.7142857 36.8253968,61.1111111 40,59.2857143 L51.9047619,52.3809524 C54.8412698,50.7142857 56.1111111,46.984127 54.6031746,43.968254 C52.9365079,40.6349206 48.8888889,39.4444444 45.7142857,41.2698413 L18.2539683,57.1428571 L10.3174603,57.1428571 L10.3174603,54.7619048 L0,54.7619048 L0,86.5079365 L10.3174603,86.5079365 L10.3174603,80.952381 C10.3174603,80.952381 29.3650794,88.8888889 45.5555556,88.8888889 C67.3015873,88.8888889 85.3174603,77.9365079 95.8730159,66.7460317 C98.015873,64.4444444 98.0952381,60.7936508 95.8730159,58.6507937 Z" id="Path" fill="#FFFFFF"></path>
                    <g id="Group" transform="translate(43.650794, 0.000000)" fill="#FF5576">
                        <path d="M30.952381,2.46031746 C27.4603175,2.46031746 24.3650794,3.96825397 22.2222222,6.58730159 C20.2380952,4.12698413 17.0634921,2.46031746 13.4920635,2.46031746 C7.22222222,2.46031746 2.38095238,7.46031746 2.38095238,13.5714286 C2.38095238,16.9047619 3.88888889,20.1587302 6.50793651,22.3015873 L20.5555556,33.7301587 C21.031746,34.2063492 21.5873016,34.3650794 22.2222222,34.3650794 C22.8571429,34.3650794 23.4126984,34.2063492 23.8888889,33.7301587 L38.0952381,22.2222222 C40.3968254,20.2380952 42.0634921,16.9047619 42.0634921,13.7301587 C42.0634921,7.46031746 37.0634921,2.46031746 30.952381,2.46031746 Z" id="Path"></path>
                        <path d="M22.2222222,36.7460317 C20.6349206,36.7460317 19.6031746,36.1111111 18.968254,35.5555556 L5,24.1269841 C1.82539683,21.5079365 0,17.6984127 0,13.5714286 C0,6.11111111 6.03174603,0.0793650794 13.4920635,0.0793650794 C16.6666667,0.0793650794 19.7619048,1.19047619 22.2222222,3.25396825 C24.6825397,1.19047619 27.6984127,0.0793650794 30.952381,0.0793650794 C38.4126984,0.0793650794 44.4444444,6.19047619 44.4444444,13.7301587 C44.4444444,17.4603175 42.5396825,21.5079365 39.6825397,24.047619 L25.4761905,35.5555556 C24.8412698,36.1111111 23.8095238,36.7460317 22.2222222,36.7460317 Z M22.1428571,31.984127 C22.2222222,31.984127 22.3015873,31.984127 22.3015873,31.984127 C22.3015873,31.984127 22.3809524,31.9047619 22.3809524,31.9047619 L36.5873016,20.3968254 C38.4126984,18.8095238 39.6825397,16.1111111 39.6825397,13.7301587 C39.6825397,8.80952381 35.7142857,4.84126984 30.952381,4.84126984 C28.2539683,4.84126984 25.7936508,6.03174603 24.1269841,8.0952381 C23.6507937,8.65079365 23.015873,8.96825397 22.3015873,8.96825397 C22.3015873,8.96825397 22.3015873,8.96825397 22.3015873,8.96825397 C21.5873016,8.96825397 20.8730159,8.65079365 20.4761905,8.0952381 C18.8095238,6.03174603 16.2698413,4.84126984 13.6507937,4.84126984 C8.80952381,4.84126984 4.92063492,8.80952381 4.92063492,13.5714286 C4.92063492,16.1904762 6.11111111,18.7301587 8.17460317,20.3968254 L22.2222222,31.8253968 C22.0634921,31.9047619 22.1428571,31.9047619 22.1428571,31.984127 Z" id="Shape" fill-rule="nonzero"></path>
                    </g>
                    <path d="M50.7936508,15.952381 C49.4444444,15.952381 48.4126984,14.9206349 48.4126984,13.5714286 C48.4126984,8.65079365 52.2222222,4.84126984 57.1428571,4.84126984 C58.4920635,4.84126984 59.5238095,5.87301587 59.5238095,7.22222222 C59.5238095,8.57142857 58.4920635,9.6031746 57.1428571,9.6031746 C54.8412698,9.6031746 53.1746032,11.3492063 53.1746032,13.5714286 C53.1746032,14.9206349 52.1428571,15.952381 50.7936508,15.952381 Z" id="Path" fill="#FFFFFF"></path>
                    <path d="M97.5396825,56.9047619 C94.3650794,53.968254 89.5238095,54.047619 86.3492063,57.1428571 C75.3174603,68.1746032 66.1111111,72.0634921 54.6825397,70.6349206 C50.7936508,70.1587302 48.7301587,69.2063492 45.3968254,67.6190476 C44.8412698,67.3809524 44.2063492,67.0634921 43.5714286,66.7460317 C43.4126984,66.6666667 42.9365079,66.4285714 41.1904762,65.4761905 C40.0793651,64.8412698 40,63.8095238 40,63.4126984 C40,63.015873 40.0793651,61.984127 41.1904762,61.3492063 L53.1746032,54.4444444 C57.2222222,52.0634921 58.8888889,47.0634921 56.8253968,42.9365079 C55.7142857,40.7142857 53.8888889,39.1269841 51.5079365,38.4126984 C49.2063492,37.6984127 46.6666667,38.015873 44.6031746,39.2063492 L17.1428571,55.0793651 C16.031746,55.7142857 15.6349206,57.2222222 16.2698413,58.3333333 C16.9047619,59.4444444 18.4126984,59.8412698 19.5238095,59.2063492 L46.984127,43.3333333 C47.9365079,42.7777778 49.047619,42.6190476 50.1587302,42.9365079 C51.1904762,43.2539683 52.0634921,43.968254 52.5396825,45 C53.4920635,46.8253968 52.6984127,49.2063492 50.7936508,50.3174603 L38.8095238,57.2222222 C36.5873016,58.4920635 35.2380952,60.7936508 35.2380952,63.4126984 C35.2380952,66.031746 36.5873016,68.3333333 38.8095238,69.6031746 C40.6349206,70.6349206 41.2698413,70.952381 41.5873016,71.1111111 C42.2222222,71.4285714 42.8571429,71.6666667 43.4126984,71.984127 C46.984127,73.6507937 49.5238095,74.8412698 54.1269841,75.3968254 C67.0634921,76.984127 77.6984127,72.6190476 89.7619048,60.5555556 C91.031746,59.2857143 93.0952381,59.2063492 94.2857143,60.3968254 C95.4761905,61.5873016 95.4761905,63.7301587 94.2063492,65.0793651 C89.4444444,70.0793651 71.9047619,86.5079365 45.5555556,86.5079365 C32.5396825,86.5079365 17.3809524,81.1111111 12.6984127,79.3650794 L12.6984127,54.7619048 C12.6984127,53.4126984 11.6666667,52.3809524 10.3174603,52.3809524 L2.38095238,52.3809524 C1.03174603,52.3809524 0,53.4126984 0,54.7619048 C0,56.1111111 1.03174603,57.1428571 2.38095238,57.1428571 L7.93650794,57.1428571 L7.93650794,80.952381 C7.93650794,80.952381 7.93650794,80.952381 7.93650794,80.952381 L7.93650794,84.1269841 L2.38095238,84.1269841 C1.03174603,84.1269841 0,85.1587302 0,86.5079365 C0,87.8571429 1.03174603,88.8888889 2.38095238,88.8888889 L10.3174603,88.8888889 C11.6666667,88.8888889 12.6984127,87.8571429 12.6984127,86.5079365 L12.6984127,84.4444444 C18.968254,86.7460317 32.9365079,91.2698413 45.5555556,91.2698413 C64.6031746,91.2698413 84.047619,82.6984127 97.6190476,68.3333333 C100.714286,65.1587302 100.634921,59.9206349 97.5396825,56.9047619 Z" id="Path" fill="#444B54"></path>
                </g>
            </g>
        </g>
    </g>
</svg>