<?xml version="1.0" encoding="UTF-8"?>
<svg width="100px" height="100px" viewBox="0 0 100 100" version="1.1" xmlns="http://www.w3.org/2000/svg" xmlns:xlink="http://www.w3.org/1999/xlink">
    <!-- Generator: Sketch 52.3 (67297) - http://www.bohemiancoding.com/sketch -->
    <title>icons8-earth_planet</title>
    <desc>Created with Sketch.</desc>
    <g id="政見" stroke="none" stroke-width="1" fill="none" fill-rule="evenodd">
        <g id="選擇議題-UI-" transform="translate(-670.000000, -131.000000)">
            <g id="Group-9" transform="translate(636.000000, 96.000000)">
                <g id="icons8-earth_planet" transform="translate(34.000000, 35.000000)">
                    <path d="M97.4137931,50 C97.4137931,76.2068966 76.2068966,97.4137931 50,97.4137931 C23.7931034,97.4137931 2.5862069,76.2068966 2.5862069,50 C2.5862069,23.7931034 23.7931034,2.5862069 50,2.5862069 C55.6034483,2.5862069 61.0344828,3.53448276 66.0344828,5.34482759 C84.3103448,11.8965517 97.4137931,29.3965517 97.4137931,50 Z" id="Path" fill="#FFFFFF"></path>
                    <path d="M96.4655172,40.4310345 C93.1034483,24.137931 81.3793103,10.862069 66.0344828,5.34482759 C65.9482759,5.34482759 65.862069,5.25862069 65.862069,5.25862069 L66.0344828,14.3965517 C66.0344828,16.7241379 64.6551724,18.8793103 62.5,19.8275862 C57.7586207,21.8965517 53.0172414,20.7758621 51.0344828,26.2068966 C49.3965517,30.2586207 53.7068966,41.3793103 58.9655172,41.3793103 C65.6034483,41.3793103 68.7931034,28.0172414 70.7758621,28.0172414 C72.0689655,28.0172414 74.0517241,32.0689655 76.3793103,35.0862069 C77.9310345,37.1551724 80.3448276,38.2758621 82.9310345,38.2758621 L87.3275862,38.2758621 L96.4655172,40.4310345 Z" id="Path" fill="#ADF9D2"></path>
                    <path d="M58.4482759,60.3448276 C56.0344828,63.7068966 68.7068966,73.9655172 72.9310345,71.9827586 C80.0862069,68.6206897 84.7413793,61.637931 84.7413793,59.0517241 C84.7413793,56.4655172 81.3793103,51.4655172 69.9137931,59.2241379 C66.7241379,61.5517241 60.9482759,56.8965517 58.4482759,60.3448276 Z" id="Path" fill="#ADF9D2"></path>
                    <path d="M39.2241379,50.9482759 C41.7241379,48.4482759 42.5,44.5689655 41.2068966,42.3275862 C37.0689655,34.8275862 27.2413793,38.7931034 26.2931034,46.637931 C25.7758621,51.3793103 22.9310345,56.2068966 20.5172414,58.7068966 C18.1034483,61.1206897 13.362069,59.8275862 12.0689655,56.2931034 C10.6034483,52.3275862 15.6896552,50.862069 14.9137931,45.7758621 C14.7413793,44.3965517 13.2758621,43.7068966 11.4655172,43.4482759 L2.93103448,43.7931034 C2.75862069,45.7758621 2.5862069,47.8448276 2.5862069,50 C2.5862069,72.6724138 18.4482759,91.637931 39.7413793,96.2931034 L39.7413793,87.8448276 C39.7413793,87.8448276 39.7413793,87.8448276 37.5862069,85.6896552 C35.4310345,83.5344828 39.8275862,79.9137931 41.0344828,75.3448276 C44.3965517,62.4137931 33.1896552,61.8965517 32.8448276,59.0517241 C32.5,55.862069 36.7241379,53.4482759 39.2241379,50.9482759 Z" id="Path" fill="#ADF9D2"></path>
                    <path d="M50,100 C22.4137931,100 0,77.5862069 0,50 C0,22.4137931 22.4137931,0 50,0 C55.7758621,0 61.4655172,0.948275862 66.8965517,2.93103448 C86.7241379,10 100,28.9655172 100,50 C100,77.5862069 77.5862069,100 50,100 Z M50,5.17241379 C25.2586207,5.17241379 5.17241379,25.2586207 5.17241379,50 C5.17241379,74.7413793 25.2586207,94.8275862 50,94.8275862 C74.7413793,94.8275862 94.8275862,74.7413793 94.8275862,50 C94.8275862,31.1206897 82.9310345,14.137931 65.1724138,7.75862069 C60.2586207,6.03448276 55.1724138,5.17241379 50,5.17241379 Z" id="Shape" fill="#444B54" fill-rule="nonzero"></path>
                    <path d="M39.7413793,90.4310345 C39.0517241,90.4310345 38.4482759,90.1724138 37.9310345,89.6551724 L35.7758621,87.5 C33.1034483,84.8275862 35.0862069,81.4655172 36.4655172,79.0517241 C37.3275862,77.6724138 38.1896552,76.2068966 38.5344828,74.6551724 C40.4310345,67.4137931 37.1551724,65.4310345 34.0517241,63.5344828 C32.3275862,62.5 30.6034483,61.4655172 30.3448276,59.3103448 C29.9137931,55.5172414 33.0172414,52.9310345 35.4310345,50.7758621 C36.1206897,50.1724138 36.8103448,49.5689655 37.4137931,49.0517241 C39.2241379,47.2413793 39.5689655,44.5689655 38.9655172,43.5344828 C37.4137931,40.7758621 35.1724138,40.7758621 33.9655172,40.9482759 C31.8103448,41.3793103 29.2241379,43.4482759 28.8793103,46.8965517 C28.2758621,52.3275862 25.0862069,57.7586207 22.3275862,60.5172414 C20.6034483,62.2413793 18.1034483,62.9310345 15.6034483,62.3275862 C12.8448276,61.7241379 10.6034483,59.7413793 9.65517241,57.1551724 C8.53448276,53.9655172 10,51.7241379 11.1206897,50 C12.0689655,48.6206897 12.5862069,47.6724138 12.4137931,46.3793103 C12.2413793,46.2931034 11.8965517,46.1206897 11.0344828,45.9482759 C9.65517241,45.6896552 8.70689655,44.3103448 8.96551724,42.9310345 C9.22413793,41.5517241 10.6034483,40.6034483 11.9827586,40.862069 C16.1206897,41.637931 17.2413793,43.7068966 17.5,45.3448276 C18.0172414,48.8793103 16.5517241,51.1206897 15.4310345,52.8448276 C14.3965517,54.3965517 14.3103448,54.7413793 14.5689655,55.3448276 C15,56.4655172 15.9482759,56.9827586 16.8103448,57.2413793 C17.1551724,57.3275862 18.1034483,57.5 18.7931034,56.8103448 C20.9482759,54.6551724 23.362069,50.2586207 23.8793103,46.2931034 C24.4827586,41.1206897 28.2758621,36.8103448 33.1034483,35.862069 C37.3275862,35 41.3793103,36.9827586 43.6206897,40.9482759 C45.5172414,44.3965517 44.4827586,49.3965517 41.2068966,52.6724138 C40.5172414,53.362069 39.7413793,54.0517241 38.9655172,54.6551724 C37.5862069,55.7758621 35.9482759,57.1551724 35.6896552,58.1896552 C36.0344828,58.4482759 36.4655172,58.7068966 36.8965517,58.9655172 C40,60.862069 46.5517241,64.8275862 43.7068966,75.862069 C43.1034483,78.0172414 41.9827586,80 41.1206897,81.5517241 C40.6896552,82.3275862 40,83.4482759 39.8275862,83.9655172 L41.7241379,85.862069 C42.7586207,86.8965517 42.7586207,88.5344828 41.7241379,89.4827586 C41.0344828,90.1724138 40.4310345,90.4310345 39.7413793,90.4310345 Z" id="Shape" fill="#444B54" fill-rule="nonzero"></path>
                    <path d="M71.7241379,74.8275862 C66.8965517,74.8275862 60.6896552,69.8275862 58.1034483,66.7241379 C54.8275862,62.8448276 55.3448276,60.2586207 56.3793103,58.8793103 C58.7068966,55.6034483 62.5,56.4655172 64.9137931,56.9827586 C66.2931034,57.2413793 67.9310345,57.5862069 68.5344828,57.1551724 C75,52.6724138 80.1724138,51.4655172 83.8793103,53.362069 C86.4655172,54.7413793 87.4137931,57.3275862 87.4137931,59.0517241 C87.4137931,63.1034483 81.4655172,70.862069 74.0517241,74.3103448 C73.362069,74.6551724 72.5862069,74.8275862 71.7241379,74.8275862 Z M60.862069,61.637931 C61.2931034,62.7586207 63.2758621,65.1724138 66.5517241,67.4137931 C69.4827586,69.3965517 71.4655172,69.7413793 71.8965517,69.6551724 C78.2758621,66.637931 82.1551724,60.5172414 82.2413793,59.0517241 C82.2413793,59.0517241 82.2413793,58.362069 81.4655172,57.9310345 C80.0862069,57.2413793 76.8103448,57.7586207 71.4655172,61.3793103 C69.0517241,63.0172414 66.2068966,62.4137931 63.8793103,61.9827586 C62.5,61.7241379 61.3793103,61.4655172 60.862069,61.637931 Z" id="Shape" fill="#444B54" fill-rule="nonzero"></path>
                    <path d="M58.9655172,43.9655172 C56.2931034,43.9655172 53.7931034,42.3275862 51.7241379,39.3103448 C49.0517241,35.5172414 47.0689655,29.0517241 48.5344828,25.2586207 C50.4310345,20.1724138 54.3965517,19.3103448 57.5862069,18.5344828 C58.8793103,18.2758621 60.1724138,17.9310345 61.3793103,17.4137931 C62.5862069,16.8965517 63.362069,15.6896552 63.362069,14.3965517 C63.362069,12.9310345 64.4827586,11.8103448 65.9482759,11.8103448 C67.4137931,11.8103448 68.5344828,12.9310345 68.5344828,14.3965517 C68.5344828,17.7586207 66.5517241,20.862069 63.4482759,22.1551724 C61.8103448,22.8448276 60.1724138,23.2758621 58.7068966,23.6206897 C55.5172414,24.3965517 54.2241379,24.7413793 53.2758621,27.1551724 C52.7586207,28.6206897 53.6206897,33.1034483 55.862069,36.3793103 C56.8965517,37.8448276 58.0172414,38.7931034 58.8793103,38.7931034 C61.637931,38.7931034 64.2241379,33.6206897 65.7758621,30.6034483 C67.3275862,27.5 68.362069,25.4310345 70.6896552,25.4310345 C72.9310345,25.4310345 74.2241379,27.5 76.2931034,30.5172414 C76.9827586,31.5517241 77.6724138,32.5862069 78.362069,33.5344828 C79.3965517,34.9137931 81.0344828,35.6896552 82.8448276,35.6896552 L87.2413793,35.6896552 C88.7068966,35.6896552 89.8275862,36.8103448 89.8275862,38.2758621 C89.8275862,39.7413793 88.7068966,40.862069 87.2413793,40.862069 L82.8448276,40.862069 C79.3965517,40.862069 76.2068966,39.3103448 74.2241379,36.637931 C73.4482759,35.6034483 72.6724138,34.3965517 71.9827586,33.362069 C71.7241379,32.9310345 71.3793103,32.4137931 71.0344828,31.8965517 C70.862069,32.2413793 70.6896552,32.6724138 70.5172414,32.9310345 C68.2758621,37.3275862 64.9137931,43.9655172 58.9655172,43.9655172 Z" id="Path" fill="#444B54"></path>
                </g>
            </g>
        </g>
    </g>
</svg>