<?xml version="1.0" encoding="UTF-8"?>
<svg width="100px" height="125px" viewBox="0 0 100 125" version="1.1" xmlns="http://www.w3.org/2000/svg" xmlns:xlink="http://www.w3.org/1999/xlink">
    <!-- Generator: Sketch 52.3 (67297) - http://www.bohemiancoding.com/sketch -->
    <title>icons8-trolleybus</title>
    <desc>Created with Sketch.</desc>
    <g id="政見" stroke="none" stroke-width="1" fill="none" fill-rule="evenodd">
        <g id="選擇議題-UI-" transform="translate(-463.000000, -633.000000)">
            <g id="Group-4" transform="translate(429.000000, 610.000000)">
                <g id="icons8-trolleybus" transform="translate(34.000000, 23.000000)">
                    <path d="M72.2772277,111.881188 L2.97029703,111.881188 L2.97029703,42.5742574 C2.97029703,31.6831683 11.8811881,22.7722772 22.7722772,22.7722772 L52.4752475,22.7722772 C63.3663366,22.7722772 72.2772277,31.6831683 72.2772277,42.5742574 L72.2772277,111.881188 Z" id="Path" fill="#FF5576"></path>
                    <path d="M52.4752475,22.7722772 L22.7722772,22.7722772 C11.8811881,22.7722772 2.97029703,31.6831683 2.97029703,42.5742574 L2.97029703,82.1782178 L72.2772277,82.1782178 L72.2772277,42.5742574 C72.2772277,31.6831683 63.3663366,22.7722772 52.4752475,22.7722772 Z" id="Path" fill="#676F77"></path>
                    <path d="M52.4752475,22.7722772 L37.6237624,22.7722772 L37.6237624,24.7524752 L47.5247525,24.7524752 C47.5247525,24.7524752 47.5247525,27.029703 47.5247525,28.7128713 C47.5247525,30.3960396 46.2376238,31.6831683 44.5544554,31.6831683 L30.6930693,31.6831683 C29.009901,31.6831683 27.7227723,32.970297 27.7227723,34.6534653 C27.7227723,36.3366337 29.009901,37.6237624 30.6930693,37.6237624 L37.6237624,37.6237624 L37.6237624,111.881188 L72.2772277,111.881188 L72.2772277,42.5742574 C72.2772277,31.6831683 63.3663366,22.7722772 52.4752475,22.7722772 Z" id="Path" fill="#444B54"></path>
                    <path d="M72.2772277,48.5148515 L37.6237624,48.5148515 L37.6237624,94.0594059 L30.6930693,94.0594059 C29.009901,94.0594059 27.7227723,95.3465347 27.7227723,97.029703 C27.7227723,98.7128713 29.009901,100 30.6930693,100 L37.6237624,100 L37.6237624,111.881188 L72.2772277,111.881188 L72.2772277,48.5148515 Z" id="Path" fill="#C6345E"></path>
                    <path d="M69.3069307,79.2079208 L5.94059406,79.2079208 L5.94059406,42.5742574 C5.94059406,39.8019802 8.11881188,37.6237624 10.8910891,37.6237624 L64.3564356,37.6237624 C67.1287129,37.6237624 69.3069307,39.8019802 69.3069307,42.5742574 L69.3069307,79.2079208 Z" id="Path" fill="#FFFFFF"></path>
                    <path d="M12.8712871,100 C12.6732673,100 12.4752475,100 12.2772277,99.9009901 C12.0792079,99.9009901 11.8811881,99.8019802 11.6831683,99.7029703 C11.4851485,99.6039604 11.3861386,99.5049505 11.1881188,99.4059406 C10.990099,99.3069307 10.8910891,99.2079208 10.7920792,99.009901 C10.1980198,98.4158416 9.9009901,97.7227723 9.9009901,96.9306931 C9.9009901,96.7326733 9.9009901,96.5346535 10,96.3366337 C10,96.1386139 10.0990099,95.9405941 10.1980198,95.7425743 C10.2970297,95.5445545 10.3960396,95.3465347 10.4950495,95.2475248 C10.5940594,95.049505 10.6930693,94.950495 10.8910891,94.7524752 C11.0891089,94.5544554 11.1881188,94.4554455 11.2871287,94.3564356 C11.4851485,94.2574257 11.5841584,94.1584158 11.7821782,94.0594059 C11.980198,93.960396 12.1782178,93.960396 12.3762376,93.8613861 C13.3663366,93.6633663 14.3564356,93.960396 15.049505,94.6534653 C15.1485149,94.7524752 15.3465347,94.950495 15.4455446,95.1485149 C15.5445545,95.3465347 15.6435644,95.4455446 15.7425743,95.6435644 C15.8415842,95.8415842 15.8415842,96.039604 15.9405941,96.2376238 C15.9405941,96.4356436 16.039604,96.6336634 16.039604,96.8316832 C16.039604,97.029703 16.039604,97.2277228 15.9405941,97.4257426 C15.9405941,97.6237624 15.8415842,97.8217822 15.7425743,98.019802 C15.6435644,98.2178218 15.5445545,98.4158416 15.4455446,98.5148515 C15.3465347,98.7128713 15.2475248,98.8118812 15.049505,98.9108911 C14.4554455,99.7029703 13.6633663,100 12.8712871,100 Z" id="Path" fill="#FFFFFF"></path>
                    <path d="M62.3762376,100 C61.5841584,100 60.7920792,99.7029703 60.2970297,99.1089109 C59.7029703,98.5148515 59.4059406,97.8217822 59.4059406,97.029703 C59.4059406,96.8316832 59.4059406,96.6336634 59.5049505,96.4356436 C59.5049505,96.2376238 59.6039604,96.039604 59.7029703,95.8415842 C59.8019802,95.6435644 59.9009901,95.4455446 60,95.3465347 C60.0990099,95.1485149 60.1980198,95.049505 60.3960396,94.8514851 C61.0891089,94.1584158 62.0792079,93.8613861 63.0693069,94.0594059 C63.2673267,94.0594059 63.4653465,94.1584158 63.6633663,94.2574257 C63.8613861,94.3564356 64.0594059,94.4554455 64.1584158,94.5544554 C64.3564356,94.6534653 64.4554455,94.7524752 64.5544554,94.950495 C64.6534653,95.049505 64.8514851,95.2475248 64.950495,95.4455446 C65.049505,95.6435644 65.1485149,95.7425743 65.2475248,95.9405941 C65.3465347,96.1386139 65.3465347,96.3366337 65.4455446,96.5346535 C65.4455446,96.7326733 65.5445545,96.9306931 65.5445545,97.1287129 C65.5445545,97.9207921 65.2475248,98.7128713 64.6534653,99.2079208 C64.5544554,99.3069307 64.3564356,99.5049505 64.2574257,99.6039604 C64.0594059,99.7029703 63.960396,99.8019802 63.7623762,99.9009901 C63.5643564,100 63.3663366,100 63.1683168,100.09901 C62.7722772,100 62.5742574,100 62.3762376,100 Z" id="Path" fill="#FFFFFF"></path>
                    <path d="M32.6732673,15.8415842 C31.8811881,15.8415842 31.1881188,15.5445545 30.5940594,14.950495 C29.4059406,13.7623762 29.4059406,11.8811881 30.5940594,10.7920792 L40.4950495,0.891089109 C41.6831683,-0.297029703 43.5643564,-0.297029703 44.6534653,0.891089109 C45.8415842,2.07920792 45.8415842,3.96039604 44.6534653,5.04950495 L34.7524752,14.950495 C34.1584158,15.5445545 33.4653465,15.8415842 32.6732673,15.8415842 Z" id="Path" fill="#444B54"></path>
                    <path d="M58.7128713,20.6930693 L74.3564356,5.04950495 C75.5445545,3.86138614 75.5445545,1.98019802 74.3564356,0.891089109 C73.1683168,-0.297029703 71.2871287,-0.297029703 70.1980198,0.891089109 L51.2871287,19.8019802 L22.7722772,19.8019802 C10.1980198,19.8019802 0,30 0,42.5742574 L0,111.881188 C0,113.564356 1.28712871,114.851485 2.97029703,114.851485 L5.94059406,114.851485 L5.94059406,121.782178 C5.94059406,123.465347 7.22772277,124.752475 8.91089109,124.752475 L13.8613861,124.752475 C15.5445545,124.752475 16.8316832,123.465347 16.8316832,121.782178 L16.8316832,114.851485 L58.4158416,114.851485 L58.4158416,121.782178 C58.4158416,123.465347 59.7029703,124.752475 61.3861386,124.752475 L66.3366337,124.752475 C68.019802,124.752475 69.3069307,123.465347 69.3069307,121.782178 L69.3069307,114.851485 L72.2772277,114.851485 C73.960396,114.851485 75.2475248,113.564356 75.2475248,111.881188 L75.2475248,42.5742574 C75.2475248,32.1782178 68.3168317,23.4653465 58.7128713,20.6930693 Z M66.3366337,108.910891 L61.3861386,108.910891 L13.8613861,108.910891 L8.91089109,108.910891 L5.94059406,108.910891 L5.94059406,85.1485149 L69.3069307,85.1485149 L69.3069307,108.910891 L66.3366337,108.910891 Z M69.3069307,79.2079208 L5.94059406,79.2079208 L5.94059406,42.5742574 C5.94059406,33.2673267 13.4653465,25.7425743 22.7722772,25.7425743 L52.4752475,25.7425743 C61.7821782,25.7425743 69.3069307,33.2673267 69.3069307,42.5742574 L69.3069307,79.2079208 Z" id="Shape" fill="#444B54" fill-rule="nonzero"></path>
                    <path d="M69.3069307,43.5643564 L40.5940594,43.5643564 C38.9108911,43.5643564 37.6237624,44.8514851 37.6237624,46.5346535 L37.6237624,79.2079208 L69.3069307,79.2079208 L69.3069307,43.5643564 Z" id="Path" fill="#E9EEF4"></path>
                    <path d="M82.1782178,124.752475 L8.91089109,124.752475 C7.22772277,124.752475 5.94059406,123.465347 5.94059406,121.782178 C5.94059406,120.09901 7.22772277,118.811881 8.91089109,118.811881 L82.1782178,118.811881 C83.8613861,118.811881 85.1485149,120.09901 85.1485149,121.782178 C85.1485149,123.465347 83.8613861,124.752475 82.1782178,124.752475 Z" id="Path" fill="#444B54"></path>
                    <path d="M97.029703,124.752475 C96.8316832,124.752475 96.6336634,124.752475 96.4356436,124.653465 C96.2376238,124.653465 96.039604,124.554455 95.8415842,124.455446 C95.6435644,124.356436 95.5445545,124.257426 95.3465347,124.158416 C95.1485149,124.059406 95.049505,123.960396 94.950495,123.762376 C94.8514851,123.663366 94.6534653,123.465347 94.5544554,123.366337 C94.4554455,123.168317 94.3564356,123.069307 94.2574257,122.871287 C94.1584158,122.673267 94.1584158,122.475248 94.0594059,122.277228 C94.0594059,122.079208 93.960396,121.881188 93.960396,121.683168 C93.960396,121.485149 93.960396,121.287129 94.0594059,121.089109 C94.0594059,120.891089 94.1584158,120.693069 94.2574257,120.49505 C94.3564356,120.29703 94.4554455,120.19802 94.5544554,120 C94.6534653,119.80198 94.7524752,119.70297 94.950495,119.50495 C95.1485149,119.306931 95.2475248,119.207921 95.3465347,119.108911 C95.5445545,119.009901 95.6435644,118.910891 95.8415842,118.811881 C96.039604,118.712871 96.2376238,118.712871 96.4356436,118.613861 C97.4257426,118.415842 98.4158416,118.712871 99.1089109,119.405941 C99.7029703,120 100,120.693069 100,121.485149 C100,122.277228 99.7029703,123.069307 99.1089109,123.564356 C98.6138614,124.455446 97.8217822,124.752475 97.029703,124.752475 Z" id="Path" fill="#444B54"></path>
                </g>
            </g>
        </g>
    </g>
</svg>