<?xml version="1.0" encoding="UTF-8"?>
<svg width="100px" height="76px" viewBox="0 0 100 76" version="1.1" xmlns="http://www.w3.org/2000/svg" xmlns:xlink="http://www.w3.org/1999/xlink">
    <!-- Generator: Sketch 52.3 (67297) - http://www.bohemiancoding.com/sketch -->
    <title>icons8-student</title>
    <desc>Created with Sketch.</desc>
    <g id="政見" stroke="none" stroke-width="1" fill="none" fill-rule="evenodd">
        <g id="選擇議題-UI-" transform="translate(-877.000000, -405.000000)">
            <g id="Group-7" transform="translate(843.000000, 353.000000)">
                <g id="icons8-student" transform="translate(34.000000, 52.000000)">
                    <path d="M84.4827586,30.0862069 L84.4827586,54.3103448 C84.4827586,57.1551724 83.1896552,59.9137931 81.0344828,61.7241379 C63.0172414,76.2068966 36.5517241,76.637931 18.9655172,61.8103448 C16.8103448,59.9137931 15.5172414,57.1551724 15.5172414,54.3103448 L15.5172414,29.9137931" id="Path" fill="#FFFFFF"></path>
                    <polygon id="Path" fill="#FFFFFF" points="2.5862069 24.137931 50.862069 45.6896552 97.4137931 24.137931 50.862069 2.5862069"></polygon>
                    <path d="M50.862069,45.6896552 L35.2586207,38.7068966 C44.137931,46.2931034 55.5172414,50.3448276 67.2413793,50.1724138 L67.2413793,69.4827586 C72.1551724,67.6724138 76.8103448,65 81.0344828,61.637931 C83.2758621,59.8275862 84.4827586,57.0689655 84.4827586,54.2241379 L84.4827586,46.5517241 L84.4827586,30.0862069 L50.862069,45.6896552 Z" id="Path" fill="#7CA5C6"></path>
                    <path d="M49.5689655,75.2586207 C37.9310345,75.2586207 26.3793103,71.4655172 17.3275862,63.7931034 C14.5689655,61.4655172 13.0172414,58.0172414 13.0172414,54.3103448 L13.0172414,29.9137931 C13.0172414,28.4482759 14.137931,27.3275862 15.6034483,27.3275862 C17.0689655,27.3275862 18.1896552,28.4482759 18.1896552,29.9137931 L18.1896552,54.3103448 C18.1896552,56.4655172 19.137931,58.4482759 20.6896552,59.8275862 C36.9827586,73.6206897 62.2413793,73.5344828 79.4827586,59.7413793 C81.1206897,58.4482759 81.9827586,56.4655172 81.9827586,54.3103448 L81.9827586,30.0862069 C81.9827586,28.6206897 83.1034483,27.5 84.5689655,27.5 C86.0344828,27.5 87.1551724,28.6206897 87.1551724,30.0862069 L87.1551724,54.3103448 C87.1551724,58.0172414 85.5172414,61.4655172 82.6724138,63.7068966 C73.0172414,71.4655172 61.2068966,75.2586207 49.5689655,75.2586207 Z" id="Path" fill="#454B54"></path>
                    <path d="M50.862069,48.2758621 C50.5172414,48.2758621 50.1724138,48.1896552 49.8275862,48.0172414 L1.55172414,26.4655172 C0.603448276,26.1206897 0,25.1724138 0,24.137931 C0,23.1034483 0.603448276,22.1551724 1.55172414,21.8103448 L49.8275862,0.25862069 C50.5172414,-0.0862068966 51.2931034,-4.59354776e-15 51.9827586,0.25862069 L98.5344828,21.8103448 C99.4827586,22.2413793 100,23.1896552 100,24.137931 C100,25.0862069 99.3965517,26.0344828 98.5344828,26.4655172 L51.9827586,48.0172414 C51.637931,48.1896552 51.2068966,48.2758621 50.862069,48.2758621 Z M8.96551724,24.137931 L50.862069,42.8448276 L91.2931034,24.137931 L50.862069,5.43103448 L8.96551724,24.137931 Z" id="Shape" fill="#454B54" fill-rule="nonzero"></path>
                    <path d="M97.4137931,51.637931 C95.9482759,51.637931 94.8275862,50.5172414 94.8275862,49.0517241 L94.8275862,32.7586207 C94.8275862,31.2931034 95.9482759,30.1724138 97.4137931,30.1724138 C98.8793103,30.1724138 100,31.2931034 100,32.7586207 L100,49.0517241 C100,50.4310345 98.8793103,51.637931 97.4137931,51.637931 Z" id="Path" fill="#454B54"></path>
                </g>
            </g>
        </g>
    </g>
</svg>