<?xml version="1.0" encoding="UTF-8"?>
<svg width="100px" height="100px" viewBox="0 0 100 100" version="1.1" xmlns="http://www.w3.org/2000/svg" xmlns:xlink="http://www.w3.org/1999/xlink">
    <!-- Generator: Sketch 52.3 (67297) - http://www.bohemiancoding.com/sketch -->
    <title>icons8-home</title>
    <desc>Created with Sketch.</desc>
    <g id="政見" stroke="none" stroke-width="1" fill="none" fill-rule="evenodd">
        <g id="選擇議題-UI-" transform="translate(-463.000000, -131.000000)">
            <g id="Group-10" transform="translate(429.000000, 96.000000)">
                <g id="icons8-home" transform="translate(34.000000, 35.000000)">
                    <polygon id="Path" fill="#FFFFFF" points="84.8 46.9 88.6 52.8 84.8 52.8 84.8 97 15.2 97 15.2 53.9 9.8 52.3 15.2 46.9 50 10.8"></polygon>
                    <polyline id="Path" fill="#C7D7E2" points="26.3 97 26.3 57.8 45.6 57.8 45.6 97"></polyline>
                    <polygon id="Path" fill="#C7D7E2" points="50 3 3.6 50 9.5 55.9 50 13.8 90.5 55.9 96.4 50 84.8 38.3 84.8 10.8 73.2 10.8 73.2 26.5"></polygon>
                    <path d="M34.5,44.2 C37.6,26.8 62.3,26.8 65.4,44.2 L34.5,44.2 Z" id="Path" fill="#C7D7E2"></path>
                    <path d="M84.8,100 L15.2,100 C13.5,100 12.2,98.7 12.2,97 L12.2,56.9 L7.5,56.9 C6.7,56.9 5.9,56.6 5.3,56 L1.4,52.1 C0.2,50.9 0.2,49.1 1.4,47.9 L47.8,0.9 C48.9,-0.2 50.9,-0.2 52.1,0.9 L70.1,19.2 L70.1,10.8 C70.1,9.1 71.4,7.8 73.1,7.8 L84.7,7.8 C86.4,7.8 87.7,9.1 87.7,10.8 L87.7,37 L98.4,47.9 C99.6,49.1 99.6,50.9 98.4,52.1 L94.5,56 C93.9,56.6 93.2,56.9 92.4,56.9 L87.7,56.9 L87.7,97 C87.8,98.7 86.4,100 84.8,100 Z M18.2,94 L81.7,94 L81.7,53.9 C81.7,53.1 82,52.3 82.6,51.8 C83.2,51.2 84,50.9 84.7,50.9 L91.2,50.9 L92.1,50 L82.6,40.4 C82,39.8 81.7,39.1 81.7,38.3 L81.7,13.8 L76.1,13.8 L76.1,26.5 C76.1,27.7 75.4,28.8 74.2,29.3 C73.1,29.8 71.8,29.5 70.9,28.6 L50,7.3 L7.9,50 L8.8,50.9 L15.3,50.9 C16.1,50.9 16.9,51.2 17.4,51.8 C18,52.4 18.3,53.1 18.3,53.9 L18.2,94 Z" id="Shape" fill="#454B54" fill-rule="nonzero"></path>
                    <rect id="Rectangle" fill="#C7D7E2" x="54.4" y="57.8" width="19.3" height="19.6"></rect>
                    <circle id="Oval" fill="#E3F3F7" cx="35.9" cy="67.6" r="3.9"></circle>
                </g>
            </g>
        </g>
    </g>
</svg>