<?xml version="1.0" encoding="UTF-8"?>
<svg width="100px" height="86px" viewBox="0 0 100 86" version="1.1" xmlns="http://www.w3.org/2000/svg" xmlns:xlink="http://www.w3.org/1999/xlink">
    <!-- Generator: Sketch 52.3 (67297) - http://www.bohemiancoding.com/sketch -->
    <title>icons8-paint_palette</title>
    <desc>Created with Sketch.</desc>
    <g id="政見" stroke="none" stroke-width="1" fill="none" fill-rule="evenodd">
        <g id="選擇議題-UI-" transform="translate(-670.000000, -667.000000)">
            <g id="Group-3" transform="translate(636.000000, 610.000000)">
                <g id="icons8-paint_palette" transform="translate(34.000000, 57.000000)">
                    <path d="M95.483871,25.8870968 C93.8709677,22.7419355 93.4677419,22.3387097 91.1290323,19.5967742 C77.9032258,3.87096774 52.1774194,-2.25806452 30.6451613,6.29032258 C7.33870968,15.5645161 -3.14516129,38.5483871 6.85483871,58.3870968 C14.516129,73.5483871 31.8548387,82.3387097 50.4032258,82.7419355 C61.6129032,82.983871 70.7258065,73.8709677 70.7258065,62.6612903 L70.7258065,54.5967742 C70.7258065,50.1612903 74.3548387,46.5322581 78.7903226,46.5322581 L83.7903226,46.5322581 C86.0483871,46.5322581 88.0645161,45.6451613 90.0806452,44.4354839 C96.4516129,40.483871 98.6290323,32.4193548 95.483871,25.8870968 Z M54.1129032,69.8387097 C49.4354839,72.8225806 43.1451613,71.3709677 40.2419355,66.6935484 C37.2580645,62.016129 38.7096774,55.7258065 43.3870968,52.8225806 C48.0645161,49.8387097 54.3548387,51.2903226 57.2580645,55.9677419 C60.2419355,60.6451613 58.7903226,66.8548387 54.1129032,69.8387097 Z" id="Shape" fill="#FFFFFF" fill-rule="nonzero"></path>
                    <path d="M48.7903226,73.7903226 C47.8225806,73.7903226 46.9354839,73.7096774 45.9677419,73.4677419 C42.7419355,72.7419355 39.9193548,70.7258065 38.1451613,67.9032258 C34.516129,62.0967742 36.2903226,54.3548387 42.0967742,50.7258065 C47.9032258,47.0967742 55.6451613,48.8709677 59.3548387,54.6774194 C62.983871,60.483871 61.2096774,68.2258065 55.4032258,71.9354839 C53.3870968,73.1451613 51.1290323,73.7903226 48.7903226,73.7903226 Z M48.7096774,53.6290323 C47.3387097,53.6290323 45.8870968,54.0322581 44.6774194,54.7580645 C41.1290323,57.016129 40,61.7741935 42.2580645,65.3225806 C43.3064516,67.016129 45.0806452,68.2258065 47.016129,68.7096774 C49.0322581,69.1935484 51.0483871,68.7903226 52.8225806,67.7419355 C52.8225806,67.7419355 52.8225806,67.7419355 52.8225806,67.7419355 C56.3709677,65.483871 57.5,60.7258065 55.2419355,57.1774194 C53.7903226,54.9193548 51.2903226,53.6290323 48.7096774,53.6290323 Z" id="Shape" fill="#444B54" fill-rule="nonzero"></path>
                    <path d="M50.483871,85.1612903 C30,85.1612903 12.9032258,75.5645161 4.75806452,59.516129 C-2.10942375e-15,50.0806452 -0.64516129,39.516129 3.06451613,29.7580645 C7.33870968,18.4677419 17.0967742,9.11290323 29.7580645,4.11290323 C51.6935484,-4.59677419 78.8709677,1.37096774 92.983871,18.0645161 L93.7096774,18.9516129 C95.483871,20.9677419 96.1290323,21.7741935 97.6612903,24.8387097 C101.370968,32.6612903 98.7096774,41.9354839 91.3709677,46.5322581 C89.516129,47.6612903 87.016129,49.0322581 83.8709677,49.0322581 L78.8709677,49.0322581 C76.6935484,49.0322581 74.5967742,50.3225806 73.7096774,52.3387097 C73.1451613,53.5483871 71.6935484,54.1129032 70.483871,53.5483871 C69.2741935,52.983871 68.7096774,51.5322581 69.2741935,50.3225806 C70.9677419,46.6129032 74.7580645,44.1935484 78.8709677,44.1935484 L83.8709677,44.1935484 C85.3225806,44.1935484 86.8548387,43.6290323 88.8709677,42.4193548 C94.1129032,39.1129032 96.0483871,32.5 93.3870968,26.9354839 C92.0967742,24.4354839 91.7741935,24.0322581 90.1612903,22.0967742 L89.4354839,21.2096774 C76.4516129,5.96774194 51.6935484,0.564516129 31.5322581,8.5483871 C20.0806452,13.0645161 11.3709677,21.4516129 7.58064516,31.4516129 C4.35483871,39.9193548 4.91935484,49.1129032 9.03225806,57.3387097 C16.2903226,71.7741935 31.7741935,80.3225806 50.483871,80.3225806 C50.483871,80.3225806 50.483871,80.3225806 50.483871,80.3225806 C59.2741935,80.3225806 66.7741935,74.1129032 68.1451613,65.6451613 C68.3870968,64.3548387 69.5967742,63.4677419 70.9677419,63.6290323 C72.2580645,63.8709677 73.1451613,65.0806452 72.983871,66.4516129 C71.1290323,77.2580645 61.6935484,85.1612903 50.483871,85.1612903 C50.483871,85.1612903 50.483871,85.1612903 50.483871,85.1612903 Z" id="Path" fill="#444B54"></path>
                    <circle id="Oval" fill="#ADF9D2" transform="translate(58.382008, 18.964476) rotate(-32.105590) translate(-58.382008, -18.964476) " cx="58.3820081" cy="18.9644758" r="9.11322518"></circle>
                    <circle id="Oval" fill="#ADF9D2" transform="translate(78.544024, 29.447540) rotate(-32.105590) translate(-78.544024, -29.447540) " cx="78.5440242" cy="29.4475403" r="9.11322518"></circle>
                    <circle id="Oval" fill="#ADF9D2" transform="translate(35.710226, 22.516726) rotate(-32.105590) translate(-35.710226, -22.516726) " cx="35.7102258" cy="22.5167258" r="9.11322518"></circle>
                    <circle id="Oval" fill="#ADF9D2" transform="translate(20.488097, 40.342016) rotate(-32.105590) translate(-20.488097, -40.342016) " cx="20.4880968" cy="40.3420161" r="9.11322518"></circle>
                </g>
            </g>
        </g>
    </g>
</svg>