<?xml version="1.0" encoding="utf-8"?>
<svg version="1.1" xmlns="http://www.w3.org/2000/svg" xmlns:xlink="http://www.w3.org/1999/xlink" x="0px" y="0px" viewBox="0 0 186 246" style="enable-background:new 0 0 186 246;" xml:space="preserve">
<style type="text/css">
	.st0{
		fill:#DEDEDE;
		stroke:#FFFFFF;
		stroke-width:0.5;
		stroke-miterlimit:10;
	}
	.active {
		fill: url(#active);
		stroke:#FFFFFF;
		stroke-width:0.5;
	}
</style>
<defs>
	<linearGradient id="active" gradientUnits="objectBoundingBox">
		<stop offset="0" style="stop-color:#FFD500"/>
		<stop offset="1" style="stop-color:#FF8500"/>
	</linearGradient>
</defs>
<path class="st0" d="M13.2,99.2c0,0,7.8-1.6,8-3l10-1.9c0,0,4.6,1.9,4.3,3.5s1.3,12.6,1.3,12.6s0,0,1.6,1.4
	c6.5,4.3,15.3-2.7,15.3-2.7l3.2-4.8l2.9-6.2c0,0,0,0,1.6,0s-1.6-6.7-1.6-6.7l2.9-5.3c0,0,0,0,2.1-1c2.1-1,1.2-3.8,1.2-3.8l0.4-7.6
	l9-5.4c0,0,0,0,3.7-0.5s3.7-7.8,3.7-7.8l3.5-4.5l3.2-6.3c1.5,1.6,4.8-4.3,5.3-7.1c0.5-2.7,0.2-3-1.4-6.1c-0.6-3.1,2.5-3.8,2.5-3.8
	s2.5-2.7,2.6-6.2s0-4.6,0-4.6l4.4-5.2l-2.3-2.6l-4.2-1.9l-1.2-4.2l-1.9-6c0,0-6.8,3-6,4.4c0.1,1.1-1,2.4-1,2.4l-0.5,4.9l-2.1,1
	l-3,0.7l-3.1,2.8l-1.2,5.4L72,24.8l-2.4,2.4l-7.3,1l-2.6,3.3L59.2,36l-2.4,5.6l-5.6-1l-3.5,1.2l-5-3.5c0,0-3.4,6.7-4.5,8.7
	c-3-0.7-9.2,11.8-9.2,11.8l-3.8,1.4c0,0-7.4,10.3-9.1,10.6c0,0-8,8.5-7.1,11.9c1,3.4-4.5,4.4-4.5,4.4l1.6,6.4
	C6.6,97.9,13.2,99.2,13.2,99.2z"/>
<path class="st0" d="M62.2,134.3l-0.3-3.2c-0.5-1.3-0.9-2.5-0.3-3.1l0.4-0.4c0.2-0.2,0.5-0.5,0.8-0.8l1-0.9c0.3-0.3,0.6-0.5,0.9-0.8
	l1.7-1.6c0.2-0.2,0.4-0.4,0.7-0.6l0.5-0.5c0.3-0.3,0.7-0.7,1-1l1.1-1c0.5-0.5,0.9-0.9,0.9-0.9s3.3-4,9.4,0c2.6-1.4,6.9-2.8,6.9-2.8
	s2.9-6.6,8.6-5.8c5-0.4,3.5-5.1,5-5.1c1.4-2.8,9.1-2.2,9.1-2.2l3-1.7l3.9-5.3c0,0,2.9-1.5,6-1l0.7-1.6l1.4-2.1l3-5.6
	c0,0,0.3-4,3.8-3.8l2.1-2.1c-3.7,0.3-3-6.7-3-6.7s0,0-1.8-1.2c-4.9-1.2-8-12.7-8-12.7h-1.6l-1.9-2.1l1.9-4.4l-1.9-5.6
	c0,0-2.7,0-5.4-2.3c-6.1,1.7-5.4-5-5.4-5l6.3-6.3l-2.6-4.7l1-5.7l1.6-2.8l-2.4-5.2l-2.8,0.7h-4.9l-4.4,5.2c0,0,0.1,1.1,0,4.6
	s-2.6,6.2-2.6,6.2s-3.1,0.6-2.5,3.8c1.6,3.1,1.9,3.4,1.4,6.1s-3.8,8.7-5.3,7.1L86,55.7l-3.5,4.5c0,0,0,7.2-3.7,7.8
	c-3.7,0.5-3.7,0.5-3.7,0.5l-9,5.4l-0.4,7.6c0,0,0.8,2.9-1.2,3.8c-2.1,1-2.1,1-2.1,1l-2.9,5.3c0,0,3.2,6.7,1.6,6.7
	c-1.6,0-1.6,0-1.6,0l-2.9,6.2l-3.2,4.8c0,0-8.8,7-15.3,2.7c-1.6-1.4-1.6-1.4-1.6-1.4s-1.6-11-1.3-12.6s-4.3-3.5-4.3-3.5l-10,1.9
	c-0.2,1.4-8,3-8,3S6.3,98.1,5.3,94l-4,6.4l5.2,4.4c0,0,9.2,3.5,10.1,2.3c0.9-1.2,10.1,3,10.1,3l6.8,5.9c3.7-0.2,9.8,13.2,9.8,13.2
	l0.9,2.4l8.9-2.1L62.2,134.3z"/>
<path class="st0" d="M89.5,121.3c-0.4,2.8,3.6,4,3.6,4s4.1,6.6,6.5,6.8c3.2,0.2,4.7,7,0,13.5c2.9-0.2,3,11.8,3,11.8s5.1-0.8,7.9-1.2
	s7.8-4.8,7.8-4.8s2.6-6.2,3.8-4s0.8,4,0.8,4s13.1-2.1,13-4l2.8-3c0,0,2.6-0.9,3.6,1.9l-1-2.8l3.8-4.9l0.7-4.9l3.1-6.3l3.1-4.9
	c-2.9-3.1-2.6-9.4-2.6-9.4l-9.8-7.3l-15.3-5.8l-1.8-4.5c-3.2-0.5-6,1-6,1l-3.9,5.3l-3,1.7c0,0-7.7-0.6-9.1,2.2c-1.5,0.1,0,4.8-5,5.1
	c-5.7-0.8-8.6,5.8-8.6,5.8s-0.8,0.2-1.9,0.6C85.2,118.5,86.2,121.1,89.5,121.3z"/>
<path class="st0" d="M115.7,165.9c1.6,3.9,0.5,3.6,3.8,10.3l0.2,2.3c0,0-4.7-1.3-5.3,7c-8.5,8.2-4.5,9.9-4.5,9.9s15.7-4.7,13.6-1.9
	l2.1-2.8c0,0,2.4,2.9,3.7,0c1.3-2.9,1.8-2.9,1.8-2.9l3.8-2l3.4,1.2l5.4,1.7l6.6-0.7l3.5-4.7c0,0,1.9-3.3,5.7-0.2
	c1.3-0.3,8.2-1.1,9.2,1.6c0,0,2.9-2.8,4.7-1.7s9.9,0,9.9,0v-4c0,0-0.6-0.9-7.4,1.4c-7.4,1.4-14.9-4.9-14.9-4.9s-10.2-3.9-14.6-6.8
	s-3.9-5.6-3.9-5.6l-1.6-5.6l4-3.5c0,0-0.3-2.1,1.6-3c-1.4-3.9-4.5-5-4.5-5c-1-2.8-3.6-1.9-3.6-1.9l-2.8,3c0.1,1.9-13,4-13,4
	s0.4-1.8-0.8-4s-3.8,4-3.8,4s-4.9,4.3-7.8,4.8C110.5,156,109,163.3,115.7,165.9z"/>
<path class="active" d="M93.1,137.3l-6.4-3.9l-1.8,2.7c0,1.7-11.4,2.2-11.4,2.2s10.8,7.3,10.8,8.6c0,1.4-2.9,7.4-6.8,6.9
	c1.4,0.8,0,9.2,0,9.2s11,0.8,12.8,1.2c6.9-5.6,17.9-5,17.9-5s1.5-4,2.1-0.8c-0.1-1.4,0.1-2.5,0.1-2.5c-2.8,0.5-7.9,1.2-7.9,1.2
	s-0.1-11.9-3-11.8c4.7-6.5,3.2-13.3,0-13.5C101.9,133.3,93.1,137.3,93.1,137.3z"/>
<path class="active" d="M109.3,194.9c-0.7-0.9-1.1-3.4,5.1-9.4c0.6-8.3,5.3-7,5.3-7l-0.2-2.3c-3.4-6.7-2.3-6.4-3.8-10.3
	c-4.2-1.6-5.2-5.1-5.3-7.5c-0.7-3.3-2.1,0.8-2.1,0.8s-11-0.6-17.9,5c-0.1,0-0.1,0-0.2,0l-0.3,14.2l-4.1,5.3l11.9,14.9c0,0,0,0,5-4.4
	C106.3,193.2,108.4,194.2,109.3,194.9z"/>
<path class="st0" d="M70.5,119.4l-0.9,0.9l-1.1,1c-0.3,0.3-0.6,0.6-1,1l-0.5,0.5c-0.2,0.2-0.4,0.4-0.7,0.6l-1.7,1.6
	c-0.3,0.3-0.6,0.6-0.9,0.8l-1,0.9c-0.3,0.3-0.6,0.6-0.8,0.8l-0.4,0.4l0.3,3.1c0.6,1.6,1.4,3.2,0.3,3.2c-0.9,0-2.7-1-4.5-2.1l0.1,0.5
	l-1,13.1l-0.5,13.7l12.3,3.3l9,0.1c0,0,1.4-8.4,0-9.2c3.9,0.5,6.8-5.6,6.8-6.9c0-1.4-10.8-8.6-10.8-8.6s11.4-0.5,11.4-2.2l1.8-2.7
	l6.4,3.9c0,0,8.8-3.9,6.5-5.3c-2.5-0.2-6.5-6.8-6.5-6.8s-4-1.2-3.6-4c-2.8-0.1-3.9-2-4.4-3.3c-0.4-0.1-0.8-0.2-1.2-0.3
	c-1.3,0.5-2.9,1.1-4.1,1.8C73.8,115.4,70.5,119.4,70.5,119.4z"/>
<path class="st0" d="M56.8,145.8l1-13.1l-0.1-0.5c-2.2-1.4-4.3-2.9-4.3-2.9l-8.9,2.1c3.5,0.2-0.3,27.7-0.3,27.7l12.1,0.4L56.8,145.8
	z"/>
<path class="st0" d="M47.1,160.6l-3.8-0.6l-1.2,1.1l-12.7,7.7l-4,2.8l4.4,12.9v2.4c0,0,1.1,5.6,1.6,7.8c0.4,2.2,3.5,2.1,3.5,2.1
	l5.9-5l4.4-4.5l3.7-2.4l-5.9-8.1L47.1,160.6z"/>
<path class="st0" d="M58.8,178.4c0.9-2,2-7.3,2.1-5.8c1.9,2.8,6.7,1.5,6.7,1.5l1.1-11.2h-0.1l-12.3-3.3l-12.1-0.4l-0.9,0.8l3.8,0.6
	l-4.3,16l5.9,8.1l2.8-0.2l5.9,3.1l4.4,5.7c0,0,4.5,4.5,5.9,3l1,2.1l3.1-3.2C71.8,195.4,57.9,180.4,58.8,178.4z"/>
<path class="st0" d="M77.3,199.5c2.1-0.8,4.9-2,4.9-2l3.6,1.3l4.1-3.4l5.6,4.1l2.2-0.9l-11.9-14.9l4.1-5.3l0.3-14.2
	c-2.3-0.5-12.6-1.2-12.6-1.2l-8.9-0.1l-1.1,11.2c0,0-4.8,1.3-6.7-1.5c-0.1-1.5-1.2,3.8-2.1,5.8s13,17,13,17l-0.7,0.7l0.7,0.7
	C71.8,196.8,75.2,200.3,77.3,199.5z"/>
<path class="st0" d="M134.6,233.5l-6.8-2.4c0,0-3.5-1.1-1.2-5.9c-0.4-2.8-0.2-5.2-0.2-5.2l1-2.3l-2.4-4.9l1.7-5.9l-3-3.1l-0.7-5.6
	l0.3-4.7c2.1-2.8-13.6,1.9-13.6,1.9s-0.3-0.1-0.6-0.5c-0.9-0.7-3.1-1.7-6.7-0.8c-5,4.4-5,4.4-5,4.4l-2.2,0.9l-5.6-4.1l-4.1,3.4
	l-3.6-1.3c0,0-2.8,1.3-4.9,2s-5.5-2.7-5.5-2.7l-0.7-0.7l-2.4,2.5l-0.5,8.2l-3.3,10.4l5.7-5.2l2.1,5.2l6.3,1.9c0,0,0.7,3.3,2.1,3
	s1.6-2.8,1.6-2.8s4.8-0.9,4.5,2.1s0,6.6,0,6.6l6,11.1l2.2,1.9l8-0.5l1.2-1.9l5.9,1.4l6.3,1.4l4.9,0.3l3.5,3.6l3.1-0.8l8.5-4l6.6-2.8
	C142.8,235.7,134.6,233.5,134.6,233.5z"/>
</svg>
